<svg width="32" height="32" viewBox="0 0 32 32" fill="none" xmlns="http://www.w3.org/2000/svg">
<g clip-path="url(#clip0_21_1711)">
<path d="M18.3551 16.4114C18.0278 15.8158 17.9468 15.093 17.9214 14.4244C17.908 14.115 17.9113 13.8051 17.9314 13.4961C17.4635 13.8292 16.929 14.057 16.3647 14.164C15.8534 14.2564 15.3119 14.2269 14.7979 14.1633C14.4617 14.125 14.1305 14.0507 13.8101 13.9418C13.8054 14.1874 13.8141 14.4337 13.8181 14.68C13.8262 15.2074 13.8322 15.7783 13.6073 16.2682C13.5092 16.4888 13.345 16.6735 13.1375 16.7969C12.9975 16.8724 12.8452 16.9222 12.6877 16.9441C12.924 17.1195 13.1611 17.2939 13.3992 17.4675C13.8697 17.8102 14.3428 18.1495 14.8247 18.4761C15.1553 18.7003 15.4906 18.9385 15.852 19.1132C16.0161 19.0298 16.1756 18.9378 16.3299 18.8375C16.5735 18.6842 16.8117 18.5236 17.048 18.3609C17.6851 17.9233 18.3109 17.4695 18.9313 17.0084C18.6857 16.869 18.4856 16.6617 18.3551 16.4114Z" fill="#FFE7D7"/>
<path d="M20.444 8.26054C20.4105 8.09657 20.3376 7.94465 20.185 7.863C20.0547 7.80485 19.9111 7.78288 19.7694 7.79942C19.6402 7.80678 19.6409 7.606 19.7694 7.59864H19.7861C19.0732 6.90445 18.491 6.08766 18.0674 5.18729C17.7221 5.17992 17.377 5.17234 17.0321 5.16453C15.7591 5.13709 14.4862 5.10943 13.2133 5.08154C12.4602 5.91879 11.769 6.8097 11.1452 7.74722C11.1419 7.7519 11.1379 7.75458 11.1345 7.75859C11.1258 7.78238 11.1086 7.80215 11.0863 7.81422C11.064 7.82629 11.0381 7.82983 11.0134 7.82418C10.9146 7.80597 10.8129 7.81259 10.7174 7.84343C10.6218 7.87427 10.5354 7.92837 10.4659 8.00087C10.3234 8.15614 10.2705 8.38101 10.2705 8.58714C10.2692 9.08106 10.753 9.48864 11.2356 9.43844C11.2945 9.43242 11.3306 9.48931 11.336 9.53883C11.3514 9.67603 11.3681 9.81256 11.3888 9.94909C11.462 10.4948 11.5974 11.0304 11.7924 11.5453C11.9495 11.9374 12.1557 12.3081 12.4061 12.6482C12.7841 13.1758 13.3195 13.5701 13.9354 13.7746C14.3364 13.9 14.7514 13.9751 15.1709 13.9981C15.6976 14.0336 16.2156 14.0268 16.7242 13.8683C17.2341 13.7057 17.7069 13.4441 18.1156 13.0986C18.4678 12.797 18.7573 12.4291 18.9676 12.0158C19.41 11.1712 19.5893 10.212 19.7533 9.28117C19.7607 9.25569 19.7779 9.23414 19.801 9.22113C19.8242 9.20813 19.8515 9.20469 19.8771 9.21156C20.0906 9.2544 20.2639 9.10649 20.3623 8.9298C20.4678 8.72339 20.4968 8.48627 20.444 8.26054Z" fill="#FFE7D7"/>
<path d="M18.0754 13.2842C18.0754 13.2842 18.0432 13.5981 18.0419 14.0451C17.5586 14.6033 16.6532 15.0269 15.9625 15.2859C15.4846 15.466 14.5169 15.6494 13.6843 15.7665C13.8001 15.138 13.7124 14.3677 13.7399 13.8042C14.2719 14.015 14.9439 14.1248 15.8307 14.1208C16.6371 14.1174 17.4329 13.7781 18.0754 13.2842Z" fill="#F7D4BC"/>
<path d="M20.1427 6.06164C20.0805 6.48187 20.0316 6.90424 19.9814 7.32587C19.9754 7.38008 19.9687 7.4349 19.9627 7.48917C19.2336 6.78754 18.6417 5.95618 18.2173 5.03766C18.2086 5.02236 18.1961 5.00963 18.1809 5.00081C18.1657 4.99198 18.1485 4.98737 18.1309 4.98747C16.9872 4.96271 15.8438 4.93772 14.7009 4.91251L13.8517 4.89444L13.4186 4.8844L13.2192 4.88039C13.1853 4.87751 13.1513 4.88398 13.1209 4.89908C13.0905 4.91419 13.0647 4.93735 13.0465 4.96605C12.6905 5.36226 12.3487 5.77028 12.0212 6.19013C11.7167 6.58089 11.4247 6.98089 11.1452 7.39012C11.101 6.49933 11.0187 5.61189 10.8982 4.72779C10.8938 4.71089 10.8849 4.69546 10.8726 4.6831C10.8602 4.67074 10.8448 4.66189 10.8279 4.65745C10.4886 4.55707 10.156 4.40119 9.93044 4.11943C9.71896 3.85574 9.61991 3.51375 9.58845 3.1818C9.52153 2.48443 9.69085 1.75694 10.0094 1.13653C10.1664 0.829315 10.3633 0.544195 10.595 0.288574C10.8159 0.848078 11.2991 1.27038 11.8465 1.50864C12.5954 1.83457 13.4314 1.82386 14.2318 1.79776C15.1206 1.76898 16.0094 1.73909 16.8981 1.70808C17.6223 1.68399 18.416 1.63446 19.0806 1.97779C19.7907 2.34388 20.1621 3.11882 20.2645 3.88318C20.3562 4.61201 20.2491 5.34037 20.1427 6.06164Z" fill="#7F5955"/>
<path d="M16.0775 9.68294C16.1026 9.67511 16.1239 9.65799 16.1369 9.63506C16.1499 9.61213 16.1538 9.58511 16.1476 9.55947C16.0318 8.81248 15.9158 8.06556 15.7996 7.31871C15.7798 7.19155 15.5863 7.24542 15.606 7.37225C15.7163 8.08408 15.8269 8.79572 15.9378 9.5072C15.6999 9.53209 15.4358 9.36043 15.2757 9.20837C15.182 9.11929 15.04 9.26104 15.1338 9.35032C15.3644 9.56997 15.7493 9.79264 16.0775 9.68294Z" fill="black"/>
<path d="M17.3165 7.84873H18.1263C18.1529 7.84873 18.1784 7.83815 18.1972 7.81932C18.2161 7.8005 18.2267 7.77496 18.2267 7.74834C18.2267 7.72171 18.2161 7.69618 18.1972 7.67735C18.1784 7.65853 18.1529 7.64795 18.1263 7.64795H17.3165C17.2898 7.64795 17.2643 7.65853 17.2455 7.67735C17.2266 7.69618 17.2161 7.72171 17.2161 7.74834C17.2161 7.77496 17.2266 7.8005 17.2455 7.81932C17.2643 7.83815 17.2898 7.84873 17.3165 7.84873Z" fill="black"/>
<path d="M13.825 7.64795H13.0152C12.9886 7.64795 12.963 7.65853 12.9442 7.67735C12.9254 7.69618 12.9148 7.72171 12.9148 7.74834C12.9148 7.77496 12.9254 7.8005 12.9442 7.81932C12.963 7.83815 12.9886 7.84873 13.0152 7.84873H13.825C13.8516 7.84873 13.8772 7.83815 13.896 7.81932C13.9148 7.8005 13.9254 7.77496 13.9254 7.74834C13.9254 7.72171 13.9148 7.69618 13.896 7.67735C13.8772 7.65853 13.8516 7.64795 13.825 7.64795Z" fill="black"/>
<path d="M20.0045 8.81971C20.03 8.81238 20.0517 8.79535 20.0648 8.77227C20.0779 8.74919 20.0814 8.72189 20.0747 8.69623C20.0662 8.67529 20.0595 8.65369 20.0546 8.63165C20.0534 8.62629 20.0524 8.62094 20.0514 8.61558C20.0515 8.61698 20.0515 8.6184 20.0514 8.6198C20.0514 8.61846 20.0514 8.61692 20.0514 8.61552V8.61418C20.0494 8.60421 20.0509 8.60896 20.0514 8.61418C20.0514 8.60427 20.0492 8.59363 20.0489 8.58406C20.0484 8.56221 20.0492 8.54035 20.0514 8.51861C20.0523 8.51392 20.0531 8.50924 20.054 8.50455C20.0564 8.49291 20.0593 8.48133 20.0625 8.46988C20.0655 8.45958 20.0688 8.44938 20.0724 8.4393C20.0734 8.43676 20.0751 8.43308 20.0766 8.42953C20.075 8.43294 20.0735 8.43455 20.0772 8.42699L20.0777 8.42612C20.0782 8.425 20.0786 8.42383 20.0788 8.42264C20.0787 8.42355 20.0785 8.42445 20.0781 8.42531C20.0876 8.40551 20.0982 8.38633 20.1101 8.36789C20.1134 8.36294 20.1168 8.35819 20.1202 8.3533C20.1269 8.34554 20.1336 8.3375 20.1408 8.33001C20.1489 8.32135 20.1575 8.31312 20.1664 8.30531C20.17 8.30283 20.1733 8.30006 20.1764 8.29701C20.1775 8.29621 20.1786 8.29534 20.1797 8.29461C20.2023 8.28074 20.2186 8.25872 20.2253 8.23312C20.232 8.20753 20.2286 8.18034 20.2157 8.15721C20.2021 8.13446 20.1801 8.11796 20.1544 8.11123C20.1287 8.1045 20.1015 8.10808 20.0784 8.1212C19.9814 8.19003 19.9096 8.2887 19.8739 8.40216C19.8383 8.51562 19.8407 8.63763 19.8809 8.74957C19.8885 8.77491 19.9056 8.79634 19.9287 8.8094C19.9517 8.82246 19.9788 8.82615 20.0045 8.81971Z" fill="black"/>
<path d="M10.863 8.18681C10.8449 8.20598 10.8347 8.2314 10.8347 8.25782C10.8347 8.28424 10.8449 8.30966 10.863 8.32883L10.8664 8.33298C10.8687 8.33626 10.8711 8.33967 10.8735 8.34282C10.88 8.35228 10.8862 8.36194 10.8921 8.3718C10.8988 8.38284 10.9049 8.39422 10.9107 8.40573C10.9132 8.41088 10.9154 8.41623 10.9181 8.42132V8.42192C10.9263 8.4431 10.9333 8.46468 10.9393 8.48657C10.9422 8.49768 10.9447 8.50884 10.9469 8.52004C10.948 8.52566 10.9488 8.53141 10.95 8.53697V8.53804V8.54025C10.9523 8.56315 10.9533 8.58617 10.953 8.60918C10.953 8.62069 10.9522 8.63221 10.9513 8.64365C10.9509 8.64874 10.9503 8.65382 10.9498 8.65891V8.65971C10.9458 8.68378 10.9402 8.70756 10.9331 8.73092C10.9297 8.7419 10.9253 8.75254 10.9217 8.76345V8.76385C10.9186 8.77014 10.9158 8.7765 10.9128 8.78279C10.8993 8.80578 10.8956 8.83316 10.9023 8.85891C10.9091 8.88467 10.9258 8.90669 10.9488 8.92012C10.9717 8.93356 10.9991 8.93731 11.0249 8.93056C11.0506 8.92381 11.0727 8.9071 11.0861 8.88412C11.141 8.77232 11.1625 8.64706 11.1481 8.52334C11.1336 8.39963 11.0838 8.28271 11.0045 8.18661C10.9856 8.16806 10.9602 8.15768 10.9337 8.15771C10.9073 8.15775 10.8819 8.1682 10.863 8.18681ZM10.9506 8.65891C10.9512 8.65222 10.952 8.65074 10.9506 8.65891V8.65891Z" fill="black"/>
<path d="M20.9975 17.0781C20.8234 17.4401 20.6501 17.8031 20.4774 18.167C20.1388 18.8818 19.8015 19.5972 19.4755 20.3179C19.347 20.6024 19.2165 20.8881 19.1034 21.1793C19.0567 21.3207 18.9964 21.4572 18.9234 21.5869C18.8974 21.6341 18.8605 21.6742 18.8157 21.704C18.815 21.704 18.8063 21.7067 18.7983 21.7094C18.7976 21.7087 18.7969 21.7087 18.7962 21.708C18.7956 21.7073 18.7949 21.7067 18.7942 21.7067C18.7936 21.7067 18.7929 21.7061 18.7916 21.7047C18.7802 21.696 18.7695 21.6866 18.7588 21.6779C18.73 21.6532 18.7019 21.6277 18.6738 21.6023C18.5981 21.5327 18.5232 21.4618 18.4489 21.3908C18.1645 21.1198 17.8791 20.8496 17.5929 20.5803C17.5882 20.573 17.5849 20.5656 17.5802 20.5583C17.5672 20.5387 17.5478 20.5243 17.5253 20.5174C17.3306 20.3374 17.1358 20.1587 16.9364 19.9833C16.6452 19.7277 16.3474 19.4787 16.0396 19.2425C16.2403 19.1374 16.4324 19.0123 16.6218 18.8891C16.9571 18.6709 17.2857 18.4427 17.613 18.2118C18.1337 17.8437 18.649 17.4669 19.1603 17.0861C19.1753 17.0806 19.1883 17.0708 19.1978 17.058C19.2868 16.9918 19.3765 16.9255 19.4655 16.8586C19.5853 16.7689 19.7044 16.6792 19.8242 16.5889L20.9406 17.0547C20.9593 17.062 20.9787 17.0701 20.9975 17.0781Z" fill="#DBDDDC"/>
<path d="M15.6641 19.2432C15.0872 19.6855 14.5457 20.1721 14.0157 20.6687C13.7828 20.8862 13.5532 21.1071 13.323 21.3272C13.1905 21.4537 13.06 21.5849 12.9181 21.7007C12.9174 21.7007 12.9174 21.7014 12.9168 21.702C12.9153 21.7027 12.9139 21.7036 12.9127 21.7047C12.9121 21.7054 12.9121 21.7061 12.9114 21.7061H12.9107C12.9098 21.7066 12.9089 21.7073 12.9081 21.708C12.9075 21.7081 12.9071 21.7083 12.9067 21.7087C12.9077 21.7096 12.9088 21.7103 12.9101 21.7107C12.9147 21.7154 12.9261 21.7261 12.9054 21.7101L12.9047 21.7107C12.8947 21.7308 12.888 21.708 12.8967 21.7047C12.8886 21.7014 12.8779 21.6974 12.8733 21.6947C12.8504 21.6781 12.8303 21.658 12.8137 21.6351C12.7113 21.5033 12.6598 21.3333 12.6009 21.1793C12.3653 20.5696 12.0768 19.978 11.8011 19.3864C11.4919 18.7225 11.1789 18.0601 10.8621 17.3993L10.7075 17.0781C11.0575 16.9322 11.4073 16.7863 11.7569 16.6404C11.7984 16.623 11.8399 16.6063 11.8807 16.5889C12.0434 16.712 12.2064 16.8347 12.37 16.957C12.3748 16.9611 12.38 16.9649 12.3854 16.9683C12.5694 17.1054 12.7541 17.2422 12.9395 17.3786C13.6048 17.8678 14.2734 18.3544 14.9627 18.8095C15.189 18.9659 15.4231 19.1106 15.6641 19.2432Z" fill="#DBDDDC"/>
<path d="M17.2951 21.3617C17.1453 21.6515 16.9576 21.92 16.7369 22.1602C16.659 22.2525 16.5694 22.3344 16.4705 22.4038C16.4679 22.4058 16.4658 22.4078 16.4632 22.4097C16.456 22.4077 16.4486 22.4064 16.4411 22.4058C16.0551 22.3809 15.6676 22.3905 15.2833 22.4346C15.275 22.4222 15.2643 22.4117 15.2518 22.4038C15.0591 22.286 14.8763 22.0464 14.7351 21.8536C14.5484 21.6 14.3637 21.3149 14.2881 21.0049C14.2508 20.8955 14.2582 20.7757 14.3088 20.6717C14.4721 20.5197 14.6354 20.3691 14.8021 20.2213C15.142 19.9188 15.4894 19.6243 15.8528 19.3506C16.4015 19.7726 16.9278 20.2229 17.4296 20.6998C17.5213 20.8973 17.3874 21.181 17.2951 21.3617Z" fill="#2E6AA2"/>
<path d="M17.4925 31.9331H14.2258C14.2289 31.9262 14.2311 31.9191 14.2325 31.9117C14.2432 31.8608 14.3349 31.0731 14.3577 30.873C14.4413 30.1582 14.5232 29.4432 14.6033 28.728C14.705 27.8272 14.8063 26.9259 14.9071 26.0242C14.9955 25.2385 15.0834 24.4526 15.1708 23.6664C15.1996 23.4054 15.2286 23.1444 15.2578 22.8834C15.2672 22.8011 15.2793 22.7181 15.2886 22.6351C15.6687 22.592 16.0519 22.5825 16.4337 22.607C16.465 22.8868 16.4962 23.1665 16.5274 23.4463C16.6111 24.1992 16.6952 24.9523 16.7797 25.7056C16.8808 26.6091 16.9823 27.5126 17.0843 28.4161C17.1692 29.1684 17.2549 29.9205 17.3412 30.6723C17.368 30.9032 17.395 31.1339 17.4222 31.3643C17.4296 31.4225 17.4704 31.8369 17.4925 31.9331Z" fill="#2E6AA2"/>
<path d="M15.0911 11.1684C15.3712 11.2695 15.672 11.2995 15.9665 11.2557C16.261 11.2119 16.5401 11.0956 16.7786 10.9174C16.8009 10.9033 16.817 10.8813 16.8237 10.8558C16.8304 10.8303 16.8271 10.8033 16.8146 10.7801C16.8011 10.7572 16.779 10.7406 16.7533 10.7338C16.7276 10.7271 16.7003 10.7308 16.6772 10.7441C16.4738 10.8996 16.236 11.0043 15.9839 11.0494C15.7318 11.0945 15.4725 11.0786 15.2277 11.0031C15.0726 10.9549 14.8713 10.8789 14.7705 10.7444C14.6939 10.6423 14.5195 10.7422 14.5971 10.8457C14.7178 11.0067 14.9062 11.0996 15.0911 11.1684Z" fill="black"/>
<path d="M26.6059 31.9329C26.6087 31.9231 26.6098 31.9129 26.6092 31.9028C26.5731 30.9404 26.5209 29.978 26.4707 29.0156C26.4091 27.8315 26.3437 26.6476 26.2746 25.4638C26.2471 24.9986 26.219 24.5341 26.1869 24.069C26.1775 23.9412 25.9767 23.9399 25.9861 24.069C26.053 25.0301 26.1052 25.9925 26.1588 26.9542C26.225 28.1382 26.2873 29.3223 26.3455 30.5067C26.3683 30.9718 26.391 31.4376 26.4084 31.9028C26.4085 31.9131 26.4106 31.9233 26.4144 31.9329H17.6779C17.6828 31.9217 17.6853 31.9096 17.6852 31.8974C17.6852 31.882 17.6304 31.4209 17.6223 31.358C17.5956 31.1331 17.5695 30.9076 17.5434 30.6827C17.4586 29.9532 17.3754 29.2239 17.2937 28.4949C17.1953 27.6204 17.0972 26.7461 16.9993 25.872C16.9145 25.118 16.8302 24.3637 16.7463 23.6093C16.7182 23.3603 16.6903 23.1111 16.6626 22.8616C16.6512 22.7573 16.6506 22.6422 16.6292 22.5384C16.8433 22.3865 17.016 22.1529 17.1666 21.9475C17.3687 21.6704 17.5741 21.3485 17.6397 21.0058C17.6458 20.9744 17.6498 20.9422 17.6531 20.9101C17.6605 20.9175 17.6685 20.9242 17.6759 20.9315C17.9048 21.147 18.1303 21.3652 18.3579 21.5814C18.4649 21.6824 18.5794 21.8203 18.7106 21.8912C18.8457 21.9642 18.9903 21.8376 19.0646 21.736C19.1737 21.5861 19.2319 21.404 19.2975 21.2327C19.5251 20.6431 19.8142 20.0521 20.0852 19.4705C20.3931 18.81 20.7043 18.1516 21.0188 17.4955C21.0777 17.3724 21.1366 17.2497 21.1955 17.1274C22.1138 17.1288 23.0327 17.1529 23.9509 17.185C24.841 17.2165 25.7311 17.2593 26.6199 17.3202C27.085 17.3516 27.5495 17.3878 28.014 17.4313C28.4724 17.4741 28.9489 17.5223 29.3699 17.7231C30.0198 18.0336 30.4053 18.656 30.6214 19.3206C30.849 20.0227 30.9166 20.7615 30.9781 21.493C31.116 23.126 31.2104 24.7624 31.2934 26.3987C31.3777 28.0552 31.4495 29.7123 31.5089 31.37C31.5156 31.548 31.522 31.7256 31.5283 31.9028C31.5284 31.9131 31.5304 31.9233 31.5343 31.9329H26.6059Z" fill="#EFEFEF"/>
<path d="M26.6092 31.9028C26.6099 31.9129 26.6087 31.9231 26.6059 31.9329C26.5988 31.9525 26.5858 31.9695 26.5686 31.9815C26.5515 31.9935 26.5311 32 26.5102 32C26.4893 32 26.4689 31.9935 26.4517 31.9815C26.4346 31.9695 26.4216 31.9525 26.4145 31.9329C26.4106 31.9233 26.4086 31.9131 26.4085 31.9028C26.3911 31.4376 26.3683 30.9718 26.3456 30.5067C26.288 29.3227 26.2258 28.1386 26.1588 26.9542C26.1053 25.9925 26.0531 25.0301 25.9862 24.069C25.9768 23.9399 26.1776 23.9412 26.1869 24.069C26.2191 24.5341 26.2472 24.9986 26.2746 25.4638C26.3442 26.6477 26.4096 27.8316 26.4707 29.0156C26.5209 29.978 26.5731 30.9404 26.6092 31.9028Z" fill="black"/>
<path d="M15.0951 22.5389C15.0638 22.8233 15.0321 23.1082 15 23.3935C14.9197 24.1169 14.839 24.8401 14.7577 25.5633C14.66 26.4373 14.5619 27.3114 14.4633 28.1854C14.3776 28.9444 14.2913 29.7038 14.2043 30.4636C14.1748 30.7172 14.146 30.9716 14.1153 31.2259C14.1059 31.3069 14.0309 31.8858 14.0309 31.9012C14.0307 31.9118 14.0323 31.9225 14.0356 31.9326H5.53464C5.53794 31.9229 5.53975 31.9128 5.53999 31.9025C5.5768 30.9401 5.62833 29.9777 5.67853 29.0153C5.74099 27.8313 5.80658 26.6474 5.87529 25.4635C5.90273 24.9984 5.93017 24.5339 5.96297 24.0688C5.97167 23.9403 5.77089 23.9403 5.76219 24.0688C5.69459 25.0299 5.64239 25.9923 5.58885 26.954C5.52326 28.1379 5.46102 29.3221 5.40212 30.5064C5.37937 30.9716 5.35728 31.4374 5.33921 31.9025C5.33859 31.9127 5.33972 31.9229 5.34256 31.9326H0.466309C0.469935 31.923 0.47175 31.9128 0.471663 31.9025C0.475678 31.6877 0.480363 31.4728 0.484379 31.258C0.496425 30.7152 0.508472 30.1722 0.520519 29.629C0.53725 28.9109 0.554874 28.193 0.573391 27.4753C0.592799 26.7351 0.614216 25.9947 0.63764 25.254C0.659056 24.5841 0.684934 23.9139 0.715274 23.2436C0.760115 22.2691 0.818341 21.29 0.988334 20.3276C1.06443 19.868 1.18043 19.4159 1.33501 18.9764C1.49363 18.5387 1.71716 18.1077 2.07656 17.8011C2.42725 17.502 2.88703 17.3902 3.33544 17.3394C3.56834 17.3126 3.80192 17.2999 4.03549 17.2839C4.29918 17.2665 4.56153 17.2403 4.82522 17.2196C5.70798 17.15 6.5923 17.1159 7.47818 17.1172C8.27728 17.1186 9.07638 17.1392 9.87548 17.1353C10.087 17.134 10.2982 17.1313 10.5093 17.1273C10.6893 17.5021 10.8684 17.8771 11.0467 18.2523C11.3847 18.9651 11.7206 19.6778 12.0459 20.3966C12.1724 20.677 12.2989 20.9521 12.4073 21.2325C12.4593 21.3903 12.5263 21.5427 12.6074 21.6876C12.6783 21.8014 12.8075 21.946 12.9594 21.9051C13.0078 21.886 13.0516 21.8568 13.0879 21.8195C13.1549 21.7626 13.2191 21.7017 13.2827 21.6414C13.5444 21.3952 13.8034 21.1469 14.0644 20.8999C14.0879 21.0761 14.1421 21.2469 14.2243 21.4045C14.3852 21.7295 14.5919 22.0297 14.8381 22.296C14.9154 22.3853 15.0015 22.4667 15.0951 22.5389Z" fill="#EFEFEF"/>
<path d="M5.96303 24.069C5.93024 24.5341 5.90279 24.9986 5.87536 25.4638C5.80508 26.6477 5.7395 27.8316 5.67859 29.0156C5.6284 29.978 5.57686 30.9404 5.54005 31.9028C5.53981 31.913 5.53801 31.9232 5.5347 31.9329C5.52741 31.9525 5.51431 31.9694 5.49714 31.9813C5.47997 31.9932 5.45957 31.9996 5.43866 31.9996C5.41775 31.9996 5.39735 31.9932 5.38018 31.9813C5.36301 31.9694 5.34991 31.9525 5.34262 31.9329C5.33979 31.9231 5.33866 31.9129 5.33928 31.9028C5.35735 31.4376 5.37943 30.9718 5.40219 30.5067C5.46041 29.3227 5.52265 28.1386 5.58891 26.9542C5.64245 25.9925 5.69465 25.0301 5.76225 24.069C5.77095 23.9405 5.97173 23.9405 5.96303 24.069Z" fill="black"/>
<path d="M18.3853 10.082C18.3702 10.0862 18.355 10.0903 18.3399 10.0942C18.0779 10.1626 17.7844 10.2023 17.5362 10.0887C17.4305 10.0418 17.3399 9.96644 17.2745 9.871C17.2092 9.77555 17.1717 9.66381 17.1663 9.54828C17.1647 9.32676 17.257 9.06307 17.5277 8.98389C17.7641 8.91422 18.0155 8.91422 18.2519 8.98389C18.4853 9.05979 18.6898 9.23246 18.7569 9.4505C18.7909 9.56 18.7858 9.6779 18.7424 9.78402C18.699 9.89014 18.62 9.97787 18.5191 10.0322C18.4761 10.053 18.4313 10.0696 18.3853 10.082Z" fill="#FFB7C3"/>
<path d="M13.5064 10.082C13.4913 10.0862 13.4761 10.0903 13.461 10.0942C13.199 10.1626 12.9055 10.2023 12.6573 10.0887C12.5515 10.0418 12.461 9.96644 12.3956 9.871C12.3303 9.77555 12.2928 9.66381 12.2874 9.54828C12.2858 9.32676 12.3781 9.06307 12.6488 8.98389C12.8851 8.91422 13.1366 8.91422 13.373 8.98389C13.6064 9.05979 13.8109 9.23246 13.878 9.4505C13.912 9.56 13.9069 9.6779 13.8635 9.78402C13.8201 9.89014 13.7411 9.97787 13.6402 10.0322C13.5972 10.053 13.5524 10.0696 13.5064 10.082Z" fill="#FFB7C3"/>
<path d="M31.5229 26.9716C31.4399 25.279 31.3462 23.5858 31.2117 21.8959C31.1535 21.1611 31.1046 20.4175 30.9346 19.6974C30.772 19.0094 30.4835 18.3027 29.924 17.8415C29.226 17.2653 28.277 17.2486 27.4163 17.1783C26.4867 17.1027 25.5558 17.0498 24.6241 17.0103C23.4784 16.9621 22.3319 16.9307 21.1855 16.926H21.1507C20.7926 16.7767 20.4341 16.6273 20.0752 16.4776C20.0049 16.4481 19.9353 16.4153 19.863 16.3892C19.8459 16.3802 19.8267 16.3758 19.8073 16.3764C19.788 16.377 19.7691 16.3825 19.7526 16.3926C19.679 16.4373 19.6107 16.4997 19.5418 16.5519C19.3985 16.6596 19.2551 16.7669 19.1114 16.8738C18.5653 16.6529 18.3471 15.9903 18.2387 15.4616C18.1282 14.8724 18.0895 14.2719 18.1236 13.6734C18.1283 13.5609 18.135 13.4478 18.1443 13.3354C18.4478 13.092 18.7119 12.8033 18.9274 12.4794C19.4728 11.6529 19.7024 10.6583 19.8811 9.69794C19.8991 9.60424 19.9159 9.50981 19.9326 9.41618C20.3214 9.42548 20.5999 9.05143 20.6547 8.68133C20.7083 8.32595 20.6233 7.85211 20.2666 7.67944C20.2279 7.66104 20.1879 7.64582 20.1468 7.63393C20.1802 7.34079 20.215 7.04788 20.2512 6.75519C20.3188 6.21242 20.4145 5.67232 20.4667 5.12754C20.5124 4.71406 20.512 4.29677 20.4653 3.88338C20.3743 3.20006 20.0993 2.50269 19.5565 2.05295C18.9816 1.5771 18.2233 1.48943 17.5025 1.49277C16.6445 1.49605 15.7852 1.54491 14.9279 1.57376C14.0806 1.60253 13.1965 1.68887 12.3666 1.47537C11.6491 1.29066 10.9471 0.815481 10.7323 0.0732011C10.7275 0.0563752 10.7185 0.0410768 10.706 0.0288196C10.6935 0.0165624 10.6781 0.00777127 10.6612 0.00331594C10.6443 -0.00113939 10.6265 -0.00110448 10.6096 0.00341722C10.5928 0.00793892 10.5773 0.0167907 10.5649 0.0290967C10.0284 0.575009 9.65298 1.25844 9.48006 2.00409C9.31944 2.70012 9.28531 3.55946 9.71832 4.16983C9.95925 4.50914 10.322 4.70718 10.7108 4.83039C10.8353 5.75598 10.9165 6.68579 10.9544 7.61981C10.7852 7.60593 10.616 7.64627 10.4712 7.73499C10.3077 7.84632 10.187 8.01019 10.1292 8.19946C10.0556 8.41536 10.0518 8.64894 10.1182 8.86716C10.1846 9.08539 10.318 9.27721 10.4993 9.41551C10.684 9.56181 10.9123 9.64194 11.1479 9.64306C11.2717 10.6718 11.5213 11.679 12.0975 12.5544C12.4737 13.126 12.9656 13.593 13.6014 13.8622L13.6114 13.8662C13.594 14.3507 13.6375 14.8359 13.6081 15.3211C13.582 15.7562 13.5037 16.2822 13.1296 16.5633C12.9314 16.7112 12.6992 16.744 12.4616 16.7755C12.3914 16.7226 12.3211 16.6703 12.2508 16.6175C12.1585 16.5486 12.0668 16.4794 11.9757 16.41C11.8988 16.3518 11.8332 16.3926 11.7529 16.4261C11.3533 16.5928 10.9536 16.7594 10.5536 16.926C9.70359 16.9428 8.85363 16.9294 8.00367 16.92C7.16776 16.9113 6.33319 16.922 5.49862 16.9722C4.9786 17.003 4.46059 17.0558 3.94124 17.0899C3.47945 17.1201 3.00427 17.1442 2.5639 17.3008C2.1246 17.4608 1.75191 17.764 1.50579 18.1615C1.25214 18.5544 1.0942 19.0081 0.973729 19.4579C0.71874 20.4049 0.625043 21.394 0.562132 22.3705C0.512607 23.1328 0.483829 23.8964 0.457058 24.66C0.431626 25.3849 0.409317 26.1101 0.390132 26.8358C0.369385 27.5819 0.350422 28.3283 0.333245 29.0751C0.318521 29.6875 0.304466 30.3001 0.291081 30.9131C0.284388 31.229 0.277919 31.5444 0.271672 31.8594C0.271003 31.8742 0.271003 31.8882 0.271003 31.9029C0.270886 31.9131 0.272238 31.9233 0.275019 31.9331C0.282232 31.9526 0.295275 31.9695 0.312388 31.9815C0.329501 31.9934 0.349861 31.9998 0.370723 31.9998C0.391585 31.9998 0.411946 31.9934 0.429059 31.9815C0.446172 31.9695 0.459214 31.9526 0.466428 31.9331C0.470054 31.9234 0.47187 31.9132 0.471782 31.9029C0.475798 31.6881 0.480482 31.4733 0.484498 31.2584C0.496545 30.7157 0.508591 30.1727 0.520638 29.6295C0.53737 28.9113 0.554994 28.1934 0.57351 27.4758C0.592919 26.7356 0.614335 25.9951 0.637759 25.2544C0.659176 24.5845 0.685054 23.9144 0.715394 23.244C0.760234 22.2696 0.81846 21.2904 0.988453 20.328C1.06455 19.8684 1.18055 19.4163 1.33513 18.9768C1.49375 18.5391 1.71728 18.1081 2.07667 17.8016C2.42737 17.5024 2.88715 17.3906 3.33556 17.3398C3.56846 17.313 3.80203 17.3004 4.03561 17.2843C4.2993 17.2669 4.56165 17.2407 4.82534 17.2201C5.7081 17.1504 6.59241 17.1163 7.4783 17.1177C8.2774 17.119 9.07649 17.1397 9.87559 17.1357C10.0871 17.1344 10.2983 17.1317 10.5094 17.1277C10.6894 17.5025 10.8686 17.8775 11.0468 18.2527C11.3848 18.9655 11.7208 19.6783 12.046 20.397C12.1725 20.6775 12.299 20.9525 12.4074 21.233C12.4594 21.3907 12.5265 21.5431 12.6075 21.688C12.6785 21.8018 12.8076 21.9464 12.9596 21.9056C13.008 21.8864 13.0518 21.8572 13.0881 21.8199C13.155 21.763 13.2192 21.7021 13.2828 21.6419C13.5445 21.3956 13.8035 21.1473 14.0645 20.9003C14.0881 21.0766 14.1422 21.2473 14.2245 21.405C14.3853 21.7299 14.592 22.0302 14.8382 22.2964C14.9155 22.3858 15.0016 22.4672 15.0952 22.5394C15.0639 22.8238 15.0323 23.1087 15.0001 23.394C14.9198 24.1174 14.8391 24.8406 14.7579 25.5638C14.6602 26.4378 14.562 27.3119 14.4634 28.1859C14.3777 28.9449 14.2914 29.7043 14.2044 30.4641C14.1749 30.7177 14.1462 30.9721 14.1154 31.2264C14.106 31.3074 14.031 31.8863 14.031 31.9017C14.0308 31.9123 14.0324 31.923 14.0357 31.9331C14.0592 32.0248 14.189 32.0188 14.2258 31.9331C14.2288 31.9263 14.2311 31.9191 14.2325 31.9117C14.2432 31.8608 14.3349 31.0731 14.3576 30.873C14.4413 30.1582 14.5232 29.4432 14.6033 28.728C14.705 27.8272 14.8063 26.9259 14.9071 26.0242C14.9955 25.2385 15.0834 24.4526 15.1708 23.6665C15.1996 23.4054 15.2286 23.1444 15.2578 22.8834C15.2672 22.8011 15.2792 22.7181 15.2886 22.6351C15.6687 22.592 16.0519 22.5826 16.4337 22.607C16.4649 22.8868 16.4962 23.1665 16.5274 23.4463C16.6111 24.1992 16.6952 24.9523 16.7797 25.7056C16.8808 26.6091 16.9823 27.5126 17.0842 28.4161C17.1692 29.1684 17.2549 29.9205 17.3412 30.6723C17.368 30.9032 17.395 31.1339 17.4222 31.3643C17.4296 31.4225 17.4704 31.8368 17.4925 31.9332C17.4936 31.9394 17.4954 31.9454 17.4978 31.9513C17.5077 31.9674 17.5219 31.9804 17.5388 31.9888C17.5558 31.9972 17.5747 32.0007 17.5935 31.9988C17.6123 31.9969 17.6302 31.9898 17.6451 31.9782C17.6601 31.9665 17.6714 31.951 17.6779 31.9332C17.6827 31.922 17.6852 31.9099 17.6852 31.8977C17.6852 31.8823 17.6303 31.4212 17.6223 31.3583C17.5955 31.1334 17.5694 30.9079 17.5433 30.683C17.4586 29.9535 17.3754 29.2242 17.2937 28.4952C17.1953 27.6207 17.0972 26.7464 16.9992 25.8723C16.9145 25.1183 16.8301 24.3641 16.7462 23.6096C16.7181 23.3606 16.6903 23.1114 16.6626 22.8619C16.6512 22.7576 16.6505 22.6425 16.6291 22.5387C16.8433 22.3868 17.016 22.1533 17.1665 21.9478C17.3687 21.6707 17.5741 21.3488 17.6397 21.0061C17.6457 20.9747 17.6498 20.9426 17.6531 20.9104C17.6605 20.9178 17.6685 20.9245 17.6759 20.9318C17.9047 21.1474 18.1303 21.3655 18.3578 21.5817C18.4649 21.6828 18.5794 21.8206 18.7105 21.8915C18.8457 21.9645 18.9903 21.838 19.0646 21.7363C19.1737 21.5864 19.2319 21.4043 19.2975 21.233C19.525 20.6434 19.8141 20.0524 20.0852 19.4708C20.3931 18.8103 20.7043 18.152 21.0188 17.4959C21.0777 17.3727 21.1366 17.25 21.1955 17.1278C22.1137 17.1291 23.0326 17.1532 23.9509 17.1853C24.841 17.2168 25.7311 17.2596 26.6199 17.3205C27.085 17.352 27.5495 17.3881 28.014 17.4316C28.4724 17.4744 28.9489 17.5226 29.3699 17.7234C30.0197 18.0339 30.4052 18.6564 30.6214 19.3209C30.849 20.023 30.9165 20.7619 30.9781 21.4934C31.116 23.1264 31.2104 24.7627 31.2933 26.3991C31.3777 28.0555 31.4495 29.7126 31.5088 31.3703C31.5155 31.5484 31.522 31.7259 31.5283 31.9031C31.5284 31.9134 31.5304 31.9236 31.5343 31.9332C31.5414 31.9528 31.5545 31.9698 31.5716 31.9818C31.5887 31.9937 31.6091 32.0002 31.63 32.0002C31.6509 32.0002 31.6713 31.9937 31.6884 31.9818C31.7055 31.9698 31.7185 31.9528 31.7257 31.9332C31.7285 31.9234 31.7297 31.9132 31.729 31.9031C31.6701 30.2591 31.6014 28.6153 31.5229 26.9716ZM14.1656 31.5199C14.1656 31.5201 14.1656 31.5203 14.1658 31.5204C14.1659 31.5205 14.1661 31.5206 14.1662 31.5206H14.1642C14.1647 31.5205 14.1652 31.5203 14.1656 31.5199ZM17.5574 31.5199C17.5574 31.5201 17.5575 31.5203 17.5576 31.5204C17.5577 31.5205 17.5579 31.5206 17.5581 31.5206H17.5561C17.5566 31.5205 17.557 31.5203 17.5574 31.5199ZM10.8982 4.72799C10.8938 4.71109 10.885 4.69566 10.8726 4.6833C10.8603 4.67094 10.8449 4.66209 10.828 4.65765C10.4886 4.55726 10.156 4.40139 9.93047 4.11963C9.71899 3.85594 9.61994 3.51395 9.58848 3.18199C9.52155 2.48462 9.69088 1.75713 10.0094 1.13673C10.1664 0.829512 10.3633 0.544391 10.5951 0.288771C10.8159 0.848274 11.2991 1.27058 11.8466 1.50884C12.5955 1.83477 13.4314 1.82406 14.2318 1.79796C15.1206 1.76918 16.0094 1.73929 16.8982 1.70828C17.6223 1.68418 18.4161 1.63466 19.0806 1.97799C19.7907 2.34408 20.1622 3.11902 20.2646 3.88338C20.3562 4.61221 20.2492 5.34037 20.1428 6.06183C20.0805 6.48206 20.0317 6.90443 19.9815 7.32607C19.9754 7.38028 19.9687 7.43509 19.9627 7.48937C19.2337 6.78774 18.6417 5.95638 18.2173 5.03786C18.2087 5.02255 18.1961 5.00983 18.181 5.001C18.1658 4.99218 18.1485 4.98757 18.1309 4.98767C16.9872 4.9629 15.8439 4.93792 14.701 4.91271L13.8517 4.89464L13.4187 4.8846L13.2192 4.88058C13.1854 4.87771 13.1514 4.88418 13.1209 4.89928C13.0905 4.91439 13.0648 4.93755 13.0466 4.96625C12.6905 5.36245 12.3487 5.77048 12.0213 6.19033C11.7167 6.58109 11.4247 6.98109 11.1452 7.39032C11.101 6.49953 11.0187 5.61209 10.8982 4.72799ZM12.4061 12.648C12.1556 12.3079 11.9494 11.9373 11.7924 11.5451C11.5973 11.0302 11.4619 10.4946 11.3888 9.94891C11.3681 9.81238 11.3513 9.67585 11.3359 9.53865C11.3306 9.48913 11.2944 9.43224 11.2355 9.43826C10.753 9.48846 10.2691 9.08088 10.2705 8.58696C10.2705 8.38083 10.3233 8.15596 10.4659 8.00069C10.5354 7.92819 10.6218 7.87409 10.7173 7.84325C10.8129 7.81241 10.9146 7.80579 11.0133 7.824C11.0381 7.82965 11.064 7.82611 11.0863 7.81404C11.1086 7.80197 11.1257 7.7822 11.1345 7.75841C11.1378 7.7544 11.1418 7.75172 11.1452 7.74704C11.769 6.80951 12.4602 5.91861 13.2132 5.08136C14.4861 5.10871 15.7591 5.13638 17.032 5.16435C17.3774 5.17238 17.7225 5.17997 18.0674 5.18711C18.491 6.08747 19.0731 6.90427 19.786 7.59846H19.7693C19.6408 7.60582 19.6401 7.8066 19.7693 7.79924C19.911 7.7827 20.0546 7.80466 20.1849 7.86282C20.3375 7.94447 20.4105 8.09639 20.4439 8.26036C20.4967 8.48608 20.4678 8.72321 20.3623 8.92962C20.2639 9.10631 20.0906 9.25422 19.8771 9.21138C19.8514 9.20451 19.8241 9.20794 19.801 9.22095C19.7778 9.23396 19.7607 9.25551 19.7532 9.28099C19.5893 10.2119 19.4099 11.171 18.9675 12.0156C18.7572 12.4289 18.4677 12.7968 18.1156 13.0985C17.7068 13.444 17.234 13.7055 16.7242 13.8681C16.2155 14.0267 15.6975 14.0334 15.1708 13.998C14.7513 13.9749 14.3363 13.8999 13.9353 13.7744C13.3194 13.5699 12.7841 13.1756 12.4061 12.648ZM13.1376 16.7968C13.3451 16.6734 13.5093 16.4887 13.6074 16.2681C13.6174 16.2453 13.6275 16.2233 13.6369 16.1998C13.6409 16.1891 13.6449 16.1791 13.6489 16.1683C13.6578 16.1469 13.6659 16.1255 13.673 16.1041C13.6797 16.086 13.6857 16.0673 13.6917 16.0486C13.6984 16.0278 13.7044 16.0071 13.7105 15.9863C13.7152 15.9696 13.7198 15.9529 13.7239 15.9354C13.7339 15.898 13.7426 15.8592 13.7506 15.821C13.7553 15.7989 13.7593 15.7769 13.7633 15.7548C13.7694 15.7226 13.7747 15.6898 13.7794 15.6577C13.7821 15.641 13.7841 15.6249 13.7861 15.6089C13.7881 15.5928 13.7901 15.5754 13.7921 15.5593C13.7929 15.556 13.7933 15.5526 13.7935 15.5492C13.7995 15.4944 13.8048 15.4389 13.8089 15.3833C13.8109 15.3552 13.8122 15.3278 13.8135 15.2996C13.8149 15.2714 13.8162 15.2441 13.8169 15.2159C13.8182 15.1799 13.8196 15.1437 13.8196 15.1076C13.8222 14.963 13.8202 14.8198 13.8182 14.6799C13.8142 14.4336 13.8055 14.1874 13.8102 13.9417C14.1306 14.0506 14.4618 14.1249 14.798 14.1633C15.312 14.2268 15.8535 14.2563 16.3648 14.1639C16.9291 14.0569 17.4636 13.8291 17.9315 13.496C17.9154 13.7229 17.9114 13.9511 17.9148 14.1787V14.1914C17.9147 14.197 17.9149 14.2026 17.9154 14.2082C17.9154 14.2195 17.9154 14.2303 17.9161 14.2416C17.9168 14.253 17.9161 14.2651 17.9168 14.2764C17.9175 14.326 17.9195 14.3748 17.9215 14.4243C17.9469 15.0929 18.0279 15.8157 18.3552 16.4114C18.4857 16.6617 18.6858 16.869 18.9314 17.0084C18.311 17.4695 17.6852 17.9232 17.0481 18.3609C16.8118 18.5236 16.5736 18.6842 16.33 18.8375C16.1757 18.9378 16.0162 19.0298 15.8521 19.1131C15.4907 18.9385 15.1554 18.7003 14.8248 18.4761C14.3429 18.1495 13.8698 17.8101 13.3993 17.4675C13.161 17.2941 12.9239 17.1197 12.6878 16.9441C12.8453 16.9222 12.9976 16.8723 13.1376 16.7968ZM14.0157 20.6685C13.7828 20.886 13.5532 21.1069 13.323 21.327C13.1905 21.4535 13.0599 21.5847 12.9181 21.7005C12.9174 21.7005 12.9174 21.7012 12.9167 21.7018C12.9152 21.7025 12.9139 21.7034 12.9127 21.7045C12.912 21.7052 12.912 21.7059 12.9114 21.7059H12.9107C12.9097 21.7064 12.9089 21.7071 12.908 21.7078C12.9075 21.7079 12.907 21.7081 12.9067 21.7085C12.9076 21.7094 12.9088 21.7101 12.91 21.7105C12.9147 21.7152 12.9261 21.7259 12.9053 21.7099L12.9047 21.7105C12.8946 21.7306 12.8879 21.7078 12.8966 21.7045C12.8886 21.7012 12.8779 21.6972 12.8732 21.6945C12.8503 21.6779 12.8302 21.6578 12.8137 21.6349C12.7113 21.5031 12.6597 21.3331 12.6008 21.1791C12.3653 20.5694 12.0768 19.9778 11.8011 19.3862C11.4919 18.7223 11.1789 18.0599 10.8621 17.3991L10.7075 17.0779C11.0575 16.932 11.4073 16.7861 11.7569 16.6402C11.7984 16.6228 11.8399 16.6061 11.8807 16.5887C12.0433 16.7118 12.2064 16.8345 12.3699 16.9568C12.3748 16.9609 12.3799 16.9647 12.3853 16.9681C12.5694 17.1052 12.7541 17.242 12.9395 17.3784C13.6047 17.8676 14.2733 18.3542 14.9627 18.8093C15.1889 18.9657 15.423 19.1104 15.664 19.243C15.0871 19.6853 14.5457 20.1719 14.0157 20.6685ZM17.295 21.3619C17.1453 21.6516 16.9576 21.9201 16.7369 22.1603C16.6589 22.2526 16.5694 22.3345 16.4705 22.4039C16.4678 22.4059 16.4658 22.4079 16.4631 22.4099C16.4559 22.4078 16.4485 22.4065 16.4411 22.4059C16.055 22.381 15.6676 22.3906 15.2832 22.4347C15.275 22.4223 15.2643 22.4118 15.2518 22.4039C15.059 22.2861 14.8763 22.0465 14.7351 21.8538C14.5484 21.6001 14.3637 21.315 14.288 21.0051C14.2508 20.8956 14.2582 20.7758 14.3088 20.6718C14.4721 20.5199 14.6354 20.3693 14.802 20.2214C15.142 19.9189 15.4894 19.6244 15.8528 19.3507C16.4015 19.7727 16.9278 20.2231 17.4296 20.6999C17.5213 20.8974 17.3874 21.1812 17.295 21.3619ZM18.7862 21.7092C18.7875 21.7052 18.7902 21.7071 18.7942 21.7105C18.7895 21.7112 18.7862 21.7112 18.7862 21.7092ZM20.4774 18.1668C20.1387 18.8816 19.8014 19.597 19.4755 20.3177C19.347 20.6022 19.2165 20.8879 19.1034 21.1791C19.0567 21.3205 18.9964 21.457 18.9234 21.5867C18.8974 21.6339 18.8604 21.674 18.8156 21.7038C18.8149 21.7038 18.8062 21.7065 18.7982 21.7092C18.7975 21.7085 18.7969 21.7085 18.7962 21.7078C18.7955 21.7071 18.7949 21.7065 18.7942 21.7065C18.7935 21.7065 18.7929 21.7059 18.7915 21.7045C18.7801 21.6958 18.7694 21.6864 18.7587 21.6777C18.7299 21.653 18.7018 21.6275 18.6737 21.6021C18.5981 21.5325 18.5231 21.4616 18.4489 21.3906C18.1644 21.1196 17.8791 20.8494 17.5929 20.5802C17.5882 20.5728 17.5848 20.5654 17.5801 20.5581C17.5671 20.5385 17.5477 20.5241 17.5253 20.5172C17.3305 20.3372 17.1358 20.1585 16.9363 19.9831C16.6452 19.7275 16.3474 19.4785 16.0395 19.2423C16.2403 19.1372 16.4324 19.0121 16.6218 18.8889C16.9571 18.6707 17.2857 18.4425 17.6129 18.2116C18.1336 17.8435 18.649 17.4667 19.1603 17.0859C19.1752 17.0804 19.1883 17.0706 19.1978 17.0578C19.2868 16.9916 19.3764 16.9253 19.4655 16.8584C19.5853 16.7687 19.7044 16.679 19.8242 16.5887L20.9405 17.0545C20.9593 17.0618 20.9787 17.0699 20.9974 17.0779C20.8234 17.4399 20.6501 17.8029 20.4774 18.1668Z" fill="black"/>
</g>
<defs>
<clipPath id="clip0_21_1711">
<rect width="32" height="32" fill="white"/>
</clipPath>
</defs>
</svg>
