<svg width="32" height="32" viewBox="0 0 32 32" fill="none" xmlns="http://www.w3.org/2000/svg">
<g clip-path="url(#clip0_21_1738)">
<path d="M14.0693 14.8657C12.9018 14.8197 10.3843 15.1297 9.2168 15.0837C9.2853 13.7608 9.28256 9.33278 9.25166 8.88586C9.17295 7.74554 9.3425 5.56183 9.67139 4.46734C10.0682 3.14645 11.502 0.408952 14.7902 0.415049C17.6295 0.420324 19.8064 1.42048 20.7644 4.06077C21.2885 5.50532 21.4325 7.0407 21.3844 8.57656C21.3223 10.562 21.1765 15.1949 21.1555 15.2219C21.1281 15.2572 18.3194 14.8412 17.2576 14.9383L14.0693 14.8657Z" fill="#332301"/>
<path d="M18.045 16.5809C17.4305 16.1815 17.1668 15.4472 17.0668 14.7519C17.0261 14.4574 17.0046 14.1606 17.0024 13.8634C17.001 13.7743 17.001 13.6852 16.9996 13.5962C16.765 13.6895 16.5218 13.7595 16.2735 13.8051C15.7501 13.8997 15.1959 13.8695 14.6705 13.8044C14.5218 13.7859 14.3746 13.7627 14.2286 13.7332C14.2136 14.0004 14.2081 14.2682 14.1916 14.5354C14.1581 15.0773 14.1046 15.6767 13.8149 16.1507C13.6873 16.3675 13.4932 16.5374 13.2614 16.635C13.027 16.7202 12.7742 16.7412 12.5291 16.696C12.6613 17.1159 12.9524 17.4715 13.2826 17.7571C14.1067 18.4709 15.2569 18.8374 16.3413 18.7744C16.9377 18.742 17.5165 18.5604 18.0245 18.2463C18.5586 17.8997 19.0012 17.4292 19.3144 16.8748C18.8729 16.8974 18.4208 16.8248 18.045 16.5809Z" fill="#FFE7D7"/>
<path d="M20.4484 7.76261C20.4142 7.59477 20.3395 7.43995 20.184 7.35638C20.0506 7.29624 19.9032 7.27374 19.7579 7.2913C19.746 7.29233 19.734 7.29098 19.7226 7.28733C19.7112 7.28369 19.7006 7.27782 19.6915 7.27006C19.1359 7.01112 18.5844 6.74258 18.0487 6.44459C17.2842 6.01849 16.4957 5.52663 15.9374 4.83885C15.6737 4.51414 15.4634 4.14901 15.2202 3.80923C15.0154 3.52357 14.7742 3.2201 14.4605 3.04541C14.4612 3.44068 14.3591 3.84691 14.2447 4.2182C14.1235 4.6121 13.9686 5.01627 13.7316 5.35674C13.5165 5.66638 13.2048 5.90751 12.9068 6.13289C12.5469 6.40458 12.1701 6.65307 11.7786 6.87685C11.4847 7.04537 11.1764 7.21731 10.8503 7.31596C10.8298 7.32265 10.8077 7.32241 10.7873 7.31527C10.6874 7.29797 10.5848 7.30547 10.4886 7.33713C10.3923 7.36879 10.3053 7.42362 10.2352 7.49681C10.0976 7.66582 10.0265 7.87919 10.0351 8.09691C10.0338 8.60247 10.529 9.02034 11.023 8.96828C11.0832 8.96211 11.1202 9.02034 11.1257 9.07104C11.1415 9.21147 11.1595 9.35145 11.1798 9.49097C11.2546 10.0496 11.3932 10.5978 11.5929 11.1248C11.7536 11.5262 11.9647 11.9056 12.2211 12.2537C12.6083 12.7937 13.1565 13.1973 13.7871 13.4067C14.1972 13.5354 14.6218 13.6123 15.051 13.6355C15.5901 13.6718 16.121 13.6649 16.641 13.5033C17.1628 13.3363 17.6467 13.0684 18.0652 12.7148C18.4255 12.4061 18.7218 12.0298 18.9372 11.6071C19.3907 10.7419 19.5736 9.76019 19.7415 8.80798C19.7491 8.78184 19.7666 8.7597 19.7902 8.74627C19.8139 8.73284 19.8419 8.72917 19.8682 8.73605C20.0867 8.78058 20.2648 8.6285 20.3649 8.44833C20.4728 8.2368 20.5024 7.99388 20.4484 7.76261Z" fill="#FFE7D7"/>
<path d="M17.0938 13.9902C16.5779 14.4129 15.8586 14.739 15.2839 14.9548C14.8709 15.092 14.4482 15.1978 14.0193 15.2713C14.1207 14.7095 14.12 14.0903 14.1474 13.6505C14.656 13.7562 15.1748 13.8044 15.6942 13.7943C16.1723 13.7866 16.6436 13.6802 17.0787 13.4819C17.0938 13.5321 17.0869 13.7231 17.0938 13.9902Z" fill="#F7D4BC"/>
<path d="M15.0342 8.89419C15.3096 9.07518 15.6244 9.18765 15.9521 9.22219C16.0256 9.23137 16.0602 9.14951 16.0513 9.09203C15.9325 8.32744 15.8138 7.56291 15.695 6.79845C15.6745 6.66829 15.4768 6.72343 15.4969 6.85325C15.6076 7.56793 15.7187 8.28266 15.83 8.99743C15.5823 8.95327 15.3467 8.85781 15.1381 8.71718C15.0299 8.64052 14.9267 8.81863 15.0342 8.89419Z" fill="black"/>
<path d="M19.9991 8.33552C20.0252 8.32802 20.0473 8.31059 20.0608 8.28696C20.0742 8.26334 20.0778 8.2354 20.0709 8.20913C20.0623 8.18768 20.0554 8.16557 20.0503 8.14302C20.0492 8.13754 20.0482 8.13206 20.0471 8.12658C20.0472 8.12802 20.0472 8.12946 20.0471 8.1309C20.0471 8.12953 20.0471 8.12802 20.0471 8.12658V8.12514C20.0451 8.11494 20.0466 8.1198 20.0471 8.12514C20.0471 8.115 20.0449 8.10418 20.0446 8.09432C20.044 8.07195 20.0449 8.04957 20.0472 8.02732C20.0481 8.02252 20.0489 8.01773 20.0498 8.01293C20.0522 8.00101 20.0552 7.98916 20.0585 7.97745C20.0615 7.9669 20.0649 7.95646 20.0687 7.94614C20.0696 7.94354 20.0714 7.93977 20.073 7.93614C20.0713 7.93963 20.0698 7.94128 20.0735 7.93354L20.074 7.93265C20.0746 7.93151 20.075 7.93032 20.0752 7.92908C20.0751 7.93002 20.0748 7.93094 20.0745 7.93182C20.0842 7.91155 20.0951 7.89192 20.1073 7.87305C20.1106 7.86798 20.1141 7.86311 20.1176 7.85811C20.1244 7.85017 20.1313 7.84195 20.1386 7.83427C20.147 7.82541 20.1557 7.81701 20.1649 7.80906C20.1685 7.80646 20.1719 7.8036 20.1751 7.8005C20.1762 7.79968 20.1773 7.79879 20.1785 7.79804C20.2016 7.78384 20.2183 7.7613 20.2251 7.7351C20.232 7.70891 20.2285 7.68108 20.2153 7.6574C20.2014 7.63411 20.1788 7.61722 20.1525 7.61033C20.1263 7.60345 20.0983 7.60711 20.0747 7.62054C19.9755 7.69101 19.902 7.79201 19.8655 7.90814C19.829 8.02427 19.8315 8.14915 19.8726 8.26373C19.8804 8.28965 19.8979 8.31157 19.9215 8.32494C19.945 8.3383 19.9728 8.34209 19.9991 8.33552Z" fill="black"/>
<path d="M10.642 7.6875C10.6234 7.70712 10.613 7.73314 10.613 7.76018C10.613 7.78722 10.6234 7.81324 10.642 7.83286L10.6454 7.83711C10.6478 7.84047 10.6503 7.84396 10.6527 7.84718C10.6596 7.85684 10.6657 7.8667 10.6717 7.87684C10.6786 7.88815 10.6849 7.89979 10.6908 7.91164C10.6934 7.91685 10.6957 7.92233 10.6984 7.92754V7.92815C10.7068 7.94982 10.7141 7.97191 10.7202 7.99433C10.7231 8.0057 10.7257 8.01712 10.7279 8.02858C10.729 8.03433 10.7298 8.04023 10.731 8.04598V8.04701V8.04927C10.7334 8.07271 10.7344 8.09627 10.7342 8.11983C10.7342 8.13161 10.7333 8.14339 10.7324 8.15511C10.732 8.16031 10.7313 8.16552 10.7309 8.17073V8.17155C10.7267 8.19618 10.721 8.22053 10.7137 8.24444C10.7102 8.25567 10.7058 8.26656 10.7021 8.27773V8.27814C10.6989 8.28458 10.6961 8.29109 10.6928 8.29753C10.6791 8.32106 10.6753 8.3491 10.6822 8.37547C10.6891 8.40184 10.7062 8.42438 10.7297 8.43813C10.7533 8.45188 10.7813 8.45573 10.8077 8.44881C10.834 8.44189 10.8566 8.42478 10.8703 8.40124C10.9266 8.28681 10.9486 8.1586 10.9338 8.03196C10.919 7.90533 10.868 7.78566 10.7868 7.68729C10.7675 7.6683 10.7415 7.65768 10.7144 7.65771C10.6873 7.65775 10.6613 7.66845 10.642 7.6875ZM10.7316 8.17073C10.7323 8.16388 10.7331 8.16237 10.7316 8.17073V8.17073Z" fill="black"/>
<path d="M28.0076 26.9136C27.998 27.0273 27.9829 27.1417 27.9623 27.2554C27.8836 27.6918 27.739 28.1371 27.478 28.5001C27.2675 28.7814 27.0081 29.0225 26.7121 29.2119C26.3193 29.4687 25.8912 29.6671 25.4414 29.801C25.4096 29.8107 25.3812 29.8294 25.3597 29.8548C25.3382 29.8802 25.3245 29.9112 25.3201 29.9442C25.2929 30.0755 25.2802 30.2095 25.2825 30.3436C25.2763 30.6005 25.2866 30.8587 25.303 31.1156H6.83155C6.84388 30.9389 6.85074 30.7615 6.85348 30.5847C6.85759 30.4318 6.85348 30.2789 6.84114 30.1264C6.83224 30.0278 6.82881 29.851 6.71989 29.8086C6.6096 29.7647 6.49109 29.738 6.37874 29.6955C6.122 29.5997 5.87381 29.4824 5.63684 29.3448C5.336 29.1747 5.06274 28.9599 4.82644 28.7077C4.59044 28.4401 4.41371 28.1257 4.30786 27.7849C7.38712 27.7212 10.4666 27.6578 13.5463 27.5945C16.6297 27.5308 19.7165 27.5054 22.7971 27.3616C24.5303 27.2814 26.2621 27.1506 27.9815 26.9197C27.9904 26.9188 27.9992 26.9167 28.0076 26.9136Z" fill="#EFEFEF"/>
<path d="M31.7848 31.1155H25.5078C25.4982 30.9634 25.4918 30.8111 25.4886 30.6586C25.4852 30.5161 25.4845 30.3729 25.4913 30.2298C25.4948 30.1743 25.4982 30.1167 25.5064 30.0626C25.5092 30.0411 25.5133 30.0199 25.5187 29.9989L25.5208 29.9907C25.7803 29.9144 26.0327 29.8156 26.275 29.6954C26.784 29.4495 27.2663 29.1159 27.6115 28.6631C27.8196 28.3764 27.9735 28.0542 28.0657 27.7122C28.0931 27.6184 28.1171 27.5238 28.1377 27.4279C29.2844 27.2183 30.4394 27.0639 31.6026 26.9648C31.6665 28.2013 31.7218 29.4378 31.7684 30.6743C31.7739 30.8216 31.7793 30.9687 31.7848 31.1155Z" fill="#FFE7D7"/>
<path d="M6.64596 30.6587C6.64253 30.8115 6.63614 30.9638 6.62677 31.1156H0.28466C0.320967 29.8079 0.27781 28.5015 0.242188 27.1944C1.41292 27.1348 2.58845 27.1328 3.75988 27.1835C3.82495 27.1862 3.89003 27.1896 3.95511 27.1931C3.96607 27.265 3.9784 27.3356 3.99279 27.4068C4.06374 27.7854 4.20029 28.1487 4.39628 28.4803C4.7066 28.9769 5.19093 29.3462 5.70334 29.6161C5.99297 29.7731 6.29836 29.8992 6.61444 29.9922C6.61444 29.9928 6.61513 29.9928 6.61513 29.9935C6.62108 30.0163 6.62565 30.0394 6.62883 30.0627C6.63705 30.1175 6.64047 30.1744 6.64322 30.2299C6.65075 30.373 6.64938 30.5162 6.64596 30.6587Z" fill="#FFE7D7"/>
<path d="M31.9903 31.1157C31.9198 29.1797 31.8291 27.2445 31.7184 25.3099C31.6581 24.2872 31.5916 23.2644 31.5129 22.243C31.4457 21.3689 31.4026 20.4804 31.2203 19.6207C31.058 18.8534 30.7566 18.056 30.1277 17.5498C29.4118 16.9737 28.437 16.9572 27.5615 16.8908C25.9017 16.764 24.2363 16.7147 22.5731 16.6832C21.566 16.664 20.5536 16.6311 19.5465 16.6551H19.5226C19.5148 16.6541 19.507 16.6541 19.4993 16.6551C19.0691 16.7017 18.6176 16.6722 18.234 16.4551C17.938 16.2794 17.7017 16.0188 17.5558 15.707C17.4507 15.4925 17.3723 15.2659 17.3222 15.0323C17.9257 14.9877 18.545 15.0555 19.1451 15.1117C19.7356 15.1672 20.3241 15.2405 20.9146 15.3042C21.0071 15.3138 21.2112 15.37 21.2489 15.2432C21.2648 15.1549 21.2706 15.065 21.266 14.9754C21.2879 14.4938 21.3037 14.0122 21.3201 13.5306C21.3448 12.8148 21.3685 12.0987 21.3914 11.3824C21.4142 10.6768 21.4366 9.97117 21.4585 9.26558C21.4866 8.3805 21.5099 7.49749 21.4229 6.61447C21.3201 5.57731 21.0989 4.53331 20.6748 3.57768C20.3733 2.88207 19.9254 2.25962 19.3616 1.75273C18.8161 1.28017 18.181 0.922397 17.4942 0.700778C16.741 0.462054 15.9576 0.332407 15.1678 0.315784C14.3416 0.286327 13.5243 0.376753 12.7571 0.698722C12.1177 0.9709 11.5405 1.37067 11.0609 1.87357C10.6442 2.31125 10.2921 2.8063 10.0156 3.34367C9.78105 3.78786 9.60228 4.25931 9.48329 4.74732C9.29148 5.55772 9.20722 6.39827 9.15652 7.22717C9.13255 7.62997 9.11885 8.03278 9.12501 8.43627C9.12775 8.63835 9.14351 8.83976 9.14899 9.04184C9.16132 9.50562 9.16132 9.96939 9.16269 10.4325C9.16474 11.1221 9.16315 11.8115 9.15789 12.5006C9.1531 13.1439 9.14693 13.7864 9.13049 14.429C9.12501 14.6462 9.11885 14.8633 9.10789 15.0798C9.10819 15.107 9.11911 15.1329 9.13832 15.1521C9.15752 15.1713 9.18348 15.1823 9.21064 15.1826C9.81759 15.2058 10.428 15.1572 11.0329 15.1161C11.7309 15.0688 12.4276 15.0113 13.1263 14.9784C13.4004 14.9654 13.6751 14.9565 13.9498 14.9627C13.9415 15.0332 13.9319 15.1038 13.9203 15.1743C13.8491 15.6176 13.7127 16.1539 13.2928 16.3937C13.0263 16.5458 12.7057 16.5321 12.416 16.4677C12.4089 16.4664 12.4018 16.4657 12.3947 16.4656C12.393 16.4649 12.3911 16.4645 12.3892 16.4643C10.7835 16.3882 9.17296 16.5047 7.57134 16.6061C6.75682 16.6574 5.94231 16.7102 5.12711 16.7431C4.37356 16.7732 3.60358 16.726 2.85551 16.8314C2.08827 16.939 1.43474 17.2863 1.02508 17.9604C0.626387 18.6153 0.446906 19.4031 0.320859 20.1512C0.1936 20.9563 0.111722 21.768 0.0756136 22.5824C0.0276607 23.4544 -0.00316613 24.3272 0.000259072 25.2006C0.00710949 27.1728 0.132472 29.1437 0.0790388 31.1159C0.0756136 31.2742 0.0701333 31.4331 0.0632829 31.5914C0.0578026 31.7236 0.263315 31.7229 0.268795 31.5914C0.275646 31.4331 0.281126 31.2742 0.284551 31.1159C0.320858 29.8082 0.277701 28.5018 0.242079 27.1948C1.41281 27.1352 2.58835 27.1331 3.75977 27.1838C3.82485 27.1865 3.88992 27.19 3.955 27.1934C3.96596 27.2653 3.9783 27.3359 3.99268 27.4071C4.06363 27.7857 4.20018 28.149 4.39617 28.4806C4.70649 28.9772 5.19082 29.3465 5.70323 29.6164C5.99286 29.7734 6.29825 29.8995 6.61433 29.9925C6.61433 29.9932 6.61502 29.9932 6.61502 29.9938C6.62097 30.0166 6.62554 30.0397 6.62872 30.063C6.63694 30.1178 6.64037 30.1747 6.64311 30.2302C6.65064 30.3734 6.64927 30.5165 6.64585 30.659C6.64242 30.8118 6.63603 30.9641 6.62667 31.1159C6.62461 31.1488 6.62255 31.1817 6.61981 31.2146C6.61022 31.3468 6.81574 31.3461 6.82533 31.2146C6.82807 31.1817 6.83012 31.1488 6.83149 31.1159C6.84382 30.9392 6.85067 30.7618 6.85341 30.585C6.85753 30.4322 6.85341 30.2792 6.84108 30.1267C6.83218 30.0281 6.82875 29.8513 6.71983 29.8089C6.60954 29.765 6.49103 29.7383 6.37868 29.6958C6.12193 29.6001 5.87375 29.4827 5.63678 29.3451C5.33594 29.175 5.06268 28.9602 4.82638 28.708C4.59037 28.4404 4.41365 28.126 4.3078 27.7853C7.38706 27.7216 10.4666 27.6581 13.5463 27.5948C16.6296 27.5311 19.7164 27.5058 22.7971 27.3619C24.5302 27.2818 26.262 27.1509 27.9815 26.9201C27.9904 26.9191 27.9991 26.9171 28.0075 26.9139C27.9979 27.0276 27.9828 27.142 27.9623 27.2557C27.8835 27.6921 27.739 28.1374 27.478 28.5004C27.2675 28.7817 27.008 29.0228 26.7121 29.2122C26.3192 29.469 25.8912 29.6674 25.4413 29.8013C25.4095 29.8111 25.3812 29.8297 25.3597 29.8551C25.3382 29.8805 25.3244 29.9115 25.3201 29.9445C25.2928 30.0758 25.2802 30.2098 25.2824 30.3439C25.2762 30.6008 25.2865 30.859 25.303 31.1159C25.3036 31.131 25.305 31.1454 25.3057 31.1605C25.3071 31.179 25.3077 31.1968 25.3091 31.2146C25.3187 31.3461 25.5249 31.3468 25.5146 31.2146C25.5119 31.1817 25.5098 31.1488 25.5078 31.1159C25.4982 30.9639 25.4918 30.8115 25.4886 30.659C25.4852 30.5165 25.4845 30.3734 25.4913 30.2302C25.4948 30.1747 25.4982 30.1171 25.5064 30.063C25.5092 30.0416 25.5133 30.0203 25.5187 29.9993L25.5208 29.9911C25.7803 29.9148 26.0327 29.816 26.275 29.6958C26.784 29.4499 27.2663 29.1163 27.6115 28.6635C27.8196 28.3768 27.9735 28.0546 28.0657 27.7126C28.0931 27.6188 28.1171 27.5243 28.1377 27.4284C29.2844 27.2187 30.4394 27.0644 31.6026 26.9653C31.6665 28.2018 31.7218 29.4383 31.7684 30.6748C31.7739 30.8221 31.7793 30.9691 31.7848 31.1159C31.7882 31.2016 31.7917 31.2865 31.7944 31.3721C31.7992 31.5044 32.0047 31.505 31.9999 31.3721C31.9972 31.2862 31.9938 31.2013 31.9903 31.1157ZM16.6413 13.5032C16.1213 13.6649 15.5904 13.6718 15.0513 13.6355C14.6221 13.6123 14.1975 13.5354 13.7874 13.4067C13.1568 13.1973 12.6086 12.7937 12.2214 12.2537C11.965 11.9055 11.7539 11.5262 11.5932 11.1248C11.3936 10.5977 11.255 10.0496 11.1801 9.49096C11.1596 9.35121 11.1415 9.21123 11.126 9.07102C11.1205 9.02033 11.0835 8.9621 11.0233 8.96827C10.5293 9.02033 10.0341 8.60246 10.0354 8.0969C10.0268 7.87918 10.0979 7.66581 10.2355 7.4968C10.3056 7.42361 10.3926 7.36878 10.4889 7.33712C10.5852 7.30546 10.6877 7.29796 10.7876 7.31526C10.808 7.3224 10.8301 7.32264 10.8506 7.31595C11.1767 7.2173 11.485 7.04536 11.7789 6.87684C12.1704 6.65314 12.5472 6.40475 12.9071 6.13316C13.2051 5.90778 13.5168 5.66664 13.7319 5.357C13.9689 5.01654 14.1238 4.61236 14.245 4.21847C14.3594 3.84717 14.4615 3.44094 14.4608 3.04567C14.7745 3.22036 15.0157 3.52383 15.2205 3.8095C15.4637 4.14928 15.674 4.5144 15.9377 4.83911C16.4961 5.52689 17.2845 6.01875 18.049 6.44485C18.5847 6.74284 19.1362 7.01138 19.6918 7.27033C19.7009 7.27808 19.7115 7.28395 19.7229 7.2876C19.7343 7.29124 19.7463 7.29259 19.7582 7.29156C19.9035 7.274 20.0509 7.29651 20.1843 7.35664C20.3398 7.44022 20.4145 7.59504 20.4487 7.76287C20.5027 7.99414 20.4731 8.23706 20.3652 8.4486C20.2652 8.62876 20.087 8.78084 19.8685 8.73631C19.8422 8.72943 19.8142 8.7331 19.7905 8.74653C19.7669 8.75997 19.7494 8.78211 19.7418 8.80824C19.5739 9.76045 19.391 10.7421 18.9375 11.6073C18.7221 12.03 18.4258 12.4064 18.0655 12.715C17.647 13.0686 17.1631 13.3364 16.6413 13.5032ZM18.8964 12.0818C19.4548 11.2358 19.6897 10.2171 19.8733 9.23407C19.8911 9.13816 19.9083 9.04225 19.9254 8.94566C20.3234 8.95525 20.6084 8.57232 20.6645 8.19417C20.7193 7.82973 20.633 7.34472 20.2672 7.16866C20.1139 7.10072 19.946 7.072 19.7788 7.08509C18.8423 6.64803 17.9011 6.18769 17.0598 5.58348C16.7205 5.34683 16.4109 5.07013 16.1378 4.75937C15.8645 4.43877 15.6562 4.06817 15.4123 3.72565C15.1404 3.34339 14.8252 2.96251 14.3786 2.78166C14.3633 2.77759 14.3473 2.77707 14.3318 2.78015C14.3163 2.78322 14.3017 2.7898 14.2891 2.79939C14.2766 2.80898 14.2664 2.82132 14.2593 2.83547C14.2523 2.84961 14.2485 2.86518 14.2484 2.88099C14.2779 3.25228 14.195 3.63385 14.0977 3.98939C13.9952 4.39327 13.8368 4.78086 13.6271 5.14094C13.4442 5.44168 13.1674 5.67116 12.8927 5.88695C12.5493 6.15339 12.1892 6.39754 11.8145 6.61789C11.4973 6.80628 11.1644 7.00357 10.8095 7.11318C10.6128 7.08281 10.4116 7.12232 10.2409 7.22484C10.0736 7.33895 9.95018 7.50662 9.89089 7.70026C9.8156 7.92136 9.81166 8.16053 9.87964 8.384C9.94761 8.60746 10.0841 8.80393 10.2697 8.94566C10.4588 9.09512 10.6925 9.1771 10.9335 9.17858C11.0603 10.2315 11.3158 11.2625 11.9056 12.1585C12.2913 12.7428 12.7941 13.2217 13.4449 13.4964C13.6331 13.5749 13.8271 13.6388 14.0251 13.6875C14.0039 14.0437 13.9998 14.4013 13.9703 14.7569C13.3935 14.7418 12.8146 14.7863 12.2406 14.8254C11.5425 14.8726 10.8458 14.9309 10.1471 14.9631C9.87102 14.9761 9.59427 14.985 9.31751 14.9788C9.33943 14.4966 9.34628 14.0136 9.35313 13.5306C9.36272 12.8435 9.36774 12.156 9.3682 11.468C9.36957 10.8651 9.36797 10.2625 9.36341 9.66016C9.36067 9.28887 9.34285 8.91963 9.33258 8.54902C9.317 7.72993 9.3605 6.91078 9.46274 6.09795C9.54015 5.44921 9.64222 4.79363 9.86828 4.17846C10.0466 3.69628 10.2821 3.23722 10.5698 2.81112C10.9162 2.28612 11.3505 1.82473 11.8535 1.4472C12.4395 1.01559 13.1165 0.723847 13.8326 0.594322C14.2451 0.525877 14.6637 0.500394 15.0814 0.518283C15.4847 0.52751 15.887 0.562519 16.2857 0.623094C17.0115 0.725956 17.7137 0.954772 18.3607 1.29923C18.9755 1.6363 19.5081 2.10509 19.9206 2.67205C20.4371 3.3845 20.7474 4.21682 20.9557 5.06627C21.2146 6.12261 21.2989 7.21319 21.2818 8.29898C21.2708 8.95457 21.2427 9.61084 21.2215 10.2664C21.1982 10.9946 21.1747 11.7228 21.1509 12.451C21.1304 13.0737 21.1089 13.6962 21.0865 14.3184C21.079 14.5233 21.0714 14.7274 21.0625 14.9322C21.0598 14.9918 21.0577 15.0521 21.0543 15.1124C20.9899 15.1069 20.9255 15.1001 20.8611 15.0925C20.6042 15.0645 20.3474 15.0336 20.0912 15.0049C19.4116 14.9281 18.73 14.8555 18.0463 14.8261C17.7919 14.8118 17.5368 14.8129 17.2825 14.8295C17.2341 14.5174 17.2092 14.202 17.2078 13.8862C17.2064 13.7807 17.2071 13.6745 17.2051 13.569C17.2044 13.5512 17.2044 13.5306 17.2037 13.5101C17.889 13.1994 18.4749 12.7051 18.8964 12.0818ZM21.1338 15.1172C21.1311 15.1166 21.1283 15.1164 21.1256 15.1165C21.1278 15.1153 21.1303 15.1147 21.1328 15.1147C21.1353 15.1147 21.1377 15.1153 21.14 15.1165C21.1379 15.1165 21.1352 15.1179 21.1335 15.1172H21.1338ZM13.2613 16.6353C13.4931 16.5376 13.6872 16.3677 13.8148 16.1509C13.8251 16.1338 13.8354 16.1174 13.8449 16.0996C13.8545 16.0817 13.8641 16.0653 13.873 16.0482C13.9011 15.9941 13.9265 15.9393 13.9498 15.8831C13.9614 15.8557 13.9724 15.8269 13.9826 15.7988C13.9915 15.7742 13.9998 15.7502 14.008 15.7255C14.0094 15.7214 14.0107 15.7166 14.0121 15.7125V15.7118C14.0176 15.6947 14.0231 15.6776 14.0279 15.6604C14.0306 15.6515 14.0333 15.6433 14.0354 15.6351C14.0374 15.6269 14.0409 15.618 14.0429 15.6091C14.0463 15.5974 14.0491 15.5858 14.0525 15.5741L14.071 15.5001L14.0772 15.4714C14.0854 15.4385 14.0922 15.4049 14.0984 15.3707C14.1059 15.3316 14.1135 15.2919 14.1196 15.2522C14.1409 15.1241 14.156 14.9953 14.1676 14.8678L14.1697 14.8452C14.1738 14.7966 14.1772 14.7486 14.1806 14.7007C14.1847 14.6452 14.1882 14.5897 14.1916 14.5356C14.208 14.2684 14.2135 14.0006 14.2286 13.7334C14.3745 13.7629 14.5218 13.7862 14.6704 13.8047C15.1958 13.8697 15.75 13.8999 16.2734 13.8053C16.5217 13.7597 16.765 13.6897 16.9996 13.5964C17.0009 13.6855 17.0009 13.7745 17.0023 13.8636C17.003 13.8965 17.003 13.9287 17.0044 13.9609C17.0057 13.993 17.0064 14.0266 17.0078 14.0588C17.0085 14.0869 17.0098 14.115 17.0112 14.1431L17.0153 14.2273C17.0153 14.2328 17.016 14.2383 17.016 14.2438C17.016 14.2465 17.0167 14.2499 17.0167 14.2527C17.0194 14.2945 17.0222 14.3349 17.0256 14.3767C17.0263 14.3917 17.0277 14.4075 17.029 14.4226C17.0318 14.4486 17.0338 14.4746 17.0366 14.5007C17.0393 14.5267 17.0414 14.5534 17.0448 14.5794C17.0482 14.6082 17.0509 14.637 17.0551 14.6658C17.0592 14.6945 17.0626 14.7233 17.0667 14.7521C17.0708 14.7808 17.0749 14.8082 17.0797 14.8363C17.0838 14.861 17.0879 14.8857 17.0927 14.911C17.0928 14.914 17.0933 14.917 17.0941 14.9199C17.0948 14.9247 17.0962 14.9302 17.0968 14.935C17.0974 14.9394 17.0983 14.9437 17.0996 14.948C17.1078 14.9918 17.1167 15.0357 17.1263 15.0795C17.1331 15.111 17.1407 15.1425 17.1489 15.1741C17.1571 15.2076 17.166 15.2412 17.1756 15.2748C17.1777 15.2843 17.1805 15.2937 17.1838 15.3028C17.184 15.3045 17.1844 15.3062 17.1852 15.3076C17.1941 15.3398 17.2037 15.3707 17.2133 15.4022L17.2195 15.4207C17.2201 15.4234 17.2215 15.4262 17.2222 15.4289C17.2332 15.4618 17.2441 15.494 17.2565 15.5262C17.2688 15.5597 17.2818 15.5926 17.2955 15.6255C17.3092 15.6611 17.325 15.6961 17.3407 15.731L17.3572 15.7659C17.3606 15.7735 17.3647 15.781 17.3681 15.7885C17.3763 15.805 17.3839 15.8214 17.3928 15.8372C17.4017 15.855 17.4113 15.8728 17.4215 15.8906C17.4277 15.9029 17.4346 15.9146 17.4421 15.9269C17.4517 15.944 17.462 15.9619 17.4729 15.979C17.4805 15.992 17.4887 16.005 17.4969 16.018L17.5195 16.053C17.5277 16.0646 17.5353 16.0763 17.5435 16.0879C17.562 16.1146 17.5812 16.1407 17.6003 16.166C17.6127 16.1824 17.625 16.1982 17.638 16.2133C17.651 16.2283 17.6634 16.2441 17.6771 16.2592C17.6908 16.2756 17.7058 16.292 17.7209 16.3085C17.7332 16.3215 17.7463 16.3352 17.7593 16.3482C17.7737 16.3626 17.788 16.377 17.8031 16.3907C17.8182 16.4044 17.8326 16.4188 17.8483 16.4318C17.8627 16.4448 17.8778 16.4571 17.8929 16.4702C17.8976 16.4744 17.9026 16.4783 17.9079 16.4818C17.9251 16.4962 17.9436 16.5099 17.962 16.5236L17.9689 16.5284C17.9812 16.538 17.9936 16.5462 18.0066 16.5551C18.0196 16.564 18.0319 16.5722 18.0449 16.5811C18.421 16.825 18.8732 16.8976 19.3143 16.875C19.0011 17.4294 18.5586 17.8999 18.0244 18.2465C17.5164 18.5606 16.9377 18.7422 16.3412 18.7746C15.2568 18.8377 14.1066 18.4712 13.2825 17.7574C12.9523 17.4717 12.6612 17.1162 12.529 16.6962C12.7742 16.7415 13.027 16.7204 13.2613 16.6353ZM0.906569 18.6856C1.04495 18.315 1.22991 17.9505 1.50598 17.6635C1.78274 17.3864 2.13199 17.1929 2.51368 17.1052C3.24599 16.9189 4.02693 16.9846 4.77568 16.9613C5.5443 16.9367 6.31292 16.8901 7.08085 16.8421C8.81811 16.7332 10.565 16.59 12.307 16.6661C12.5461 17.6292 13.5134 18.2985 14.3813 18.6479C15.5096 19.1021 16.8324 19.1254 17.9196 18.5445C18.6279 18.1663 19.1739 17.5573 19.5596 16.8606C20.3508 16.8586 21.142 16.8661 21.9332 16.8778C23.5451 16.9017 25.1591 16.9442 26.7689 17.0422C27.156 17.0655 27.5428 17.0933 27.9294 17.1257C28.4103 17.1668 28.9035 17.1997 29.3632 17.3587C30.1921 17.6457 30.6613 18.3931 30.9018 19.1987C30.976 19.4504 31.035 19.7064 31.0785 19.9652C29.1138 20.3811 27.0978 20.4455 25.0954 20.4187C23.0245 20.392 20.957 20.292 18.8862 20.3071C16.7598 20.3235 14.6375 20.4263 12.5146 20.527C10.5561 20.6195 8.59479 20.6962 6.6342 20.7256C4.79555 20.753 2.95758 20.7295 1.1203 20.6551C0.898349 20.6462 0.676395 20.6368 0.454442 20.627C0.543497 19.968 0.67297 19.3083 0.906569 18.6856ZM0.410599 20.9757C0.416079 20.9277 0.42293 20.8798 0.42841 20.8318C2.28213 20.9127 4.13654 20.9551 5.99163 20.9387C7.92276 20.9216 9.8539 20.8531 11.783 20.7661C13.9039 20.6708 16.0234 20.5537 18.147 20.5215C20.2378 20.4893 22.3244 20.5667 24.4138 20.6126C26.4387 20.6564 28.4781 20.6386 30.4784 20.2913C30.6901 20.2543 30.9011 20.2125 31.1114 20.168C31.1888 20.6852 31.2245 21.21 31.2669 21.7285C31.2772 21.856 31.2868 21.9841 31.2964 22.1115C30.2647 22.1766 29.2321 22.219 28.1986 22.2389C27.3101 22.254 26.4223 22.2608 25.5352 22.2951C24.6645 22.3286 23.7959 22.4012 22.9252 22.4218C22.1401 22.4396 21.3551 22.4389 20.57 22.4355C18.7581 22.4286 16.9454 22.3999 15.1335 22.367C14.0964 22.3478 13.0592 22.304 12.0221 22.282C10.7177 22.254 9.40793 22.3149 8.1043 22.3492C5.79708 22.4102 3.49146 22.5065 1.18744 22.6383C0.880537 22.6561 0.573639 22.6744 0.26674 22.6931C0.298937 22.1183 0.34552 21.5456 0.410599 20.9757ZM3.9187 26.2608C3.90134 26.5024 3.90454 26.7451 3.92829 26.9862C3.10007 26.9403 2.26775 26.9355 1.43885 26.9486C1.0381 26.9554 0.637348 26.9689 0.236598 26.989C0.228378 26.6622 0.220157 26.3348 0.214677 26.0073C0.212622 25.8874 0.211252 25.7675 0.209882 25.6483C1.47515 25.6305 2.74042 25.6251 4.0057 25.6319C3.96358 25.8395 3.93443 26.0495 3.91842 26.2608H3.9187ZM28.0185 26.7163C28.0063 26.7135 27.9938 26.7128 27.9815 26.7143C24.9262 27.1239 21.8414 27.2157 18.7629 27.2808C15.6624 27.3472 12.5616 27.4114 9.46068 27.4733C7.72273 27.5089 5.98455 27.5448 4.24615 27.5808C4.08396 26.943 4.0734 26.276 4.21532 25.6333C4.9643 25.6367 5.7135 25.6433 6.46294 25.6531C8.40914 25.6792 10.3547 25.7203 12.3009 25.7449C14.4199 25.7717 16.539 25.771 18.6581 25.7429C20.8502 25.7107 23.0423 25.6922 25.2324 25.5833C26.112 25.5394 26.9884 25.4711 27.8616 25.3784C27.9767 25.8148 28.0294 26.2652 28.0182 26.7163H28.0185ZM28.0157 25.1572C27.9493 24.9229 27.8698 24.692 27.7814 24.4653C27.6622 24.1611 27.5273 23.8638 27.3916 23.5665C27.2917 23.3687 27.2089 23.1627 27.1443 22.9507C27.1365 22.9251 27.1189 22.9037 27.0955 22.8908C27.072 22.878 27.0445 22.8748 27.0188 22.882C26.993 22.8891 26.971 22.906 26.9575 22.929C26.944 22.9521 26.94 22.9795 26.9464 23.0055C27.019 23.2429 27.1123 23.4735 27.2252 23.6946C27.3718 24.0159 27.517 24.3372 27.6396 24.6687C27.702 24.8359 27.7581 25.0065 27.8075 25.1791C27.1587 25.2483 26.5079 25.3045 25.8544 25.3435C23.7061 25.4723 21.5537 25.4942 19.4027 25.5264C17.2722 25.5579 15.1417 25.5702 13.0113 25.5476C11.0623 25.5271 9.11337 25.4867 7.16442 25.4572C6.19623 25.4428 5.22827 25.4328 4.26053 25.4271C4.29889 25.2681 4.34411 25.1106 4.3948 24.9551C4.51407 24.6015 4.65219 24.2546 4.80857 23.9159C4.92365 23.661 5.05038 23.4083 5.14492 23.1452C5.16136 23.0993 5.17643 23.0527 5.18876 23.0055C5.22165 22.8774 5.02367 22.8225 4.99079 22.9507C4.93538 23.1353 4.86457 23.3149 4.77911 23.4877C4.66265 23.7446 4.54414 24.0001 4.4359 24.2611C4.27639 24.6384 4.14742 25.0278 4.05022 25.4257C3.02472 25.4209 1.99944 25.4232 0.974388 25.4326C0.718639 25.4353 0.463119 25.4385 0.207827 25.4421C0.200976 24.5961 0.212622 23.7467 0.255094 22.8993C2.5904 22.7575 4.92708 22.6504 7.26512 22.578C8.51258 22.5417 9.7605 22.5111 11.0089 22.4862C12.2125 22.4602 13.4161 22.5403 14.619 22.5629C16.3796 22.5958 18.1402 22.6253 19.9014 22.6376C20.7454 22.6438 21.59 22.6465 22.4347 22.6355C23.2006 22.6259 23.9623 22.5766 24.7275 22.5369C26.6278 22.4389 28.5309 22.467 30.4312 22.3677C30.7251 22.3526 31.0189 22.3353 31.3128 22.3156C31.3717 23.0897 31.4249 23.864 31.4724 24.6386C30.325 24.853 29.1734 25.0284 28.0157 25.1572ZM28.1767 27.2137C28.2117 26.99 28.2287 26.7639 28.2274 26.5375C28.2214 26.139 28.1683 25.7426 28.0691 25.3565C28.9878 25.2551 29.9032 25.1252 30.8155 24.9667C31.0388 24.9277 31.2614 24.8859 31.4841 24.8448C31.5231 25.4832 31.559 26.1219 31.5916 26.7609C30.447 26.8581 29.3087 27.0091 28.1767 27.2137Z" fill="black"/>
<path d="M3.92837 26.9861C3.10015 26.9402 2.26783 26.9354 1.43893 26.9484C1.03818 26.9553 0.637427 26.9687 0.236678 26.9888C0.228457 26.6621 0.220237 26.3346 0.214756 26.0072C0.212701 25.8873 0.211331 25.7674 0.209961 25.6482C1.47523 25.6304 2.7405 25.6249 4.00578 25.6318C3.96375 25.8394 3.9347 26.0494 3.91878 26.2606C3.90141 26.5023 3.90462 26.745 3.92837 26.9861Z" fill="#2E6AA2"/>
<path d="M28.1769 27.2136C28.2119 26.9899 28.2288 26.7638 28.2276 26.5375C28.2216 26.1389 28.1685 25.7425 28.0693 25.3565C28.988 25.2551 29.9034 25.1251 30.8157 24.9667C31.039 24.9276 31.2616 24.8858 31.4843 24.8447C31.5233 25.4832 31.5592 26.1219 31.5918 26.7608C30.4472 26.8581 29.3089 27.009 28.1769 27.2136Z" fill="#2E6AA2"/>
<path d="M28.0183 26.7163C28.0061 26.7135 27.9936 26.7128 27.9813 26.7142C24.926 27.1239 21.8412 27.2157 18.7627 27.2808C15.6622 27.3472 12.5614 27.4114 9.46048 27.4733C7.72253 27.5089 5.98435 27.5447 4.24595 27.5808C4.08376 26.9429 4.0732 26.2759 4.21512 25.6333C4.9641 25.6367 5.71331 25.6433 6.46274 25.6531C8.40895 25.6792 10.3545 25.7203 12.3007 25.7449C14.4197 25.7716 16.5388 25.7709 18.6578 25.7429C20.85 25.7107 23.0421 25.6922 25.2322 25.5832C26.1118 25.5394 26.9882 25.4711 27.8614 25.3784C27.9766 25.8147 28.0294 26.2652 28.0183 26.7163Z" fill="#2E6AA2"/>
<path d="M26.9464 23.0058C27.0191 23.2432 27.1124 23.4738 27.2252 23.6949C27.3718 24.0162 27.5171 24.3375 27.6397 24.669C27.702 24.8362 27.7582 25.0068 27.8075 25.1794C27.1588 25.2486 26.508 25.3048 25.8545 25.3438C23.7062 25.4726 21.5538 25.4945 19.4027 25.5267C17.2723 25.5582 15.1418 25.5705 13.0113 25.5479C11.0624 25.5274 9.11343 25.487 7.16448 25.4575C6.19629 25.4431 5.22833 25.4331 4.26059 25.4274C4.29895 25.2684 4.34417 25.1109 4.39486 24.9554C4.51413 24.6018 4.65225 24.2549 4.80862 23.9162C4.92371 23.6613 5.05044 23.4086 5.14498 23.1455C5.16142 23.0996 5.17649 23.053 5.18882 23.0058C5.2217 22.8777 5.02373 22.8228 4.99085 22.951C4.93544 23.1356 4.86463 23.3152 4.77917 23.488C4.66271 23.7449 4.5442 24.0004 4.43596 24.2614C4.27645 24.6387 4.14748 25.0281 4.05028 25.426C3.02478 25.4212 1.9995 25.4235 0.974447 25.4329C0.718698 25.4356 0.463178 25.4388 0.207886 25.4424C0.201035 24.5964 0.212681 23.747 0.255154 22.8996C2.59046 22.7578 4.92714 22.6507 7.26518 22.5783C8.51264 22.542 9.76056 22.5114 11.0089 22.4865C12.2126 22.4605 13.4162 22.5406 14.6191 22.5632C16.3797 22.5961 18.1402 22.6256 19.9015 22.6379C20.7454 22.6441 21.5901 22.6468 22.4347 22.6358C23.2006 22.6262 23.9624 22.5769 24.7276 22.5372C26.6279 22.4392 28.5309 22.4673 30.4312 22.368C30.7251 22.3529 31.019 22.3356 31.3129 22.3159C31.3718 23.09 31.425 23.8643 31.4725 24.6389C30.3251 24.8533 29.1735 25.0287 28.0158 25.1575C27.9493 24.9232 27.8699 24.6923 27.7815 24.4656C27.6623 24.1614 27.5273 23.8641 27.3917 23.5668C27.2917 23.369 27.209 23.163 27.1444 22.951C27.1365 22.9254 27.119 22.904 27.0955 22.8911C27.0721 22.8783 27.0446 22.8751 27.0188 22.8823C26.9931 22.8894 26.9711 22.9063 26.9576 22.9293C26.9441 22.9524 26.9401 22.9798 26.9464 23.0058Z" fill="#EFEFEF"/>
<path d="M31.2965 22.1114C30.2648 22.1765 29.2322 22.219 28.1987 22.2388C27.3102 22.2539 26.4224 22.2608 25.5353 22.295C24.6646 22.3286 23.796 22.4012 22.9253 22.4218C22.1402 22.4396 21.3552 22.4389 20.5701 22.4355C18.7582 22.4286 16.9456 22.3998 15.1336 22.367C14.0965 22.3478 13.0593 22.3039 12.0222 22.282C10.7178 22.2539 9.40804 22.3149 8.10441 22.3491C5.79719 22.4101 3.49156 22.5065 1.18754 22.6382C0.880643 22.656 0.573744 22.6743 0.266846 22.693C0.299043 22.1183 0.345625 21.5456 0.410704 20.9756C0.416185 20.9277 0.423035 20.8797 0.428515 20.8318C2.28224 20.9126 4.13665 20.9551 5.99174 20.9386C7.92287 20.9215 9.854 20.853 11.7831 20.766C13.904 20.6708 16.0235 20.5536 18.1471 20.5215C20.2379 20.4893 22.3245 20.5667 24.4139 20.6126C26.4389 20.6564 28.4782 20.6386 30.4785 20.2913C30.6902 20.2543 30.9012 20.2125 31.1115 20.168C31.1889 20.6852 31.2246 21.2099 31.267 21.7285C31.2773 21.8559 31.2869 21.984 31.2965 22.1114Z" fill="#2E6AA2"/>
<path d="M31.0784 19.965C29.1137 20.3809 27.0977 20.4453 25.0953 20.4185C23.0244 20.3918 20.957 20.2918 18.8861 20.3069C16.7597 20.3233 14.6374 20.4261 12.5145 20.5268C10.556 20.6193 8.59469 20.696 6.6341 20.7254C4.79545 20.7528 2.95749 20.7293 1.12021 20.6549C0.898253 20.646 0.676299 20.6366 0.454346 20.6268C0.543401 19.9678 0.672874 19.3081 0.906473 18.6854C1.04485 18.3148 1.22981 17.9503 1.50588 17.6633C1.78264 17.3862 2.13189 17.1927 2.51358 17.105C3.24589 16.9187 4.02684 16.9844 4.77559 16.9611C5.5442 16.9365 6.31282 16.8899 7.08075 16.8419C8.81802 16.733 10.5649 16.5898 12.3069 16.6659C12.546 17.6291 13.5133 18.2983 14.3812 18.6477C15.5095 19.1019 16.8323 19.1252 17.9195 18.5443C18.6278 18.1661 19.1738 17.5571 19.5595 16.8604C20.3507 16.8584 21.1419 16.8659 21.9331 16.8776C23.545 16.9015 25.159 16.944 26.7688 17.042C27.1559 17.0653 27.5427 17.0931 27.9293 17.1256C28.4102 17.1667 28.9034 17.1995 29.3631 17.3585C30.192 17.6455 30.6612 18.3929 30.9017 19.1985C30.9759 19.4502 31.0349 19.7062 31.0784 19.965Z" fill="#EFEFEF"/>
<path d="M17.6622 7.57581C17.7679 7.57581 17.8536 7.49009 17.8536 7.38434C17.8536 7.27859 17.7679 7.19287 17.6622 7.19287C17.5564 7.19287 17.4707 7.27859 17.4707 7.38434C17.4707 7.49009 17.5564 7.57581 17.6622 7.57581Z" fill="black"/>
<path d="M13.2594 7.19287C13.2214 7.19279 13.1843 7.20397 13.1527 7.225C13.1211 7.24602 13.0964 7.27595 13.0819 7.31099C13.0673 7.34604 13.0634 7.38462 13.0708 7.42185C13.0781 7.45909 13.0964 7.4933 13.1232 7.52017C13.15 7.54704 13.1842 7.56534 13.2214 7.57278C13.2586 7.58021 13.2972 7.57644 13.3323 7.56193C13.3673 7.54743 13.3973 7.52284 13.4184 7.49129C13.4395 7.45974 13.4508 7.42264 13.4508 7.38468C13.4508 7.33388 13.4306 7.28516 13.3947 7.2492C13.3588 7.21324 13.3102 7.19298 13.2594 7.19287Z" fill="black"/>
<path d="M18.3415 9.62714C18.3261 9.63153 18.3105 9.63564 18.2951 9.63968C18.0269 9.70969 17.7265 9.75031 17.4724 9.63406C17.3642 9.58608 17.2714 9.50892 17.2046 9.41122C17.1377 9.31353 17.0993 9.19915 17.0938 9.08089C17.0922 8.85414 17.1866 8.58423 17.4637 8.50319C17.7056 8.43188 17.963 8.43188 18.205 8.50319C18.4438 8.58088 18.6532 8.75762 18.7219 8.9808C18.7567 9.09288 18.7514 9.21356 18.707 9.32218C18.6626 9.4308 18.5818 9.52059 18.4784 9.57617C18.4345 9.59746 18.3887 9.61452 18.3415 9.62714Z" fill="#FFB7C3"/>
<path d="M13.3479 9.62714C13.3324 9.63153 13.3169 9.63564 13.3014 9.63968C13.0332 9.70969 12.7328 9.75031 12.4787 9.63406C12.3705 9.58608 12.2778 9.50892 12.2109 9.41122C12.144 9.31353 12.1057 9.19915 12.1001 9.08089C12.0985 8.85414 12.1929 8.58423 12.47 8.50319C12.712 8.43188 12.9694 8.43188 13.2113 8.50319C13.4501 8.58088 13.6595 8.75762 13.7283 8.9808C13.763 9.09288 13.7578 9.21356 13.7134 9.32218C13.6689 9.4308 13.5881 9.52059 13.4848 9.57617C13.4409 9.59746 13.395 9.61452 13.3479 9.62714Z" fill="#FFB7C3"/>
<path d="M15.8164 10.3971C15.7313 10.43 15.6559 10.4972 15.5661 10.5139C15.5321 10.5197 15.4972 10.5182 15.4638 10.5095C15.4304 10.5009 15.3992 10.4852 15.3723 10.4635C15.3176 10.4267 15.2571 10.3992 15.1934 10.3822C15.094 10.3647 14.9962 10.4121 14.8988 10.441C14.8015 10.4698 14.6826 10.4737 14.6165 10.3918C14.7382 10.5254 14.8007 10.7138 14.93 10.8388C14.9365 10.8451 14.9431 10.8512 14.9499 10.8571C15.1925 11.0068 15.4819 11.0618 15.7625 11.0113C15.8998 10.9916 16.0281 10.9315 16.1312 10.8388C16.2606 10.7136 16.323 10.5254 16.4448 10.3918C16.3787 10.4737 16.2598 10.4698 16.1624 10.441C16.065 10.4121 15.9675 10.3647 15.8678 10.3822C15.8503 10.3855 15.8331 10.3905 15.8164 10.3971Z" fill="#EF562E"/>
</g>
<defs>
<clipPath id="clip0_21_1738">
<rect width="32" height="32" fill="white"/>
</clipPath>
</defs>
</svg>
