<svg width="46" height="29" viewBox="0 0 46 29" fill="none" xmlns="http://www.w3.org/2000/svg">
<g clip-path="url(#clip0_292_2547)">
<path d="M-2.21631 2.05693C-2.21631 -0.233773 -0.359323 -2.09076 1.93139 -2.09076H43.4083C45.699 -2.09076 47.556 -0.233773 47.556 2.05693V26.9431C47.556 29.2338 45.699 31.0908 43.4083 31.0908H1.93138C-0.359324 31.0908 -2.21631 29.2338 -2.21631 26.9431V2.05693Z" fill="#D8E3F3"/>
<path d="M38.5015 9.04437H36.2016C35.5063 9.04437 34.9714 9.25832 34.6505 9.95364L30.2646 19.9556H33.3668C33.3668 19.9556 33.9017 18.6184 34.0087 18.2975C34.3296 18.2975 37.3783 18.2975 37.8062 18.2975C37.9132 18.6719 38.1806 19.9021 38.1806 19.9021H40.9619L38.5015 9.04437ZM34.8645 16.0511C35.1319 15.4092 36.0412 13.0024 36.0412 13.0024C36.0412 13.0558 36.3086 12.3605 36.4156 11.9861L36.6295 12.9489C36.6295 12.9489 37.2179 15.5697 37.3248 16.1046H34.8645V16.0511Z" fill="#3362AB"/>
<path d="M30.4794 16.372C30.4794 18.6184 28.4469 20.116 25.2912 20.116C23.9541 20.116 22.6704 19.8486 21.9751 19.5277L22.403 17.0673L22.7774 17.2278C23.7401 17.6557 24.382 17.8161 25.5587 17.8161C26.4145 17.8161 27.3237 17.4952 27.3237 16.7464C27.3237 16.265 26.9493 15.9441 25.7726 15.4093C24.6494 14.8744 23.1518 14.0186 23.1518 12.4675C23.1518 10.3281 25.2378 8.88394 28.1795 8.88394C29.3027 8.88394 30.2655 9.09789 30.8538 9.36532L30.4259 11.7187L30.212 11.5048C29.6771 11.2908 28.9818 11.0769 27.9656 11.0769C26.8423 11.1304 26.3075 11.6117 26.3075 12.0396C26.3075 12.521 26.9493 12.8954 27.9656 13.3768C29.6771 14.1791 30.4794 15.0883 30.4794 16.372Z" fill="#3362AB"/>
<path d="M4.37793 9.15141L4.43142 8.93747H9.03123C9.67307 8.93747 10.1544 9.15141 10.3149 9.84674L11.3311 14.6605C10.3149 12.0932 7.96151 10.0072 4.37793 9.15141Z" fill="#F9B50B"/>
<path d="M17.8031 9.04439L13.1498 19.9021H9.99414L7.31982 10.8094C9.24533 12.0396 10.8499 13.9651 11.4383 15.3023L11.7592 16.4255L14.6474 8.99091H17.8031V9.04439Z" fill="#3362AB"/>
<path d="M19.0332 8.99091H21.9749L20.1029 19.9021H17.1611L19.0332 8.99091Z" fill="#3362AB"/>
</g>
<defs>
<clipPath id="clip0_292_2547">
<rect width="45" height="29" fill="white" transform="translate(0.169922)"/>
</clipPath>
</defs>
</svg>
