<svg width="46" height="29" viewBox="0 0 46 29" fill="none" xmlns="http://www.w3.org/2000/svg">
<g clip-path="url(#clip0_292_2579)">
<path d="M-4.0293 1.15042C-4.0293 -1.30717 -2.03703 -3.29944 0.420562 -3.29944H44.9192C47.3767 -3.29944 49.369 -1.30717 49.369 1.15042V27.8496C49.369 30.3072 47.3767 32.2994 44.9192 32.2994H0.420561C-2.03703 32.2994 -4.0293 30.3072 -4.0293 27.8496V1.15042Z" fill="#FDE8CE"/>
<path d="M33.6451 14.5046C33.6428 20.5665 28.7263 25.4783 22.6651 25.4754C16.6038 25.4731 11.692 20.5572 11.6943 14.4954C11.6967 8.43585 16.609 3.52521 22.6685 3.52463C28.7304 3.52405 33.6445 8.43818 33.6451 14.5V14.5046Z" fill="#F7931A"/>
<path d="M24.671 12.371C24.671 13.7735 22.469 13.6098 21.7683 13.6098V11.131C22.469 11.1298 24.668 10.9069 24.668 12.3698L24.671 12.371ZM25.248 16.2268C25.248 17.7681 22.6095 17.5928 21.7678 17.5934V14.8603C22.6095 14.8597 25.2486 14.6176 25.2486 16.2257L25.248 16.2268ZM26.9849 11.8149C26.8439 10.3444 25.5742 9.85153 23.972 9.71104V7.67166H22.7308V9.65763C22.4046 9.65763 22.0708 9.66402 21.7393 9.67098V7.67224H20.4987V9.71104C20.2299 9.71627 19.9658 9.72149 19.7086 9.72149V9.7151H17.9961V11.0428C17.9961 11.0428 18.9127 11.0253 18.8976 11.0428C19.2442 10.9981 19.5629 11.2407 19.6117 11.5867V13.9088C19.6552 13.9088 19.6993 13.9117 19.7429 13.9175H19.6117V17.1725C19.5972 17.4146 19.3899 17.5986 19.1484 17.5841H19.1473C19.1629 17.598 18.2451 17.5841 18.2451 17.5841L17.9984 19.0668H19.614C19.9147 19.0668 20.2102 19.072 20.5005 19.0743V21.1369H21.7405V19.0958C22.0807 19.1028 22.4104 19.1057 22.732 19.1057V21.1375H23.9714V19.0784C26.0613 18.9588 27.5196 18.4328 27.7007 16.473C27.847 14.8945 27.1045 14.1904 25.9202 13.9059C26.7092 13.532 27.1463 12.6729 26.9849 11.8149Z" fill="white"/>
</g>
<defs>
<clipPath id="clip0_292_2579">
<rect width="45" height="29" fill="white" transform="translate(0.169922)"/>
</clipPath>
</defs>
</svg>
