<svg width="46" height="29" viewBox="0 0 46 29" fill="none" xmlns="http://www.w3.org/2000/svg">
<g clip-path="url(#clip0_292_2559)">
<path d="M-2.28467 2.02277C-2.28467 -0.274235 -0.422581 -2.13632 1.87442 -2.13632H43.4653C45.7623 -2.13632 47.6244 -0.274235 47.6244 2.02277V26.9773C47.6244 29.2743 45.7623 31.1364 43.4653 31.1364H1.87442C-0.422582 31.1364 -2.28467 29.2743 -2.28467 26.9773V2.02277Z" fill="white"/>
<path d="M10.5701 10.4002C10.1116 10.0849 9.5132 9.92694 8.775 9.92694H5.9171C5.6908 9.92694 5.56577 10.0401 5.54202 10.2663L4.38109 17.5538C4.36902 17.6253 4.38693 17.6908 4.43464 17.7503C4.48209 17.8099 4.54176 17.8396 4.61323 17.8396H5.97071C6.20881 17.8396 6.33968 17.7267 6.3637 17.5003L6.68516 15.5356C6.6969 15.4403 6.73878 15.3629 6.81024 15.3033C6.88166 15.2438 6.97097 15.2049 7.07815 15.1871C7.18532 15.1694 7.28638 15.1604 7.38181 15.1604C7.47697 15.1604 7.59004 15.1665 7.72124 15.1783C7.85211 15.1902 7.93553 15.196 7.97129 15.196C8.9953 15.196 9.79907 14.9075 10.3826 14.3297C10.966 13.7523 11.2579 12.9516 11.2579 11.9273C11.2579 11.2247 11.0285 10.7157 10.5701 10.4V10.4002ZM9.09663 12.5884C9.0369 13.0052 8.88229 13.279 8.63223 13.41C8.38213 13.5412 8.0249 13.6065 7.56056 13.6065L6.97108 13.6243L7.2748 11.7131C7.2985 11.5822 7.37586 11.5167 7.50695 11.5167H7.84643C8.32251 11.5167 8.66805 11.5853 8.88239 11.722C9.09663 11.859 9.1681 12.1479 9.09663 12.5884V12.5884Z" fill="#003087"/>
<path d="M40.7294 9.92694H39.4078C39.2764 9.92694 39.1991 9.99246 39.1755 10.1235L38.0145 17.5541L37.9966 17.5898C37.9966 17.6496 38.0204 17.7059 38.0682 17.7595C38.1155 17.813 38.1753 17.8398 38.2467 17.8398H39.4257C39.6516 17.8398 39.7767 17.7269 39.8009 17.5005L40.9618 10.195V10.1773C40.9618 10.0105 40.8841 9.92716 40.7294 9.92716V9.92694Z" fill="#009CDE"/>
<path d="M24.762 12.8029C24.762 12.7435 24.7381 12.6869 24.6908 12.6334C24.643 12.5799 24.5894 12.5529 24.53 12.5529H23.1546C23.0234 12.5529 22.9162 12.6127 22.833 12.7315L20.9397 15.518L20.1538 12.8388C20.094 12.6484 19.9631 12.5529 19.7609 12.5529H18.421C18.3613 12.5529 18.3078 12.5797 18.2604 12.6334C18.2127 12.6869 18.189 12.7436 18.189 12.8029C18.189 12.8269 18.3051 13.1781 18.5372 13.8568C18.7694 14.5358 19.0194 15.2681 19.2874 16.0541C19.5554 16.8399 19.6952 17.2569 19.7071 17.3041C18.7306 18.638 18.2426 19.3525 18.2426 19.4476C18.2426 19.6025 18.3198 19.6798 18.4748 19.6798H19.8501C19.981 19.6798 20.0882 19.6204 20.1717 19.5013L24.7265 12.9279C24.7502 12.9043 24.762 12.8628 24.762 12.8029V12.8029Z" fill="#003087"/>
<path d="M37.5681 12.553H36.2106C36.0437 12.553 35.9429 12.7495 35.9071 13.1426C35.5971 12.6664 35.0319 12.4279 34.2101 12.4279C33.3528 12.4279 32.6233 12.7495 32.0221 13.3926C31.4207 14.0356 31.1201 14.792 31.1201 15.6612C31.1201 16.3639 31.3255 16.9235 31.7362 17.3401C32.1471 17.7572 32.6977 17.9653 33.3886 17.9653C33.7339 17.9653 34.0852 17.8937 34.4424 17.7509C34.7996 17.6081 35.0792 17.4176 35.282 17.1794C35.282 17.1913 35.2698 17.2447 35.2463 17.3399C35.2222 17.4354 35.2105 17.5071 35.2105 17.5543C35.2105 17.745 35.2877 17.84 35.4427 17.84H36.6753C36.9013 17.84 37.0324 17.7271 37.068 17.5007L37.8005 12.8387C37.8122 12.7672 37.7944 12.7019 37.7468 12.6422C37.699 12.5828 37.6396 12.553 37.5681 12.553V12.553ZM35.2372 16.0719C34.9336 16.3697 34.5673 16.5184 34.1387 16.5184C33.7932 16.5184 33.5136 16.4233 33.2992 16.2327C33.0847 16.0426 32.9776 15.7806 32.9776 15.4468C32.9776 15.0065 33.1265 14.634 33.4243 14.3304C33.7216 14.0268 34.0911 13.875 34.5316 13.875C34.8648 13.875 35.1417 13.9732 35.3622 14.1696C35.5823 14.3661 35.6928 14.637 35.6928 14.9825C35.6927 15.4111 35.5408 15.7744 35.2372 16.0719Z" fill="#009CDE"/>
<path d="M17.2773 12.553H15.9198C15.7528 12.553 15.6518 12.7495 15.6161 13.1426C15.2946 12.6664 14.7289 12.4279 13.9192 12.4279C13.0618 12.4279 12.3323 12.7495 11.7311 13.3926C11.1297 14.0356 10.8291 14.792 10.8291 15.6612C10.8291 16.3639 11.0345 16.9235 11.4454 17.3401C11.8562 17.7572 12.4068 17.9653 13.0976 17.9653C13.4308 17.9653 13.7764 17.8937 14.1335 17.7509C14.4907 17.6081 14.7766 17.4176 14.9909 17.1794C14.9431 17.3221 14.9194 17.4472 14.9194 17.5543C14.9194 17.745 14.9968 17.84 15.1516 17.84H16.3841C16.6102 17.84 16.7413 17.7271 16.7771 17.5007L17.5094 12.8387C17.5211 12.7672 17.5033 12.7019 17.4558 12.6422C17.4081 12.5828 17.3487 12.553 17.2773 12.553V12.553ZM14.9464 16.0808C14.6426 16.3729 14.2703 16.5184 13.83 16.5184C13.4845 16.5184 13.2076 16.4233 12.9994 16.2327C12.7909 16.0426 12.6868 15.7806 12.6868 15.4468C12.6868 15.0065 12.8356 14.634 13.1334 14.3304C13.4309 14.0268 13.8001 13.8749 14.2408 13.8749C14.5741 13.8749 14.8509 13.9732 15.0714 14.1696C15.2916 14.3661 15.4018 14.637 15.4018 14.9825C15.4018 15.4231 15.25 15.7893 14.9464 16.0808V16.0808Z" fill="#003087"/>
<path d="M30.8617 10.4002C30.4032 10.0849 29.805 9.92694 29.0667 9.92694H26.2266C25.9884 9.92694 25.8573 10.0401 25.8336 10.2663L24.6726 17.5538C24.6605 17.6253 24.6784 17.6908 24.7262 17.7503C24.7734 17.8099 24.8333 17.8396 24.9047 17.8396H26.3693C26.5122 17.8396 26.6074 17.7623 26.6552 17.6074L26.9767 15.5356C26.9886 15.4403 27.0302 15.3629 27.1018 15.3033C27.1733 15.2438 27.2625 15.2049 27.3698 15.1871C27.4768 15.1694 27.5779 15.1604 27.6734 15.1604C27.7686 15.1604 27.8816 15.1665 28.0127 15.1783C28.1436 15.1902 28.2272 15.196 28.2627 15.196C29.287 15.196 30.0906 14.9075 30.6741 14.3297C31.2577 13.7523 31.5494 12.9516 31.5494 11.9273C31.5494 11.2247 31.3201 10.7157 30.8617 10.4V10.4002ZM29.031 13.3385C28.7689 13.5171 28.3759 13.6063 27.8521 13.6063L27.2804 13.6243L27.5841 11.7129C27.6077 11.5821 27.6851 11.5165 27.8162 11.5165H28.1376C28.3997 11.5165 28.608 11.5285 28.763 11.5522C28.9176 11.5761 29.0667 11.6504 29.2095 11.7754C29.3525 11.9005 29.4239 12.0822 29.4239 12.3202C29.4239 12.8205 29.2927 13.1597 29.031 13.3385Z" fill="#009CDE"/>
</g>
<defs>
<clipPath id="clip0_292_2559">
<rect width="45" height="29" fill="white" transform="translate(0.169922)"/>
</clipPath>
</defs>
</svg>
