<svg width="45" height="29" viewBox="0 0 45 29" fill="none" xmlns="http://www.w3.org/2000/svg">
<g clip-path="url(#clip0_292_2543)">
<path d="M-2.98877 2.16413C-2.98877 -0.131474 -1.12781 -1.99243 1.1678 -1.99243H42.7334C45.0291 -1.99243 46.89 -0.131474 46.89 2.16413V27.1035C46.89 29.3991 45.029 31.2601 42.7334 31.2601H1.16779C-1.12781 31.2601 -2.98877 29.3991 -2.98877 27.1035V2.16413Z" fill="#DCEFDC"/>
<path d="M4.20752 9.32419H8.41288C9.2216 9.32419 9.90901 9.60724 10.4751 10.1733C11.0412 10.7395 11.3243 11.4269 11.3243 12.2356C11.3243 12.6265 11.2501 12.9971 11.1019 13.3476C10.9671 13.6846 10.7716 13.9811 10.5156 14.2372C10.9469 14.4933 11.2973 14.8437 11.5669 15.2885C11.8365 15.7333 11.9713 16.2253 11.9713 16.7644C11.9713 17.5732 11.6882 18.2606 11.1221 18.8267C10.556 19.3928 9.86858 19.6758 9.05985 19.6758H4.20752V9.32419ZM9.05985 18.3819C9.50465 18.3819 9.88205 18.2269 10.1921 17.9169C10.5156 17.5934 10.6773 17.2092 10.6773 16.7644C10.6773 16.3196 10.5156 15.9422 10.1921 15.6322C9.88205 15.3087 9.50465 15.147 9.05985 15.147H5.50148V18.3819H9.05985ZM8.41288 13.853C8.85767 13.853 9.23508 13.698 9.54509 13.388C9.86858 13.0645 10.0303 12.6804 10.0303 12.2356C10.0303 11.7908 9.86858 11.4134 9.54509 11.1034C9.23508 10.7799 8.85767 10.6181 8.41288 10.6181H5.50148V13.853H8.41288Z" fill="#4FAD50"/>
<path d="M17.0056 9.32419H18.0165L22.0803 19.6758H20.7055L19.4317 16.4409H15.5903L14.3165 19.6758H12.9417L17.0056 9.32419ZM18.9263 15.147L17.511 11.5684L16.0957 15.147H18.9263Z" fill="#4FAD50"/>
<path d="M23.7078 9.32419H25.1029L30.1776 17.4114V9.32419H31.4716V19.6758H30.0765L25.0018 11.5886V19.6758H23.7078V9.32419Z" fill="#4FAD50"/>
<path d="M33.4125 9.32419H34.7065V13.5902L38.9725 9.32419H40.7921L35.6163 14.5L40.7921 19.6758H38.9725L34.7065 15.4098V19.6758H33.4125V9.32419Z" fill="#4FAD50"/>
</g>
<defs>
<clipPath id="clip0_292_2543">
<rect width="45" height="29" fill="white"/>
</clipPath>
</defs>
</svg>
