<svg width="24" height="24" viewBox="0 0 24 24" fill="none" xmlns="http://www.w3.org/2000/svg">
<path fill-rule="evenodd" clip-rule="evenodd" d="M3.65 17.64L2.298 21.236C2.194 21.514 2.263 21.827 2.474 22.035C2.685 22.243 2.999 22.306 3.275 22.198L7.72 20.446C9.03 20.963 10.478 21.25 12 21.25C17.954 21.25 22.75 16.858 22.75 11.5C22.75 6.142 17.954 1.75 12 1.75C6.046 1.75 1.25 6.142 1.25 11.5C1.25 13.823 2.146 15.961 3.65 17.64ZM11 13.875C10.586 13.875 10.25 14.211 10.25 14.625C10.25 15.039 10.586 15.375 11 15.375H14C14.414 15.375 14.75 15.039 14.75 14.625C14.75 14.211 14.414 13.875 14 13.875H13.25V10.125C13.25 9.711 12.914 9.375 12.5 9.375H11C10.586 9.375 10.25 9.711 10.25 10.125C10.25 10.539 10.586 10.875 11 10.875H11.75V13.875H11ZM12 8.375C12.552 8.375 13 7.927 13 7.375C13 6.823 12.552 6.375 12 6.375C11.448 6.375 11 6.823 11 7.375C11 7.927 11.448 8.375 12 8.375Z" fill="#66A1F7"/>
</svg>
