<svg width="24" height="24" viewBox="0 0 24 24" fill="none" xmlns="http://www.w3.org/2000/svg">
<path d="M20.977 13.6493L18.7153 14.4767L15.7169 12.7454V11.254L18.7153 9.52268L20.977 10.3501C21.1209 10.4037 21.2717 10.4289 21.4179 10.4289C21.9432 10.4289 22.4343 10.1057 22.6261 9.58378C22.8705 8.91684 22.5279 8.17796 21.8587 7.93357L20.0456 7.27034L20.3786 5.36632C20.4997 4.66626 20.0315 4.00047 19.3325 3.87713C18.6451 3.75608 17.9667 4.22088 17.8434 4.92322L17.4284 7.29504L14.4307 9.02591L13.1383 8.28017V4.81829L14.986 3.273C15.5319 2.81734 15.605 2.00651 15.1482 1.46062C14.6914 0.917026 13.8783 0.845077 13.337 1.2996L11.8539 2.53983L10.3723 1.2996C9.82413 0.843936 9.01787 0.914743 8.55878 1.46062C8.10197 2.00537 8.17506 2.8162 8.71866 3.273L10.5664 4.81986V8.28031L9.27582 9.02561L6.27861 7.29503L5.86363 4.92321C5.74258 4.22201 5.06879 3.76521 4.37444 3.87712C3.67553 4.00046 3.2073 4.66625 3.32835 5.36631L3.66139 7.27005L1.84602 7.93356C1.17908 8.17795 0.834193 8.91569 1.07859 9.58377C1.26816 10.1045 1.76151 10.4289 2.28684 10.4289C2.43301 10.4289 2.58376 10.4037 2.72766 10.3501L4.99142 9.52267L7.99006 11.254V12.7454L4.99142 14.4767L2.72766 13.6493C2.06757 13.405 1.32069 13.751 1.07859 14.4156C0.834196 15.0837 1.17908 15.8215 1.84602 16.0658L3.66139 16.7294L3.32835 18.6331C3.2073 19.3331 3.67553 19.9989 4.37444 20.1223C4.44981 20.1348 4.5229 20.1417 4.59827 20.1417C5.21039 20.1417 5.75399 19.7009 5.86363 19.0762L6.27861 16.7044L9.27582 14.9738L10.5664 15.7191V19.1796L8.71866 20.7264C8.17506 21.1832 8.10197 21.994 8.55878 22.5388C8.81459 22.8426 9.17775 22.999 9.54548 22.999C9.83784 22.999 10.1302 22.9008 10.3723 22.6998L11.8539 21.4596L13.337 22.6998C13.5768 22.9008 13.8691 22.999 14.1615 22.999C14.5292 22.999 14.8947 22.8426 15.1482 22.5388C15.605 21.9929 15.5319 21.1821 14.986 20.7264L13.1383 19.1811V15.7193L14.4307 14.9735L17.4284 16.7044L17.8434 19.0762C17.953 19.7009 18.4966 20.1417 19.1087 20.1417C19.1841 20.1417 19.2572 20.1348 19.3325 20.1223C20.0315 19.9989 20.4997 19.3332 20.3786 18.6331L20.0456 16.7291L21.8587 16.0659C22.5279 15.8215 22.8705 15.0826 22.6261 14.4156C22.3794 13.7476 21.6371 13.405 20.977 13.6493ZM13.1451 12.746L11.8524 13.4906L10.5619 12.746V11.2534L11.8524 10.5088L13.1451 11.2534V12.746Z" fill="#626263"/>
</svg>
