<svg width="24" height="24" viewBox="0 0 24 24" fill="none" xmlns="http://www.w3.org/2000/svg">
<path d="M16.1226 5.35165C15.7139 3.99703 14.867 3.14925 13.5344 2.75789L14.0504 1C15.9962 1.57008 17.2839 2.85596 17.8778 4.8219L16.1226 5.35165ZM5.3434 20.1755C4.01078 19.786 3.16483 18.9373 2.75606 17.5827L1 18.1124C1.59391 20.0793 2.88162 21.3651 4.82832 21.9352L5.3434 20.1755ZM4.22525 12.364L7.49998 15.6158L8.30561 14.8102L2.28038 8.80878C1.7433 8.27261 1.7433 7.401 2.28038 6.86483C2.81747 6.32775 3.68725 6.32775 4.22433 6.86483L10.2486 12.8662L11.0543 12.0606L4.11343 5.14269C3.57635 4.60652 3.57635 3.73491 4.11343 3.19874C4.65051 2.66166 5.52029 2.66166 6.05738 3.19874L12.9982 10.1167L13.8038 9.31103L8.69605 4.22616C8.15896 3.69 8.15896 2.81838 8.69605 2.28222C9.23313 1.74513 10.1029 1.74513 10.64 2.28222L18.3745 9.99384V7.379C18.3745 6.36624 19.1948 5.54596 20.2076 5.54596C21.2203 5.54596 22.0406 6.36624 22.0406 7.379V15.394C22.0406 17.3737 21.2698 19.2351 19.8694 20.6356C18.3205 22.1845 16.2849 22.959 14.2502 22.959C12.2155 22.959 10.1808 22.1845 8.63097 20.6356L2.28038 14.3079C1.7433 13.7708 1.7433 12.9011 2.28038 12.364C2.81747 11.8269 3.68816 11.8269 4.22433 12.364H4.22525Z" fill="#626263"/>
</svg>
