<svg width="24" height="24" viewBox="0 0 24 24" fill="none" xmlns="http://www.w3.org/2000/svg">
<path d="M10.0286 17.7429L21.5144 6.25721C22.0286 5.74293 22.2858 5.14293 22.2858 4.3715C22.2858 2.91436 21.0858 1.71436 19.6286 1.71436C18.9429 1.71436 18.2572 1.9715 17.7429 2.48578L6.25721 13.9715C6.08578 14.1429 6.00007 14.3144 6.00007 14.5715V17.1429C6.00007 17.6572 6.34293 18.0001 6.85721 18.0001H9.42864C9.68578 18.0001 9.85721 17.9144 10.0286 17.7429ZM18.8572 22.2858H5.14293C3.25721 22.2858 1.71436 20.7429 1.71436 18.8572V5.14293C1.71436 3.25721 3.25721 1.71436 5.14293 1.71436H11.1429C11.6572 1.71436 12.0001 2.05721 12.0001 2.5715C12.0001 3.08578 11.6572 3.42864 11.1429 3.42864H5.14293C4.20007 3.42864 3.42864 4.20007 3.42864 5.14293V18.8572C3.42864 19.8001 4.20007 20.5715 5.14293 20.5715H18.8572C19.8001 20.5715 20.5715 19.8001 20.5715 18.8572V12.8572C20.5715 12.3429 20.9144 12.0001 21.4286 12.0001C21.9429 12.0001 22.2858 12.3429 22.2858 12.8572V18.8572C22.2858 20.7429 20.7429 22.2858 18.8572 22.2858Z" fill="#626263"/>
</svg>
