<svg width="24" height="24" viewBox="0 0 24 24" fill="none" xmlns="http://www.w3.org/2000/svg">
<path d="M18.6651 6.69763C17.2746 6.25438 15.4596 4.91788 15.6666 3.28288C15.8789 1.60438 17.6129 1.15963 18.6651 2.28688C19.7174 1.15963 21.4514 1.60438 21.6636 3.28288C21.8699 4.91863 20.0556 6.25363 18.6651 6.69763Z" fill="#626263"/>
<path d="M19.0079 7.76925L18.6659 7.87875L18.3239 7.77C16.6394 7.233 14.2447 5.55825 14.5499 3.14175C14.6077 2.68575 14.7569 2.27775 14.9647 1.91925C14.0362 1.6515 13.0589 1.5 12.0449 1.5C6.24592 1.5 1.54492 6.201 1.54492 12C1.54492 17.799 6.24592 22.5 12.0449 22.5C17.8439 22.5 22.5449 17.799 22.5449 12C22.5449 10.0478 22.0027 8.22675 21.0742 6.66075C20.4097 7.1835 19.6567 7.56225 19.0079 7.76925ZM16.9387 11.1075L15.2242 12.7785C15.0629 12.936 14.9887 13.1625 15.0269 13.3853L15.4319 15.7448C15.5279 16.3042 14.9407 16.7317 14.4374 16.467L12.3187 15.3533C12.1192 15.2483 11.8807 15.2483 11.6812 15.3533L9.56242 16.467C9.05992 16.731 8.47192 16.3042 8.56792 15.7448L8.97292 13.3853C9.01117 13.1632 8.93767 12.936 8.77567 12.7785L7.06117 11.1075C6.65467 10.7108 6.87892 10.02 7.44067 9.939L9.80992 9.59475C10.0334 9.5625 10.2262 9.42225 10.3259 9.21975L11.3857 7.07325C11.6369 6.564 12.3637 6.564 12.6149 7.07325L13.6747 9.21975C13.7744 9.42225 13.9672 9.5625 14.1907 9.59475L16.5599 9.939C17.1209 10.02 17.3459 10.7108 16.9387 11.1075Z" fill="#626263"/>
</svg>
