<svg width="24" height="24" viewBox="0 0 24 24" fill="none" xmlns="http://www.w3.org/2000/svg">
<path fill-rule="evenodd" clip-rule="evenodd" d="M19.0007 16.4584C18.868 16.3257 18.6865 16.2529 18.4988 16.257C18.3118 16.2611 18.1338 16.3416 18.0073 16.4804C17.4305 17.1102 16.7581 17.6526 16.015 18.0843C15.83 18.1916 15.7056 18.3786 15.6781 18.5903C15.6506 18.802 15.7228 19.0145 15.874 19.165L19.1031 22.3941C19.4895 22.7812 20.014 22.9984 20.5613 22.9984C21.1085 22.9984 21.633 22.7812 22.0194 22.3941C22.4065 22.0078 22.6237 21.4832 22.6237 20.936C22.6237 20.3887 22.4065 19.8642 22.0194 19.4778L19.0007 16.4584Z" fill="#626263"/>
<path fill-rule="evenodd" clip-rule="evenodd" d="M19.4603 4.6957C19.3296 4.53208 19.1317 4.43652 18.9227 4.43652H9.56195C9.01471 4.43652 8.49017 4.65377 8.1038 5.04082C7.71675 5.42718 7.49951 5.95173 7.49951 6.49896V15.4362C7.49951 15.9834 7.71675 16.508 8.1038 16.8943C8.49017 17.2814 9.01471 17.4986 9.56195 17.4986H18.6346C18.8319 17.4986 19.0196 17.4134 19.1502 17.2656C20.6702 15.5393 21.5928 13.2741 21.5928 10.7957C21.5928 8.4899 20.7947 6.36903 19.4603 4.6957ZM18.583 5.81148H9.56195C9.37977 5.81148 9.20446 5.88367 9.0759 6.01291C8.94665 6.14147 8.87447 6.31678 8.87447 6.49896V15.4362C8.87447 15.6184 8.94665 15.7937 9.0759 15.9222C9.20446 16.0515 9.37977 16.1237 9.56195 16.1237H18.3156C19.5043 14.6717 20.2179 12.8162 20.2179 10.7957C20.2179 8.93126 19.6108 7.20706 18.583 5.81148Z" fill="#626263"/>
<path fill-rule="evenodd" clip-rule="evenodd" d="M8.16236 8.56148H20.3142C20.6936 8.56148 21.0015 8.25349 21.0015 7.874C21.0015 7.49451 20.6936 7.18652 20.3142 7.18652H8.16236C7.78295 7.18652 7.4751 7.49451 7.4751 7.874C7.4751 8.25349 7.78295 8.56148 8.16236 8.56148Z" fill="#626263"/>
<path fill-rule="evenodd" clip-rule="evenodd" d="M11.7963 0.999512C6.38912 0.999512 2 5.38863 2 10.7958C2 16.2029 6.38912 20.5921 11.7963 20.5921C17.2034 20.5921 21.5926 16.2029 21.5926 10.7958C21.5926 5.38863 17.2034 0.999512 11.7963 0.999512ZM11.7963 2.37388C16.4441 2.37388 20.2182 6.14797 20.2182 10.7958C20.2182 15.4436 16.4441 19.2177 11.7963 19.2177C7.14846 19.2177 3.37437 15.4436 3.37437 10.7958C3.37437 6.14797 7.14846 2.37388 11.7963 2.37388Z" fill="#626263"/>
<path fill-rule="evenodd" clip-rule="evenodd" d="M19.5304 7.87402H8.53076V16.4675H19.5304L20.5616 14.0613L20.9054 11.9989C21.1075 10.2774 21.2395 8.59244 19.5304 7.87402ZM10.9369 14.7488H15.0618C15.4413 14.7488 15.7493 14.4408 15.7493 14.0613C15.7493 13.6818 15.4413 13.3739 15.0618 13.3739H10.9369C10.5574 13.3739 10.2495 13.6818 10.2495 14.0613C10.2495 14.4408 10.5574 14.7488 10.9369 14.7488ZM10.9369 11.3114H15.0618C15.4413 11.3114 15.7493 11.0034 15.7493 10.6239C15.7493 10.2445 15.4413 9.93646 15.0618 9.93646H10.9369C10.5574 9.93646 10.2495 10.2445 10.2495 10.6239C10.2495 11.0034 10.5574 11.3114 10.9369 11.3114Z" fill="#626263"/>
</svg>
