<svg width="24" height="24" viewBox="0 0 24 24" fill="none" xmlns="http://www.w3.org/2000/svg">
<path d="M19.282 3H4.73207C2.67255 3 1 4.67255 1 6.73207V18.2679C1 20.3317 2.67255 22 4.73207 22H19.2777C21.3415 22 23.0097 20.3274 23.0097 18.2679V6.73207C23.014 4.67255 21.3415 3 19.282 3ZM10.9235 4.74134C10.9235 4.42317 11.1815 4.1609 11.504 4.1609H12.5144C12.8325 4.1609 13.0948 4.41887 13.0948 4.74134V5.75175C13.0948 6.06993 12.8368 6.3322 12.5144 6.3322H11.504C11.1858 6.3322 10.9235 6.07422 10.9235 5.75175V4.74134ZM6.91627 4.74134C6.91627 4.42317 7.17425 4.1652 7.49242 4.1609H8.50283C8.821 4.1609 9.08328 4.41887 9.08328 4.73704V5.75175C9.08328 6.06993 8.8253 6.3322 8.50283 6.3322H7.49242C7.17425 6.3322 6.91627 6.07422 6.91627 5.75175V4.74134ZM5.07604 20.263C5.07604 20.5811 4.81806 20.8434 4.49559 20.8434H3.48518C3.16701 20.8434 2.90473 20.5854 2.90473 20.263V19.2525C2.90473 18.9344 3.16271 18.6721 3.48518 18.6721H4.49559C4.81376 18.6721 5.07604 18.9301 5.07604 19.2525V20.263ZM5.07604 5.75175C5.07604 6.06993 4.81806 6.3279 4.49559 6.3279H3.48518C3.16701 6.3279 2.90473 6.06993 2.90473 5.75175V4.74134C2.90473 4.42317 3.16271 4.1609 3.48518 4.1609H4.49559C4.81376 4.1609 5.07604 4.41887 5.07604 4.74134V5.75175ZM9.08328 20.263C9.08328 20.5811 8.8253 20.8434 8.50713 20.8434H7.49242C7.17425 20.8434 6.91197 20.5854 6.91197 20.263V19.2525C6.91197 18.9344 7.16995 18.6764 7.49242 18.6764H8.50283C8.821 18.6764 9.08328 18.9344 9.08328 19.2525V20.263ZM8.09437 15.1206V9.88368C8.09437 8.45191 9.64653 7.55759 10.8848 8.27133L15.4209 10.8898C16.6592 11.6078 16.6592 13.3965 15.4209 14.1102L10.8848 16.7287C9.64653 17.4467 8.09437 16.5524 8.09437 15.1206ZM13.0905 20.263C13.0905 20.5811 12.8325 20.8434 12.5101 20.8434H11.4997C11.1815 20.8434 10.9192 20.5854 10.9192 20.263V19.2525C10.9192 18.9344 11.1772 18.6721 11.4997 18.6721H12.5101C12.8282 18.6721 13.0905 18.9301 13.0905 19.2525V20.263ZM17.0978 20.263C17.0978 20.5811 16.8398 20.8391 16.5216 20.8434H15.5112C15.193 20.8434 14.9308 20.5854 14.9308 20.263V19.2525C14.9308 18.9344 15.1887 18.6721 15.5112 18.6721H16.5216C16.8398 18.6721 17.0978 18.9301 17.0978 19.2525V20.263ZM17.0978 5.75175C17.0978 6.06993 16.8398 6.3279 16.5216 6.3322H15.5112C15.193 6.3322 14.9351 6.07422 14.9308 5.75605V4.74134C14.9308 4.42317 15.1887 4.1609 15.5112 4.1609H16.5216C16.8398 4.1609 17.1021 4.41887 17.1021 4.74134L17.0978 5.75175ZM21.105 20.263C21.105 20.5811 20.847 20.8434 20.5246 20.8434H19.5141C19.196 20.8434 18.9337 20.5854 18.9337 20.263V19.2525C18.9337 18.9344 19.1917 18.6721 19.5141 18.6721H20.5246C20.8427 18.6721 21.105 18.9301 21.105 19.2525V20.263ZM21.105 5.75175C21.105 6.06993 20.847 6.3322 20.5246 6.3322H19.5141C19.196 6.3322 18.9337 6.07422 18.9337 5.75605V4.74134C18.9337 4.42317 19.1917 4.1609 19.5141 4.1609H20.5246C20.8427 4.1609 21.105 4.41887 21.105 4.74134V5.75175Z" fill="#626263"/>
</svg>
