<svg width="24" height="24" viewBox="0 0 24 24" fill="none" xmlns="http://www.w3.org/2000/svg">
<path d="M4.01127 22.8588C4.35666 22.6136 4.68359 22.3437 4.98971 22.051L1.94799 19.0093C1.65529 19.3154 1.38526 19.6423 1.14023 19.9877C0.925409 20.2905 0.960653 20.7042 1.22364 20.9662L3.03266 22.7753C3.29481 23.0383 3.70851 23.0736 4.01127 22.8588Z" fill="#626263"/>
<path d="M12.0519 1.22142C11.7553 0.925541 11.2752 0.925541 10.9786 1.22142L10.1746 2.02549L9.636 1.48693C9.04121 0.899024 8.08409 0.899024 7.48931 1.48693L6.40832 2.57546C6.12033 2.85808 5.9577 3.24443 5.95703 3.64788C5.95636 4.05151 6.11748 4.43836 6.40463 4.72215L7.44752 5.76504L7.71688 5.49584L7.98608 5.23034L12.5753 9.81558C13.1669 10.4088 13.1669 11.369 12.5753 11.9623L10.4438 14.0975L10.8685 14.5223C10.9895 14.6381 11.0874 14.7759 11.1569 14.9281L12.1126 13.9725C12.496 13.589 13.055 13.4392 13.5788 13.5796C14.1026 13.7199 14.5117 14.1291 14.6521 14.6529C14.7925 15.1767 14.6427 15.7357 14.2592 16.119L13.1859 17.1925C12.7534 17.627 12.6247 18.279 12.8593 18.8452C13.0939 19.4117 13.6461 19.7816 14.2592 19.7829C14.6618 19.78 15.0473 19.6193 15.3326 19.3353L18.9963 15.6716L8.29706 4.97239C8.28733 4.9645 8.27843 4.9556 8.27055 4.94587L7.98608 5.22648L6.93933 4.18359C6.79634 4.04228 6.71579 3.84978 6.71562 3.64872C6.71545 3.44699 6.79752 3.25382 6.94319 3.11402L8.02401 2.02549C8.16633 1.882 8.35983 1.80093 8.5619 1.80026C8.76379 1.79959 8.95797 1.87931 9.10113 2.02163L9.636 2.56019H9.63969L8.83193 3.36812C8.54763 3.65208 8.53588 4.10908 8.80542 4.40731V4.411L19.5614 15.1671C19.7032 15.3093 19.8955 15.389 20.0962 15.389C20.2968 15.389 20.4893 15.3093 20.6309 15.1671L22.7776 13.0204C23.0735 12.7239 23.0735 12.2437 22.7776 11.9472L12.0519 1.22142Z" fill="#626263"/>
<path d="M10.1707 13.8286L9.9052 13.5631H9.9015L9.39701 14.0676C9.38644 14.0755 9.37771 14.0855 9.37117 14.0971L8.94186 13.6655C8.78494 13.5069 8.56442 13.4287 8.34271 13.4532C8.12689 13.4751 7.93019 13.5866 7.80029 13.7603C6.51842 15.4632 4.66375 16.5897 3.05176 17.9703L6.02903 20.9474C7.40959 19.3355 8.53605 17.4809 10.239 16.199C10.4459 16.0448 10.5614 15.7967 10.5461 15.5391C10.5389 15.3573 10.4631 15.1853 10.3338 15.0574L9.9052 14.6288H9.90906L10.4097 14.1245C10.4211 14.1167 10.4323 14.1055 10.4438 14.0978L10.1746 13.8286H10.1707Z" fill="#626263"/>
<path d="M1.47803 12.3645C1.47753 12.9784 1.84726 13.5321 2.41435 13.7672C2.98161 14.0022 3.63463 13.8721 4.06846 13.4377L7.82329 9.68309C8.10625 9.39661 8.49208 9.23549 8.8947 9.23549C9.29732 9.23549 9.68316 9.39661 9.96612 9.68309C10.2519 9.96638 10.4127 10.3521 10.4127 10.7545C10.4127 11.1568 10.2519 11.5426 9.96612 11.8259L9.16205 12.6337L8.99523 12.8044C9.17598 12.8799 9.33962 12.9906 9.4769 13.1306L9.90537 13.5591C9.9146 13.5492 9.92467 13.5403 9.93574 13.5326L12.037 11.4238C12.1789 11.2822 12.2588 11.0897 12.2588 10.8891C12.2588 10.6884 12.1789 10.496 12.037 10.3544L7.44769 5.76514L1.92177 11.2911C1.63663 11.5754 1.47686 11.9619 1.47803 12.3645Z" fill="#626263"/>
<path d="M12.3778 21.482C12.3778 22.3198 11.6985 22.999 10.8608 22.999C10.023 22.999 9.34375 22.3198 9.34375 21.482C9.34375 20.6442 10.023 19.9648 10.8608 19.9648C11.6985 19.9648 12.3778 20.6442 12.3778 21.482Z" fill="#626263"/>
</svg>
