<svg width="24" height="24" viewBox="0 0 24 24" fill="none" xmlns="http://www.w3.org/2000/svg">
<path d="M9.96387 9.99219V12.7542H13.5928V9.99219H9.96387ZM12.0527 11.4498V12.2474H11.504V11.4498C11.3594 11.3585 11.2631 11.1978 11.2631 11.0142C11.2631 10.7296 11.4938 10.4989 11.7784 10.4989C12.0629 10.4989 12.2936 10.7296 12.2936 11.0142C12.2936 11.1978 12.1972 11.3585 12.0527 11.4498Z" fill="#626263"/>
<path d="M11.7786 6.96875C11.0739 6.96875 10.5005 7.5092 10.5005 8.17352V8.70332H13.0567V8.17352C13.0567 7.5092 12.4833 6.96875 11.7786 6.96875Z" fill="#626263"/>
<path d="M15.6911 4.1416H7.95143L4.55225 6.64899C4.61047 7.35155 4.82372 9.10967 5.57823 11.1603C6.82705 14.5544 8.91107 17.1628 11.7754 18.9189C14.6548 17.1544 16.7598 14.5305 18.0354 11.1142C18.7965 9.07555 19.023 7.34554 19.0873 6.64671L15.6911 4.1416ZM8.67475 14.0434V8.70336H9.21111V8.17357C9.21111 6.79847 10.3627 5.67976 11.7783 5.67976C13.1938 5.67976 14.3454 6.79847 14.3454 8.17357V8.70336H14.8817V14.0434H8.67475Z" fill="#626263"/>
<path d="M22.5572 5.44208L22.5535 5.12567L17.0829 0.999512H6.47448L1.0039 5.12562L1.00016 5.44204C0.998789 5.55762 0.981387 8.31469 2.25719 11.8423C3.00612 13.9131 4.0486 15.8216 5.35564 17.5149C6.98975 19.6319 9.0421 21.4141 11.4557 22.812L11.7787 22.999L12.1018 22.812C14.5153 21.4141 16.5677 19.6319 18.2018 17.5149C19.5088 15.8216 20.5513 13.9131 21.3003 11.8423C22.5761 8.31474 22.5586 5.55766 22.5572 5.44208ZM20.4001 6.36151C20.3967 6.45655 20.3049 8.72177 19.2433 11.5649C18.6192 13.2366 17.7866 14.7636 16.7688 16.1036C15.4923 17.7841 13.9211 19.1713 12.0988 20.2267L11.7758 20.4137L11.4527 20.2267C9.62977 19.1709 8.06291 17.783 6.79562 16.1016C5.78514 14.761 4.96317 13.2331 4.35243 11.5604C3.31402 8.71618 3.24549 6.44998 3.24308 6.35489L3.23458 6.01918L7.52787 2.85228H16.1155L20.4122 6.02172L20.4001 6.36151Z" fill="#626263"/>
</svg>
