<svg width="24" height="24" viewBox="0 0 24 24" fill="none" xmlns="http://www.w3.org/2000/svg">
<g clip-path="url(#clip0_32_1432)">
<path d="M12 11.96L10.7106 14.109L12 16.258L13.2893 14.109L12 11.96ZM12 11.96L10.7106 14.109L12 16.258L13.2893 14.109L12 11.96ZM22.876 8.62339L17.8413 12.3683L12.6102 3.21465C12.3407 2.74267 11.6592 2.74314 11.3897 3.21465L6.15861 12.3683L1.12389 8.62339C0.593796 8.22921 -0.139243 8.72181 0.0229256 9.36111L1.94458 16.9212H6.37562C6.7637 16.9212 7.07866 17.2361 7.07866 17.6242C7.07866 18.0123 6.7637 18.3272 6.37562 18.3272H2.30172L2.88197 20.6098C2.96117 20.921 3.24192 21.1394 3.56345 21.1394H20.4365C20.758 21.1394 21.0387 20.921 21.118 20.6098L21.6982 18.3272H17.6243C17.2362 18.3272 16.9213 18.0123 16.9213 17.6242C16.9213 17.2361 17.2362 16.9212 17.6243 16.9212H22.0553L23.977 9.36111C24.1396 8.72041 23.4052 8.23015 22.876 8.62339ZM14.7118 14.4708L12.6027 17.986C12.3309 18.4393 11.6709 18.4421 11.3972 17.986L9.28809 14.4708C9.15451 14.2482 9.15451 13.9698 9.28809 13.7472L11.3972 10.2319C11.6691 9.77872 12.329 9.77591 12.6027 10.2319L14.7118 13.7472C14.8454 13.9698 14.8454 14.2482 14.7118 14.4708ZM10.7106 14.109L12 16.258L13.2893 14.109L12 11.96L10.7106 14.109Z" fill="#FFBA33"/>
<path d="M7.04913 7.97664L5.72506 10.2934L3.76123 8.83248L4.28008 6.23778C4.39912 5.64301 5.16778 5.46866 5.53196 5.95375L7.04913 7.97664Z" fill="#FFBA33"/>
<path d="M20.2386 8.83248L18.2747 10.2934L16.9507 7.97664L18.4678 5.95375C18.8316 5.46866 19.6007 5.64301 19.7197 6.23778L20.2386 8.83248Z" fill="#FFBA33"/>
</g>
<defs>
<clipPath id="clip0_32_1432">
<rect width="24" height="24" fill="white"/>
</clipPath>
</defs>
</svg>
