<svg width="24" height="24" viewBox="0 0 24 24" fill="none" xmlns="http://www.w3.org/2000/svg">
<path d="M11.9961 10.98C11.2479 10.9802 10.5304 11.2773 10.001 11.806C9.47164 12.3347 9.17362 13.0518 9.17236 13.8C9.30894 17.5322 14.6804 17.531 14.8161 13.7999C14.8151 13.0524 14.5176 12.3357 13.989 11.8071C13.4604 11.2785 12.7437 10.981 11.9961 10.98Z" fill="#626263"/>
<path d="M15.9785 14.235C16.0936 17.3466 20.5673 17.3454 20.681 14.235C20.5722 11.1237 16.0896 11.1233 15.9785 14.235Z" fill="#626263"/>
<path d="M6.91125 17.0736C6.3355 17.3257 5.69666 17.3965 5.0797 17.2766C4.46273 17.1566 3.89691 16.8517 3.4575 16.4023L2.89125 16.5899C2.48587 16.726 2.13348 16.986 1.88385 17.3332C1.63421 17.6804 1.49995 18.0972 1.5 18.5249V19.3836C1.50104 19.6081 1.59067 19.823 1.74938 19.9817C1.90809 20.1404 2.12305 20.2301 2.3475 20.2311H6.17625C6.13285 19.1412 6.1311 17.9174 6.91125 17.0736Z" fill="#626263"/>
<path d="M3.31885 14.2351C3.42275 17.3414 7.91444 17.3406 8.0176 14.2351C7.9078 11.1214 3.42749 11.1255 3.31885 14.2351Z" fill="#626263"/>
<path d="M21.1089 16.5898L20.5427 16.4023C20.1019 16.8534 19.5339 17.1591 18.9146 17.2784C18.2953 17.3977 17.6544 17.3249 17.0776 17.0698C17.8575 17.9182 17.8561 19.1401 17.8126 20.2311H21.6526C21.8771 20.2301 22.0921 20.1405 22.2508 19.9817C22.4095 19.823 22.4991 19.6081 22.5001 19.3836V18.5249C22.5002 18.0972 22.3659 17.6804 22.1163 17.3332C21.8667 16.986 21.5143 16.726 21.1089 16.5898Z" fill="#626263"/>
<path d="M16.1286 17.1902C15.6922 16.8222 14.8998 16.659 14.3698 16.459C13.719 17.0466 12.873 17.3714 11.9961 17.3702C11.118 17.3695 10.2707 17.0466 9.61483 16.4627L8.77858 16.7402C8.2503 16.8737 7.78134 17.179 7.44536 17.6079C7.10938 18.0369 6.92542 18.5654 6.92236 19.1102V20.1752C6.92342 20.4301 7.02542 20.6743 7.20604 20.8542C7.38665 21.0341 7.63118 21.1351 7.88611 21.1352H16.1023C16.3476 21.1359 16.5837 21.0426 16.7623 20.8745C16.9408 20.7064 17.0482 20.4763 17.0623 20.2315C17.0654 20.2129 17.0667 20.194 17.0661 20.1752V19.1102C17.0662 18.7399 16.9818 18.3745 16.8194 18.0418C16.6569 17.7091 16.4206 17.4178 16.1286 17.1902Z" fill="#626263"/>
<path d="M4.91992 11.0964C5.81461 11.095 6.67228 10.739 7.30492 10.1064C7.93756 9.47372 8.29358 8.61605 8.29492 7.72136C8.1165 3.24707 1.72029 3.24857 1.54492 7.7214C1.54564 8.61628 1.90146 9.4743 2.53424 10.1071C3.16702 10.7398 4.02504 11.0956 4.91992 11.0964ZM3.45367 6.78761C3.38541 6.71701 3.34754 6.62246 3.34819 6.52425C3.34884 6.42604 3.38797 6.33201 3.45717 6.26232C3.52636 6.19263 3.62012 6.15284 3.71832 6.15149C3.81652 6.15015 3.91134 6.18735 3.98242 6.25511L4.91992 7.19259L5.85367 6.25509C5.88836 6.22033 5.92957 6.19275 5.97494 6.17393C6.0203 6.15511 6.06893 6.14543 6.11805 6.14543C6.16716 6.14543 6.21579 6.15511 6.26116 6.17393C6.30652 6.19275 6.34773 6.22033 6.38242 6.25509C6.45267 6.3259 6.49209 6.4216 6.49209 6.52134C6.49209 6.62108 6.45267 6.71679 6.38242 6.78759L5.44867 7.72134L6.38242 8.65509C6.41761 8.68976 6.44561 8.73104 6.46481 8.77655C6.484 8.82206 6.49403 8.87092 6.4943 8.92032C6.49457 8.96971 6.48508 9.01868 6.46639 9.0644C6.44769 9.11012 6.42015 9.1517 6.38534 9.18675C6.35053 9.22181 6.30915 9.24964 6.26356 9.26866C6.21797 9.28768 6.16908 9.29751 6.11968 9.29759C6.07028 9.29767 6.02136 9.28799 5.97571 9.26912C5.93006 9.25024 5.88859 9.22254 5.85367 9.18759L4.91992 8.25384L3.98242 9.18759C3.91132 9.25527 3.81653 9.2924 3.71838 9.29102C3.62023 9.28963 3.52653 9.24985 3.45736 9.18019C3.3882 9.11053 3.34908 9.01655 3.3484 8.91839C3.34771 8.82023 3.38551 8.72571 3.4537 8.65509L4.38743 7.72134L3.45367 6.78761Z" fill="#626263"/>
<path d="M12 9.59614C12.8947 9.59479 13.7524 9.23878 14.385 8.60614C15.0176 7.9735 15.3737 7.11583 15.375 6.22114C15.1915 1.7453 8.80778 1.74659 8.625 6.22117C8.62635 7.11586 8.98237 7.97351 9.61501 8.60615C10.2477 9.23879 11.1053 9.59479 12 9.59614ZM10.3387 5.93989C10.4102 5.8715 10.5057 5.83396 10.6047 5.83536C10.7036 5.83677 10.798 5.877 10.8675 5.94739L11.4488 6.54364L13.1588 5.09989C13.1964 5.06813 13.24 5.04409 13.2869 5.02917C13.3339 5.01424 13.3833 5.0087 13.4324 5.01288C13.4815 5.01706 13.5293 5.03087 13.5731 5.05352C13.6169 5.07617 13.6557 5.10722 13.6875 5.14489C13.7193 5.18256 13.7433 5.22612 13.7582 5.27308C13.7732 5.32004 13.7787 5.36949 13.7745 5.41859C13.7703 5.46768 13.7565 5.51548 13.7339 5.55924C13.7112 5.603 13.6802 5.64188 13.6425 5.67364L11.6663 7.34239C11.5933 7.40238 11.5005 7.43295 11.4062 7.42809C11.3118 7.42324 11.2227 7.38331 11.1562 7.31614L10.3312 6.47239C10.262 6.4006 10.2239 6.30434 10.2253 6.2046C10.2267 6.10485 10.2675 6.0097 10.3387 5.93989Z" fill="#626263"/>
<path d="M19.0801 11.0964C19.975 11.0956 20.833 10.7398 21.4658 10.1071C22.0986 9.47428 22.4544 8.61625 22.4551 7.72136C22.279 3.24731 15.8828 3.24833 15.7051 7.7214C15.7064 8.61608 16.0624 9.47374 16.6951 10.1064C17.3277 10.739 18.1854 11.095 19.0801 11.0964ZM17.6176 6.78761C17.5493 6.71701 17.5114 6.62244 17.512 6.52421C17.5126 6.42597 17.5518 6.3319 17.621 6.2622C17.6902 6.19249 17.784 6.1527 17.8822 6.15138C17.9805 6.15005 18.0753 6.1873 18.1464 6.25511L19.0838 7.1926L20.0176 6.2551C20.0523 6.22033 20.0935 6.19275 20.1388 6.17393C20.1842 6.15511 20.2328 6.14542 20.282 6.14542C20.3311 6.14542 20.3797 6.15511 20.4251 6.17393C20.4704 6.19275 20.5116 6.22033 20.5463 6.2551C20.6166 6.3259 20.656 6.4216 20.656 6.52135C20.656 6.62109 20.6166 6.7168 20.5463 6.7876L19.6126 7.72135L20.5463 8.6551C20.5813 8.68982 20.6091 8.73108 20.6281 8.77654C20.6471 8.82199 20.657 8.87075 20.6572 8.92002C20.6573 8.9693 20.6478 9.01812 20.6291 9.06371C20.6104 9.1093 20.5829 9.15076 20.5482 9.18572C20.5135 9.22069 20.4722 9.24847 20.4268 9.26749C20.3813 9.28651 20.3326 9.29638 20.2833 9.29656C20.234 9.29673 20.1852 9.2872 20.1396 9.2685C20.094 9.24981 20.0525 9.22232 20.0176 9.1876L19.0838 8.25385L18.1463 9.1876C18.0752 9.25525 17.9804 9.29236 17.8823 9.29097C17.7842 9.28957 17.6905 9.24979 17.6213 9.18014C17.5522 9.1105 17.513 9.01653 17.5123 8.91839C17.5116 8.82024 17.5494 8.72572 17.6176 8.6551L18.5513 7.72135L17.6176 6.78761Z" fill="#626263"/>
</svg>
