<svg width="24" height="24" viewBox="0 0 24 24" fill="none" xmlns="http://www.w3.org/2000/svg">
<path d="M13.4376 12.2902C14.5268 12.2902 15.4098 11.4072 15.4098 10.3179C15.4098 9.2287 14.5268 8.3457 13.4376 8.3457C12.3483 8.3457 11.4653 9.2287 11.4653 10.3179C11.4653 11.4072 12.3483 12.2902 13.4376 12.2902Z" fill="#626263"/>
<path d="M21.5444 3.55021L8.09226 1.02844C7.65928 0.947281 7.21179 1.04144 6.84824 1.29021C6.48468 1.53898 6.23484 1.92198 6.15366 2.35495L5.45609 6.07616H2.66098C2.44284 6.07616 2.22684 6.11913 2.02531 6.20261C1.82378 6.2861 1.64067 6.40846 1.48643 6.56271C1.33219 6.71697 1.20985 6.90009 1.12638 7.10163C1.04292 7.30317 0.999977 7.51918 1 7.73731V21.4239C1.00008 21.8643 1.17511 22.2867 1.4866 22.5982C1.79808 22.9096 2.22051 23.0846 2.66098 23.0846H16.3475C16.7881 23.0846 17.2105 22.9096 17.522 22.5981C17.8335 22.2866 18.0085 21.8641 18.0085 21.4236V20.192L18.4106 20.2674C18.625 20.3076 18.8452 20.3052 19.0586 20.2603C19.2721 20.2154 19.4746 20.1289 19.6546 20.0057C19.8346 19.8825 19.9886 19.7251 20.1078 19.5424C20.227 19.3597 20.309 19.1553 20.3492 18.9409L22.871 5.4888C22.9112 5.27441 22.9087 5.05419 22.8638 4.84074C22.8189 4.62729 22.7324 4.42477 22.6092 4.24476C22.486 4.06474 22.3286 3.91075 22.1459 3.79158C21.9632 3.67241 21.7588 3.59039 21.5444 3.55021ZM2.07349 15.4319V8.38865C2.07349 8.06 2.20404 7.74481 2.43643 7.51242C2.66882 7.28003 2.98401 7.14948 3.31265 7.14948H15.7723C16.0806 7.14948 16.3764 7.27198 16.5944 7.49002C16.8125 7.70807 16.9349 8.0038 16.9349 8.31217V18.8516L11.7349 13.9774L9.83864 15.1342L6.93647 12.2319L2.07349 15.4319ZM21.7098 5.85635L19.7679 16.2151L18.0084 13.8141V7.73731C18.0084 7.2968 17.8334 6.87432 17.5219 6.56283C17.2105 6.25133 16.788 6.07634 16.3475 6.07634H6.54826L7.08856 3.19323C7.11855 3.03328 7.17975 2.8808 7.26866 2.7445C7.35758 2.6082 7.47248 2.49074 7.60679 2.39885C7.7411 2.30695 7.89219 2.24241 8.05145 2.20891C8.2107 2.17541 8.37499 2.1736 8.53494 2.20359L20.7813 4.49934C20.9314 4.52747 21.0744 4.58489 21.2023 4.66831C21.3302 4.75173 21.4404 4.85953 21.5266 4.98554C21.6128 5.11155 21.6734 5.25331 21.7048 5.40272C21.7362 5.55214 21.7379 5.70628 21.7098 5.85635Z" fill="#626263"/>
</svg>
