<svg width="24" height="24" viewBox="0 0 24 24" fill="none" xmlns="http://www.w3.org/2000/svg">
<path d="M10.3095 5.80785C10.0444 6.55951 9.83397 7.42834 9.68359 8.37495C11.1875 8.89333 12.8108 8.8938 14.3163 8.3749C13.9296 5.59501 12.1409 0.763463 10.3095 5.80785Z" fill="#626263"/>
<path d="M9.68474 3.91211C8.41112 4.27722 7.26047 4.93593 6.31055 5.80976C6.41697 5.92576 6.81361 6.87633 8.45818 7.81948C8.68141 6.52679 9.06413 5.0615 9.68474 3.91211Z" fill="#626263"/>
<path d="M15.5419 7.81922C16.593 7.21638 17.0422 6.65227 17.7946 5.90751C16.825 4.98493 15.6362 4.29077 14.3154 3.91211C14.9361 5.06163 15.3188 6.52705 15.5419 7.81922Z" fill="#626263"/>
<path d="M14.481 9.68213C12.8603 10.1833 11.1397 10.1833 9.51901 9.68213C9.46767 10.2233 9.43429 10.782 9.41992 11.3521H14.5801C14.5657 10.782 14.5324 10.2234 14.481 9.68213Z" fill="#626263"/>
<path d="M13.6904 18.1909C13.9555 17.4393 14.1659 16.5704 14.3163 15.6239C12.8123 15.1055 11.1891 15.1049 9.68359 15.6238C10.0702 18.4037 11.859 23.2354 13.6904 18.1909Z" fill="#626263"/>
<path d="M14.481 14.3165C14.5323 13.7753 14.5657 13.2167 14.5801 12.6465H9.41992C9.43429 13.2167 9.46763 13.7753 9.51901 14.3165C11.1397 13.8153 12.8603 13.8153 14.481 14.3165Z" fill="#626263"/>
<path d="M8.12591 12.6465H3.61328C3.74369 14.353 4.38561 15.9188 5.38562 17.1903C6.0564 16.3616 6.79366 15.5463 8.2677 14.8163C8.19131 14.116 8.14351 13.389 8.12591 12.6465Z" fill="#626263"/>
<path d="M18.6623 17.1287C19.635 15.8683 20.259 14.3257 20.3873 12.6465H15.8747C15.8571 13.389 15.8093 14.116 15.7329 14.8162C17.383 15.6335 18.1105 16.6158 18.6623 17.1287Z" fill="#626263"/>
<path d="M5.40628 6.78271C4.39463 8.05884 3.74463 9.63404 3.61328 11.3522H8.12591C8.14351 10.6096 8.19131 9.88256 8.2677 9.18235C6.05338 8.08568 5.44101 6.81779 5.40628 6.78271Z" fill="#626263"/>
<path d="M15.8747 11.3525H20.3873C20.259 9.67295 19.6348 8.13014 18.6618 6.86963C18.1209 7.3727 17.3851 8.36442 15.7329 9.18269C15.8093 9.88294 15.8571 10.61 15.8747 11.3525Z" fill="#626263"/>
<path d="M8.45829 16.1802C6.95147 17.0443 6.40289 18.0228 6.2749 18.1566C7.23164 19.0468 8.3951 19.7177 9.68477 20.0874C9.06416 18.938 8.68149 17.4727 8.45829 16.1802Z" fill="#626263"/>
<path d="M17.7953 18.0912C17.0298 17.3356 16.5929 16.7829 15.5419 16.1802C15.3187 17.4729 14.936 18.938 14.3154 20.0872C15.6366 19.7085 16.8256 19.0141 17.7953 18.0912Z" fill="#626263"/>
<path d="M21.7059 11.9995C21.7059 17.3513 17.3518 21.7054 12 21.7054V22.9995C18.0794 22.9995 23 18.0798 23 11.9995H21.7059Z" fill="#626263"/>
<path d="M12 2.29363V0.999512C5.92062 0.999512 1 5.91932 1 11.9995H2.29412C2.29412 6.64769 6.64818 2.29363 12 2.29363Z" fill="#626263"/>
<path d="M15.4834 2.62988L15.9143 1.40953L17.1347 1.84049L16.7038 3.06084L15.4834 2.62988Z" fill="#626263"/>
<path d="M18.6235 4.47217L19.4375 3.46534L20.4444 4.27937L19.6304 5.2862L18.6235 4.47217Z" fill="#626263"/>
<path d="M20.7241 7.56201L21.8267 6.88389L22.5048 7.98648L21.4022 8.6646L20.7241 7.56201Z" fill="#626263"/>
<path d="M6.8623 22.147L7.29325 20.9266L8.5136 21.3576L8.08266 22.5779L6.8623 22.147Z" fill="#626263"/>
<path d="M3.57031 19.7256L4.38431 18.7188L5.39114 19.5328L4.57714 20.5396L3.57031 19.7256Z" fill="#626263"/>
<path d="M1.50244 16.0107L2.60503 15.3326L3.28312 16.4352L2.18054 17.1133L1.50244 16.0107Z" fill="#626263"/>
</svg>
