<svg width="24" height="24" viewBox="0 0 24 24" fill="none" xmlns="http://www.w3.org/2000/svg">
<path d="M20.2537 1.5H5.42993C5.04318 1.50043 4.67239 1.65426 4.39891 1.92773C4.12544 2.20121 3.97161 2.572 3.97118 2.95875V3.09356H3.39654C1.454 3.14649 1.45339 5.98787 3.39658 6.0401H3.97119V7.08472H3.39654C3.00811 7.08823 2.63678 7.24499 2.36335 7.52091C2.08992 7.79682 1.93652 8.16955 1.93652 8.558C1.93653 8.94645 2.08994 9.31917 2.36337 9.59508C2.63681 9.87099 3.00814 10.0277 3.39657 10.0312H3.97118V11.0759H3.39654C3.00814 11.0794 2.63687 11.2362 2.36348 11.5121C2.0901 11.788 1.93672 12.1607 1.93673 12.5492C1.93673 12.9376 2.09011 13.3103 2.36351 13.5862C2.6369 13.8621 3.00818 14.0188 3.39657 14.0224H3.97118V15.067H3.39654C3.00818 15.0706 2.63695 15.2274 2.36361 15.5033C2.09027 15.7793 1.93693 16.1519 1.93693 16.5403C1.93694 16.9287 2.09029 17.3013 2.36364 17.5772C2.63698 17.8531 3.00821 18.0099 3.39657 18.0135H3.97118V20.6775C3.97085 21.1603 4.16225 21.6235 4.50329 21.9652C4.84434 22.307 5.30712 22.4993 5.78993 22.5H20.6174C21.004 22.4989 21.3744 22.3449 21.6477 22.0716C21.9211 21.7982 22.0751 21.4278 22.0762 21.0413V3.3225C22.0757 2.8393 21.8835 2.37605 21.5418 2.03437C21.2001 1.6927 20.7369 1.50052 20.2537 1.5ZM16.6649 11.1713C16.5006 11.3188 16.2876 11.4004 16.0668 11.4004C15.846 11.4004 15.633 11.3188 15.4687 11.1713L13.9762 9.85125L13.4662 10.3012C13.3014 10.4463 13.0894 10.5263 12.8699 10.5263C12.6504 10.5263 12.4385 10.4463 12.2737 10.3012L9.59618 7.935C8.59988 7.10539 8.594 5.37488 9.68246 4.62375C9.92469 4.4473 10.1993 4.32032 10.4907 4.25007C10.782 4.17982 11.0843 4.16769 11.3804 4.21436C11.6764 4.26103 11.9603 4.3656 12.2159 4.52207C12.4715 4.67854 12.6937 4.88386 12.8699 5.12628C13.0459 4.88353 13.268 4.6779 13.5236 4.52119C13.7792 4.36448 14.0632 4.25978 14.3593 4.21309C14.6555 4.16641 14.9579 4.17865 15.2494 4.24913C15.5408 4.31961 15.8154 4.44693 16.0575 4.62378C16.3381 4.82643 16.5605 5.09929 16.7024 5.415C17.0849 5.16504 17.535 5.03856 17.9917 5.05264C18.4484 5.06673 18.8898 5.2207 19.2562 5.49375C19.5058 5.68887 19.7092 5.93673 19.8519 6.21959C19.9946 6.50246 20.0731 6.81336 20.0817 7.13007C20.0903 7.44677 20.0288 7.76147 19.9016 8.05166C19.7745 8.34185 19.5848 8.60037 19.3462 8.80875L16.6649 11.1713ZM19.3387 14.3063V15.8063C19.3384 16.1045 19.2198 16.3906 19.0089 16.6015C18.798 16.8124 18.512 16.931 18.2137 16.9313H10.7249C10.4268 16.9304 10.1412 16.8116 9.9304 16.6008C9.71961 16.39 9.6008 16.1044 9.59993 15.8063V14.3063C9.60095 14.0085 9.71993 13.7234 9.93079 13.5132C10.1417 13.303 10.4272 13.185 10.7249 13.185H18.2137C18.3612 13.1847 18.5073 13.2135 18.6437 13.2697C18.7801 13.3259 18.904 13.4084 19.0085 13.5125C19.113 13.6166 19.1959 13.7403 19.2526 13.8765C19.3092 14.0127 19.3385 14.1587 19.3387 14.3063ZM2.67327 4.56683C2.67349 4.37508 2.74976 4.19124 2.88535 4.05565C3.02095 3.92006 3.20478 3.84379 3.39654 3.84357L3.97118 3.84375V5.2901H3.39654C3.20478 5.28988 3.02094 5.21361 2.88535 5.07802C2.74976 4.94243 2.67349 4.75859 2.67327 4.56683ZM3.39654 9.28125C3.20652 9.27851 3.02521 9.2011 2.89181 9.06576C2.75841 8.93041 2.68362 8.74801 2.68363 8.55797C2.68363 8.36793 2.75842 8.18553 2.89183 8.05019C3.02524 7.91485 3.20655 7.83745 3.39657 7.83472H3.97118V9.28125H3.39654ZM3.39654 13.2724C3.20652 13.2697 3.02521 13.1923 2.89181 13.0569C2.75841 12.9216 2.68362 12.7392 2.68363 12.5491C2.68363 12.3591 2.75842 12.1767 2.89183 12.0413C3.02524 11.906 3.20655 11.8286 3.39657 11.8259H3.97119V13.2724L3.39654 13.2724ZM3.39654 17.2635C3.20652 17.2608 3.02521 17.1834 2.89181 17.0481C2.75841 16.9127 2.68362 16.7303 2.68363 16.5403C2.68363 16.3502 2.75842 16.1678 2.89183 16.0325C3.02524 15.8972 3.20655 15.8197 3.39657 15.817H3.97118V17.2635H3.39654ZM5.79119 17.2635H4.72118V14.0224H5.79118C5.8894 14.0205 5.98297 13.9802 6.05178 13.9101C6.12058 13.84 6.15912 13.7456 6.15912 13.6474C6.15912 13.5491 6.12057 13.4548 6.05176 13.3847C5.98295 13.3146 5.88938 13.2743 5.79116 13.2724C5.79116 13.2713 4.7189 13.2746 4.72118 13.2713V10.0312H5.79118C5.88937 10.0293 5.98289 9.98898 6.05165 9.91886C6.12042 9.84874 6.15893 9.75445 6.15893 9.65624C6.15893 9.55803 6.1204 9.46374 6.05164 9.39362C5.98287 9.32351 5.88935 9.28316 5.79116 9.28125H4.72118C4.7222 8.48756 4.72043 6.82644 4.72118 6.04012H5.79118C5.89064 6.04012 5.98602 6.00062 6.05634 5.93029C6.12667 5.85996 6.16618 5.76458 6.16618 5.66512C6.16618 5.56567 6.12667 5.47029 6.05634 5.39996C5.98602 5.32963 5.89064 5.29013 5.79118 5.29013H4.72118C4.72184 4.95289 4.7207 3.27329 4.72118 2.9588C4.7211 2.8657 4.73937 2.77349 4.77496 2.68746C4.81055 2.60143 4.86275 2.52327 4.92858 2.45743C4.99441 2.3916 5.07258 2.33939 5.1586 2.3038C5.24463 2.26821 5.33683 2.24992 5.42993 2.25H6.86243V18.8587H5.78993C5.40554 18.8576 5.03092 18.9799 4.72118 19.2075V18.0135H5.79118C5.88944 18.0117 5.98306 17.9714 6.05191 17.9013C6.12076 17.8312 6.15933 17.7368 6.15933 17.6386C6.15934 17.5403 6.12076 17.4459 6.05192 17.3758C5.98307 17.3057 5.88945 17.2654 5.79119 17.2635ZM21.3262 21.0413C21.3257 21.2291 21.2509 21.4091 21.1181 21.5419C20.9852 21.6747 20.8053 21.7495 20.6174 21.75H5.78993C5.50598 21.75 5.23367 21.6372 5.03288 21.4364C4.8321 21.2356 4.71931 20.9633 4.71931 20.6794C4.71931 20.3954 4.8321 20.1231 5.03288 19.9223C5.23367 19.7215 5.50598 19.6087 5.78993 19.6087H20.2537C20.6397 19.6092 21.0157 19.4856 21.3262 19.2562V21.0413Z" fill="#626263"/>
<path d="M18.8137 6.09771C18.5299 5.88521 18.1793 5.78158 17.8256 5.80567C17.4719 5.82975 17.1386 5.97995 16.8862 6.22896C16.8961 6.55054 16.8347 6.87032 16.7063 7.16533C16.5779 7.46034 16.3858 7.72326 16.1437 7.93521L14.5425 9.35271L15.9675 10.609C15.9944 10.6339 16.0295 10.6481 16.0661 10.6488C16.1028 10.6495 16.1384 10.6366 16.1662 10.6127L18.8512 8.24646C19.0059 8.11213 19.1292 7.94554 19.2126 7.75841C19.296 7.57128 19.3373 7.36816 19.3337 7.16333C19.3302 6.95851 19.2818 6.75695 19.1919 6.57285C19.1021 6.38874 18.973 6.22656 18.8137 6.09771Z" fill="#626263"/>
<path d="M16.1397 6.28863C16.1712 4.99736 14.3929 4.45998 13.6122 5.43369C13.4764 5.59281 13.3243 5.73732 13.1584 5.86488C12.7494 6.1554 12.4064 5.73539 12.1272 5.43363C11.9892 5.2737 11.8182 5.14562 11.6259 5.05822C11.4336 4.97082 11.2247 4.92618 11.0134 4.92738C10.7279 4.92347 10.448 5.00767 10.212 5.16851C9.97597 5.32935 9.79525 5.55902 9.69443 5.82625C9.59361 6.09347 9.57759 6.38528 9.64855 6.66194C9.71951 6.93859 9.874 7.18666 10.091 7.37238L12.7722 9.73863C12.7999 9.76223 12.8352 9.77519 12.8716 9.77519C12.908 9.77519 12.9432 9.76223 12.9709 9.73863L15.6484 7.37238C15.8024 7.2368 15.9258 7.07009 16.0105 6.88326C16.0952 6.69643 16.1392 6.49375 16.1397 6.28863Z" fill="#626263"/>
<path d="M10.7251 13.9351C10.6761 13.9348 10.6275 13.9442 10.5821 13.9627C10.5368 13.9812 10.4955 14.0085 10.4606 14.043C10.4258 14.0774 10.3981 14.1184 10.3792 14.1636C10.3602 14.2088 10.3503 14.2573 10.3501 14.3063V15.8063C10.3504 15.9057 10.39 16.0009 10.4603 16.0712C10.5305 16.1414 10.6257 16.181 10.7251 16.1813H18.2138C18.3132 16.181 18.4084 16.1414 18.4787 16.0712C18.549 16.0009 18.5886 15.9057 18.5888 15.8063V14.3063C18.5886 14.2573 18.5788 14.2088 18.5598 14.1636C18.5408 14.1184 18.5131 14.0774 18.4783 14.043C18.4435 14.0085 18.4022 13.9812 18.3568 13.9627C18.3114 13.9442 18.2629 13.9348 18.2138 13.9351H10.7251Z" fill="#626263"/>
</svg>
