<svg width="24" height="24" viewBox="0 0 24 24" fill="none" xmlns="http://www.w3.org/2000/svg">
<path fill-rule="evenodd" clip-rule="evenodd" d="M12.2933 18.4095L12.0344 19.7994C12.0114 19.9186 12 20.0393 12 20.1606C12 20.4273 12.1054 20.6835 12.2956 20.8721C12.4836 21.0607 12.7402 21.1668 13.006 21.1668C13.1687 21.1668 13.3269 21.1299 13.4735 21.0587L22.3491 16.7095C22.7479 16.5147 23 16.1098 23 15.6668C23 15.2239 22.7479 14.8189 22.3491 14.6241L21.1667 14.0443C21.1667 11.293 21.1667 7.56235 21.1667 5.43018C21.1667 4.23623 20.25 3.24233 19.0606 3.14608C19.0606 3.14585 19.0583 3.14585 19.0583 3.14585C16.4092 2.93754 13.7508 2.83304 11.0833 2.8335C8.43188 2.83396 5.77582 2.93822 3.10832 3.14722C1.91666 3.24302 1 4.23691 1 5.4311V15.8197C1 17.0157 1.91895 18.0107 3.11291 18.1045C3.47729 18.1331 3.84396 18.1597 4.20833 18.1847C4.20833 18.1845 4.20833 20.7085 4.20833 20.7085C4.20833 20.8948 4.32063 21.0628 4.49479 21.1329C4.66667 21.2033 4.86373 21.162 4.99436 21.0286L5.93397 20.0671C6.98355 18.993 8.42499 18.3944 9.92603 18.4102C10.311 18.4148 10.6983 18.4168 11.0833 18.4168C11.4867 18.4168 11.89 18.4143 12.2933 18.4095ZM22.0833 15.6668C22.0833 15.7601 22.0306 15.8454 21.9458 15.8864L13.0702 20.2355C13.0496 20.2451 13.0289 20.2502 13.006 20.2502C12.9831 20.2502 12.9602 20.2408 12.9419 20.224C12.9259 20.2071 12.9167 20.1842 12.9167 20.1606C12.9167 20.0959 12.9236 20.0318 12.935 19.9683L13.5377 16.7565L17.5711 16.1197C17.7933 16.0844 17.9583 15.8923 17.9583 15.6668C17.9583 15.4413 17.7933 15.2493 17.5711 15.214L13.5377 14.5771L12.935 11.3654C12.9236 11.3019 12.9167 11.2373 12.9167 11.1729C12.9167 11.1493 12.9259 11.1264 12.9419 11.1096C12.9602 11.0929 12.9831 11.0835 13.006 11.0835C13.0289 11.0835 13.0496 11.0885 13.0702 11.0982C14.035 11.5712 20.305 14.6425 21.9458 15.4473C22.0306 15.4883 22.0833 15.5736 22.0833 15.6668ZM6.04167 13.6043H11.0833C11.3354 13.6043 11.5417 13.399 11.5417 13.146C11.5417 12.893 11.3354 12.6877 11.0833 12.6877H6.04167C5.78958 12.6877 5.58333 12.893 5.58333 13.146C5.58333 13.399 5.78958 13.6043 6.04167 13.6043ZM6.04167 11.0835H10.8542C11.1063 11.0835 11.3125 10.8782 11.3125 10.6252C11.3125 10.3722 11.1063 10.1668 10.8542 10.1668H6.04167C5.78958 10.1668 5.58333 10.3722 5.58333 10.6252C5.58333 10.8782 5.78958 11.0835 6.04167 11.0835ZM6.04167 8.56266H16.125C16.3771 8.56266 16.5833 8.35733 16.5833 8.10433C16.5833 7.85133 16.3771 7.646 16.125 7.646H6.04167C5.78958 7.646 5.58333 7.85133 5.58333 8.10433C5.58333 8.35733 5.78958 8.56266 6.04167 8.56266Z" fill="#626263"/>
</svg>
