<svg width="24" height="24" viewBox="0 0 24 24" fill="none" xmlns="http://www.w3.org/2000/svg">
<g clip-path="url(#clip0_27_1743)">
<path fill-rule="evenodd" clip-rule="evenodd" d="M18.901 11.869C18.901 11.9984 18.7974 12.1034 18.6671 12.1034H17.8402C17.7103 12.1034 17.6044 11.9984 17.6044 11.869C17.6044 11.7396 17.7103 11.6346 17.8402 11.6346H18.6671C18.7969 11.6346 18.901 11.7392 18.901 11.869ZM19.5469 12.5224V13.3418C19.5469 13.4712 19.4433 13.5762 19.313 13.5762C19.1827 13.5762 19.0791 13.4712 19.0791 13.3418V12.5224C19.0791 12.3931 19.1827 12.2881 19.313 12.2881C19.4433 12.2881 19.5469 12.3931 19.5469 12.5224ZM19.5469 10.3957V11.2156C19.5469 11.3449 19.4433 11.4499 19.313 11.4499C19.1827 11.4499 19.0791 11.3449 19.0791 11.2156V10.3957C19.0791 10.2663 19.1827 10.1613 19.313 10.1613C19.4433 10.1613 19.5469 10.2663 19.5469 10.3957ZM21.0192 11.869C21.0192 11.9984 20.9157 12.1034 20.7853 12.1034H19.9585C19.8286 12.1034 19.7246 11.9984 19.7246 11.869C19.7246 11.7396 19.8282 11.6346 19.9585 11.6346H20.7853C20.9152 11.6346 21.0192 11.7392 21.0192 11.869ZM5.27534 12.1034C5.1455 12.1034 5.03956 11.9984 5.03956 11.869C5.03956 11.7396 5.1455 11.6346 5.27534 11.6346H6.10222C6.23206 11.6346 6.33612 11.7392 6.33612 11.869C6.33612 11.9988 6.23253 12.1034 6.10222 12.1034H5.27534ZM4.86331 12.5224V13.3418C4.86331 13.4712 4.75737 13.5762 4.6294 13.5762C4.50144 13.5762 4.39362 13.4712 4.39362 13.3418V12.5224C4.39362 12.3931 4.49956 12.2881 4.6294 12.2881C4.75925 12.2881 4.86331 12.3931 4.86331 12.5224ZM4.86331 10.3957V11.2156C4.86331 11.3449 4.75737 11.4499 4.6294 11.4499C4.50144 11.4499 4.39362 11.3449 4.39362 11.2156V10.3957C4.39362 10.2663 4.49956 10.1613 4.6294 10.1613C4.75925 10.1613 4.86331 10.2663 4.86331 10.3957ZM4.21737 11.869C4.21737 11.9984 4.11144 12.1034 3.98159 12.1034H3.15472C3.02675 12.1034 2.92081 11.9984 2.92081 11.869C2.92081 11.7396 3.02675 11.6346 3.15472 11.6346H3.98159C4.11144 11.6346 4.21737 11.7392 4.21737 11.869ZM11.6067 10.0465L11.9883 9.36166L12.3675 10.0465C12.5878 10.4435 12.6014 10.7431 12.4074 10.9376C12.1758 11.1687 11.7989 11.1687 11.5674 10.9376C11.3733 10.7431 11.3864 10.4435 11.6072 10.0465H11.6067ZM11.9883 11.5793C12.2592 11.5793 12.5307 11.4757 12.7378 11.269C13.0885 10.9188 13.1016 10.4042 12.7777 9.81916L12.3961 9.13432C12.3146 8.98525 12.158 8.89291 11.9883 8.89291C11.8186 8.89291 11.6597 8.98525 11.5782 9.13432L11.1966 9.81916C10.8727 10.4042 10.8858 10.9188 11.2364 11.269C11.4436 11.4757 11.715 11.5793 11.9883 11.5793ZM7.7119 16.2143H16.2628C16.7302 16.2143 17.1094 16.5931 17.1094 17.059V18.4263C16.9374 18.3706 16.7569 18.2656 16.5671 18.1568C16.2474 17.9731 15.9169 17.7832 15.5574 17.7832C15.1978 17.7832 14.8674 17.9731 14.5477 18.1568C14.2697 18.3171 14.0077 18.4685 13.7719 18.4685C13.5361 18.4685 13.276 18.3171 12.998 18.1568C12.6783 17.9731 12.3478 17.7832 11.9883 17.7832C11.6288 17.7832 11.296 17.9731 10.9786 18.1568C10.6988 18.3171 10.4363 18.4685 10.2028 18.4685C9.9694 18.4685 9.70456 18.3171 9.42706 18.1568C9.10737 17.9731 8.77691 17.7832 8.41737 17.7832C8.05784 17.7832 7.72737 17.9731 7.40769 18.1568C7.21831 18.2656 7.03737 18.3706 6.86534 18.4263V17.059C6.86534 16.5931 7.24456 16.2143 7.7119 16.2143ZM18.5335 21.5126H17.5767V17.059C17.5767 16.3348 16.988 15.7456 16.2628 15.7456H13.0533V12.4592C13.0533 12.0715 12.7378 11.756 12.3502 11.756H11.625C11.2369 11.756 10.9219 12.0715 10.9219 12.4592V15.7456H7.71237C6.98722 15.7456 6.39847 16.3348 6.39847 17.059V21.5126H5.40847C5.27862 21.5126 5.17456 21.6176 5.17456 21.747C5.17456 21.8763 5.27815 21.9813 5.40847 21.9813H18.5335C18.6633 21.9813 18.7692 21.8763 18.7692 21.747C18.7692 21.6176 18.6633 21.5126 18.5335 21.5126ZM21.8157 23.022C22.4616 23.022 22.9861 22.4965 22.9861 21.8501V7.85229H0.954873V21.8501C0.954873 22.4965 1.48175 23.022 2.12769 23.022H21.8157ZM4.04534 2.10541C4.04534 1.49088 4.54597 0.990723 5.16097 0.990723C5.77597 0.990723 6.27425 1.49088 6.27425 2.10541V4.39572C6.27425 5.01025 5.77362 5.51041 5.16097 5.51041C4.54831 5.51041 4.04534 5.01025 4.04534 4.39572V2.10541ZM17.6686 2.10541C17.6686 1.49088 18.1669 0.990723 18.7819 0.990723C19.3969 0.990723 19.8975 1.49088 19.8975 2.10541V4.39572C19.8975 5.01025 19.3969 5.51041 18.7819 5.51041C18.1669 5.51041 17.6686 5.01025 17.6686 4.39572V2.10541ZM21.8152 3.01619H20.3649V2.10541C20.3649 1.2326 19.6552 0.521973 18.7819 0.521973C17.9086 0.521973 17.1989 1.2326 17.1989 2.10541V3.01619H6.74347V2.10541C6.74347 1.2326 6.03378 0.521973 5.1605 0.521973C4.28722 0.521973 3.57753 1.2326 3.57753 2.10541V3.01619H2.12722C1.22112 3.01619 0.487061 3.75213 0.487061 4.65682V21.8501C0.487061 22.7548 1.22112 23.4907 2.12722 23.4907H21.8152C22.7189 23.4907 23.4553 22.7548 23.4553 21.8501V4.65682C23.4553 3.75213 22.7189 3.01619 21.8152 3.01619Z" fill="#F73D58"/>
</g>
<defs>
<clipPath id="clip0_27_1743">
<rect width="24" height="24" fill="white"/>
</clipPath>
</defs>
</svg>
