<svg width="24" height="24" viewBox="0 0 24 24" fill="none" xmlns="http://www.w3.org/2000/svg">
<path d="M7.84804 10.2625H8.13604C8.33284 10.2625 8.49604 10.0993 8.49604 9.90248C8.49604 9.70568 8.33284 9.54248 8.13604 9.54248H7.84804C7.65124 9.54248 7.48804 9.70568 7.48804 9.90248C7.48804 10.0993 7.64644 10.2625 7.84804 10.2625Z" fill="#A594F9"/>
<path d="M5.10235 9.54248H4.81435C4.61755 9.54248 4.45435 9.70568 4.45435 9.90248C4.45435 10.0993 4.61755 10.2625 4.81435 10.2625H5.10235C5.29915 10.2625 5.46235 10.0993 5.46235 9.90248C5.46235 9.70088 5.29915 9.54248 5.10235 9.54248Z" fill="#A594F9"/>
<path d="M21.7344 14.8754C22.1904 14.7458 22.5936 14.4866 22.7232 14.0066C22.7616 13.8482 22.6896 13.6802 22.5504 13.5986C22.5312 13.5938 20.976 12.701 20.952 11.117C20.9856 10.9298 21.0096 10.7378 21.0096 10.5458V8.34265C21.0096 6.63385 19.6128 5.24185 17.904 5.24185H17.2368C15.5232 5.24185 14.1312 6.63385 14.1312 8.34265V10.5458C14.1312 10.781 14.16 10.997 14.2032 11.1938C14.16 12.1298 13.584 12.8162 13.1376 13.2098C12.7872 13.0274 12.4032 12.9266 12 12.9266C11.0304 12.9266 10.1664 13.493 9.76798 14.333C9.17278 14.045 8.51998 13.8866 7.84798 13.877V13.3922C9.01918 12.941 9.85438 11.8082 9.85438 10.4786V8.31385C9.85438 6.59545 8.45278 5.19385 6.73438 5.19385H6.10078C4.38238 5.19385 2.98078 6.59545 2.98078 8.31385V10.4786C2.98078 11.8082 3.82078 12.9458 4.99678 13.3922V13.877C2.50078 13.9058 0.47998 15.941 0.47998 18.437V19.181C0.47998 20.2898 1.37758 21.1874 2.48638 21.1874H2.80798L2.81278 21.1922C2.81758 21.1922 2.81758 21.1874 2.81758 21.1874H7.88158V21.4658C7.88158 22.2818 8.54398 22.9442 9.35518 22.9442H14.6448C15.456 22.9442 16.1136 22.2818 16.1136 21.4658V21.2354H21.5088C22.6176 21.2354 23.52 20.3378 23.52 19.229V18.485C23.52 17.045 22.8384 15.725 21.7344 14.8754ZM14.8512 9.36505C15.5376 9.34585 16.9728 9.21145 17.6208 8.52025C18.0864 8.98585 18.8592 9.46105 19.8768 9.46105C20.0112 9.46105 20.1456 9.45625 20.2896 9.43705V10.4738C20.256 10.6514 20.2368 10.8434 20.232 11.0498C20.0016 12.1394 19.0272 12.9266 17.904 12.9266H17.2368C17.0208 12.9266 16.8096 12.8978 16.6032 12.845C15.7728 12.6146 15.1344 11.957 14.9232 11.1218C14.9328 10.8914 14.9136 10.6562 14.8704 10.4258C14.8656 10.4114 14.856 10.397 14.8512 10.3826V9.36505ZM18.2784 13.613V14.3474C18.2784 14.6978 17.9616 14.981 17.5728 14.981C17.184 14.981 16.8672 14.6978 16.8672 14.3474V13.6226C16.9872 13.637 17.112 13.6466 17.2368 13.6466H17.904C18.0288 13.6466 18.1536 13.6274 18.2784 13.613ZM13.7472 15.4754C13.7088 16.4114 12.9456 17.1602 12 17.1602C11.04 17.1602 10.2624 16.3922 10.248 15.437C10.6608 15.2738 11.8368 14.9426 13.7472 15.4754ZM3.70078 10.4786V9.18265C4.26718 9.00505 5.10718 8.68825 5.51038 8.24185C6.03358 8.56825 7.14718 9.00985 9.13438 8.90425V10.4786C9.13438 11.8034 8.05918 12.8786 6.73438 12.8786H6.10078C4.78078 12.8786 3.70078 11.8034 3.70078 10.4786ZM7.12798 13.5746V14.2946C7.12798 14.645 6.81118 14.933 6.41758 14.933C6.22558 14.933 6.04798 14.861 5.91358 14.741C5.78878 14.621 5.71678 14.4626 5.71678 14.2946V13.5746C5.84158 13.589 5.97118 13.5986 6.10078 13.5986H6.73438C6.86878 13.5986 6.99838 13.589 7.12798 13.5746ZM10.9248 17.789C9.39838 17.861 8.14558 18.9986 7.92478 20.4674H3.17278V17.5778C3.17278 17.381 3.01438 17.2178 2.81278 17.2178C2.61598 17.2178 2.45278 17.381 2.45278 17.5778V20.4674C1.75678 20.4482 1.19998 19.8818 1.19998 19.181V18.437C1.19998 16.325 2.91838 14.6066 5.03518 14.597C5.09278 14.8466 5.22238 15.077 5.41918 15.2642C5.69278 15.5138 6.04318 15.653 6.41758 15.653C7.09918 15.653 7.66558 15.197 7.80958 14.597C8.42398 14.597 9.01918 14.7506 9.55198 15.0338C9.54718 15.0866 9.53758 15.1394 9.53278 15.197C9.52798 15.269 9.52318 15.3362 9.52318 15.4082C9.52318 16.3874 10.0992 17.2274 10.9248 17.6258V17.789ZM12.36 18.1826C12.36 18.3506 12.192 18.4898 12 18.4898C11.8032 18.4898 11.6448 18.3554 11.6448 18.1442V17.8466C11.76 17.8658 11.8752 17.8802 12 17.8802C12.12 17.8802 12.24 17.8658 12.36 17.8466V18.1826ZM22.8 19.229C22.8 19.8914 22.2912 20.4338 21.648 20.501V17.5778C21.648 17.381 21.4848 17.2178 21.288 17.2178C21.0912 17.2178 20.928 17.381 20.928 17.5778V20.5154H16.08C15.8688 19.0082 14.6208 17.861 13.08 17.789V17.6258C13.9008 17.2226 14.4768 16.3826 14.4768 15.4082C14.4768 15.3554 14.472 15.2978 14.4672 15.2402C14.472 15.1874 14.4672 15.1394 14.448 15.0914V15.077C14.5392 15.029 14.6256 14.981 14.7264 14.9378C15.1872 14.7458 15.6768 14.645 16.1808 14.645C16.3248 15.245 16.8912 15.701 17.5728 15.701C18.2496 15.701 18.816 15.245 18.96 14.6402C19.4736 14.645 19.9728 14.741 20.4384 14.9378C21.8736 15.5378 22.8 16.9298 22.8 18.485V19.229Z" fill="#A594F9"/>
<path d="M18.8161 10.512H18.9841C19.1809 10.512 19.3441 10.3488 19.3441 10.152C19.3441 9.95519 19.1809 9.79199 18.9841 9.79199H18.8161C18.6193 9.79199 18.4561 9.95519 18.4561 10.152C18.4561 10.3536 18.6145 10.512 18.8161 10.512Z" fill="#A594F9"/>
<path d="M16.152 10.512H16.32C16.5168 10.512 16.68 10.3488 16.68 10.152C16.68 9.95519 16.5168 9.79199 16.32 9.79199H16.152C15.9552 9.79199 15.792 9.95519 15.792 10.152C15.792 10.3536 15.9552 10.512 16.152 10.512Z" fill="#A594F9"/>
<path d="M15.1632 3.28335C15.1632 5.17935 12.264 6.40335 12.1392 6.45615C12.096 6.47535 12.0528 6.48015 12.0048 6.48015C11.9568 6.48015 11.9088 6.47535 11.8656 6.45615C11.7408 6.40335 8.84155 5.17935 8.84155 3.28335C8.84155 2.05455 9.83995 1.05615 11.0688 1.05615C11.3952 1.05615 11.7072 1.12815 12.0048 1.27215C12.3024 1.12815 12.6144 1.05615 12.936 1.05615C14.1648 1.05615 15.1632 2.05455 15.1632 3.28335Z" fill="#A594F9"/>
</svg>
