<svg width="24" height="24" viewBox="0 0 24 24" fill="none" xmlns="http://www.w3.org/2000/svg">
<g clip-path="url(#clip0_31_591)">
<path d="M9.15 0.75C4.515 0.75 0.75 4.515 0.75 9.15C0.75 11.4675 1.695 13.56 3.2025 15.0825C3.195 15.2925 3.18 15.525 3.15 15.75C2.955 17.1675 2.3475 18.195 1.95 18.75C2.5575 18.645 4.14758 18.3075 5.55 16.95L5.6925 16.8075C6.75 17.2875 7.92 17.5501 9.15 17.5501C13.785 17.5501 17.55 13.7851 17.55 9.15007C17.55 4.51508 13.785 0.75 9.15 0.75ZM9.15 14.2575C8.715 14.2575 8.3625 13.905 8.3625 13.47C8.3625 13.035 8.715 12.6825 9.15 12.6825C9.585 12.6825 9.9375 13.035 9.9375 13.47C9.9375 13.905 9.585 14.2575 9.15 14.2575ZM10.4475 9.3225C9.9975 9.555 9.7125 10.1025 9.7125 10.71V10.9725C9.7125 11.28 9.4575 11.535 9.15 11.535C8.8425 11.535 8.5875 11.28 8.5875 10.9725V10.71C8.5875 9.68242 9.1125 8.7525 9.9225 8.32493C10.695 7.92743 11.0925 7.005 10.8975 6.08243C10.7475 5.38493 10.215 4.80743 9.57 4.64993C9.045 4.52243 8.52 4.63492 8.1 4.97242C7.6275 5.33992 7.35 5.93243 7.35 6.56242C7.35 6.86993 7.095 7.12492 6.7875 7.12492C6.48 7.12492 6.225 6.86993 6.225 6.56242C6.225 5.58742 6.6675 4.66493 7.4025 4.08743C8.0925 3.53993 8.9775 3.35242 9.84 3.56242C10.9125 3.81743 11.76 4.71743 12 5.84993C12.3 7.25992 11.6625 8.6925 10.4475 9.3225Z" fill="#818182"/>
<path d="M20.85 20.2501C21.045 21.6676 21.6525 22.6951 22.05 23.2501C21.4425 23.1451 19.8524 22.8076 18.45 21.4501L18.3075 21.3076C17.25 21.7876 16.08 22.0502 14.85 22.0502C12.075 22.0502 9.60746 20.7002 8.08496 18.6152C8.43746 18.6527 8.78989 18.6752 9.14996 18.6752C14.4 18.6752 18.675 14.4002 18.675 9.15016C18.675 8.01016 18.4725 6.92266 18.105 5.91016C21.1275 7.17766 23.25 10.1702 23.25 13.6502C23.25 15.9677 22.305 18.0602 20.7975 19.5827C20.805 19.7927 20.82 20.0251 20.85 20.2501Z" fill="#818182"/>
</g>
<defs>
<clipPath id="clip0_31_591">
<rect width="24" height="24" fill="white"/>
</clipPath>
</defs>
</svg>
