<svg width="24" height="24" viewBox="0 0 24 24" fill="none" xmlns="http://www.w3.org/2000/svg">
<path d="M20.2647 5.59805C21.5626 5.59805 22.6148 4.56874 22.6148 3.29902C22.6148 2.02931 21.5626 1 20.2647 1C18.9667 1 17.9146 2.02931 17.9146 3.29902C17.9146 4.56874 18.9667 5.59805 20.2647 5.59805Z" fill="#66A1F7"/>
<path d="M3.99855 5.59805C5.29648 5.59805 6.34866 4.56874 6.34866 3.29902C6.34866 2.02931 5.29648 1 3.99855 1C2.70062 1 1.64844 2.02931 1.64844 3.29902C1.64844 4.56874 2.70062 5.59805 3.99855 5.59805Z" fill="#66A1F7"/>
<path fill-rule="evenodd" clip-rule="evenodd" d="M22.9972 9.85547C22.9547 9.89445 22.9105 9.93224 22.8643 9.96859L19.8079 12.3805V22.7578C19.8079 22.841 19.8147 22.9226 19.8274 23.0022H22.9777C22.9906 22.9226 22.9972 22.841 22.9972 22.7578V9.85547Z" fill="#66A1F7"/>
<path fill-rule="evenodd" clip-rule="evenodd" d="M1 10.0762V23.0026H4.72087V16.4583C3.68284 16.4834 2.7338 15.8255 2.43236 14.8258L1 10.0762Z" fill="#66A1F7"/>
<path fill-rule="evenodd" clip-rule="evenodd" d="M20.4013 6.9823L16.5905 9.98947L13.9898 8.30603C13.2559 7.83107 12.2658 8.02813 11.78 8.74608C11.2945 9.46428 11.4959 10.4329 12.2298 10.9078L15.8035 13.2212C16.3829 13.5962 17.144 13.5613 17.6847 13.1344L22.4035 9.41047C23.0886 8.86997 23.1961 7.88703 22.6436 7.21691C22.0911 6.54679 21.0863 6.4418 20.4013 6.9823Z" fill="#66A1F7"/>
<path fill-rule="evenodd" clip-rule="evenodd" d="M1.33113 8.63775L3.13583 14.6227C3.36465 15.3813 4.13767 15.8522 4.93465 15.7187L9.06086 15.0276C9.92825 14.8822 10.512 14.0752 10.3634 13.2265C10.2148 12.3779 9.38992 11.8071 8.52253 11.9522L5.79373 12.4095L4.38997 7.75502C4.14085 6.92921 3.25342 6.45663 2.40925 6.70033C1.56534 6.94379 1.08201 7.81194 1.33113 8.63775Z" fill="#66A1F7"/>
<path fill-rule="evenodd" clip-rule="evenodd" d="M9.14161 2.31904H15.051C15.2534 2.31904 15.4177 2.15808 15.4177 1.9603C15.4177 1.76228 15.2534 1.60156 15.051 1.60156H9.14161C8.93919 1.60156 8.7749 1.76228 8.7749 1.9603C8.7749 2.15808 8.93919 2.31904 9.14161 2.31904Z" fill="#66A1F7"/>
<path fill-rule="evenodd" clip-rule="evenodd" d="M9.14161 4.00507H15.051C15.2534 4.00507 15.4177 3.84436 15.4177 3.64633C15.4177 3.44831 15.2534 3.2876 15.051 3.2876H9.14161C8.93919 3.2876 8.7749 3.44831 8.7749 3.64633C8.7749 3.84436 8.93919 4.00507 9.14161 4.00507Z" fill="#66A1F7"/>
<path fill-rule="evenodd" clip-rule="evenodd" d="M9.14161 5.69062H13.0339C13.2363 5.69062 13.4006 5.5299 13.4006 5.33188C13.4006 5.13386 13.2363 4.97314 13.0339 4.97314H9.14161C8.93919 4.97314 8.7749 5.13386 8.7749 5.33188C8.7749 5.5299 8.93919 5.69062 9.14161 5.69062Z" fill="#66A1F7"/>
</svg>
