<svg width="24" height="24" viewBox="0 0 24 24" fill="none" xmlns="http://www.w3.org/2000/svg">
<g clip-path="url(#clip0_28_3603)">
<path d="M16.9092 0.727511V4.72751C16.9092 4.90933 16.8001 5.05478 16.6182 5.09115L12.6182 6.07297C12.5819 6.07297 12.5455 6.07297 12.5455 6.07297H12.4728L8.47279 5.09115C8.32734 5.05478 8.18188 4.90933 8.18188 4.72751V0.727511C8.18188 0.61842 8.21825 0.50933 8.32734 0.436602C8.40007 0.363875 8.50916 0.363875 8.61825 0.363875L12.5455 1.34569L16.4728 0.363875C16.5819 0.327511 16.691 0.363875 16.8001 0.436602C16.8728 0.50933 16.9092 0.61842 16.9092 0.727511Z" fill="#A594F9"/>
<path d="M5.92739 12.5454C5.92739 13.0545 5.45466 13.4909 4.87284 13.4909C4.29102 13.4909 3.8183 13.0545 3.8183 12.5454C3.8183 12 4.29102 11.6 4.87284 11.6C4.98193 11.6 5.09102 11.6364 5.20012 11.6364V9.8909L3.09102 10.5454V13.1636V13.2364V13.3454C3.09102 13.8545 2.6183 14.2909 2.03648 14.2909C1.45466 14.2909 0.981934 13.8545 0.981934 13.3454C0.981934 12.8 1.45466 12.4 2.03648 12.4C2.14557 12.4 2.25466 12.4364 2.36375 12.4364V10.2545C2.36375 10.1091 2.47284 9.96363 2.6183 9.92726L5.45466 9.01817C5.56375 8.98181 5.67284 9.01817 5.78193 9.0909C5.89102 9.16363 5.92739 9.27272 5.92739 9.38181V12.2909V12.3636V12.5454Z" fill="#A594F9"/>
<path d="M22.6547 9.45508H18.7274C18.5092 9.45508 18.3638 9.60053 18.3638 9.81871V13.6005C18.3638 13.7824 18.5092 13.9642 18.7274 13.9642H22.6547C22.8729 13.9642 23.0183 13.7824 23.0183 13.6005V9.81871C23.0183 9.60053 22.8365 9.45508 22.6547 9.45508ZM21.7092 12.0005L20.182 12.8005C20.1456 12.8369 20.0729 12.8369 20.0001 12.8369C19.9274 12.8369 19.8547 12.8369 19.8183 12.7642C19.7092 12.6914 19.6365 12.5824 19.6365 12.4733V10.9096C19.6365 10.7642 19.7092 10.6551 19.8183 10.5824C19.9274 10.5096 20.0729 10.5096 20.182 10.5824L21.7092 11.3824C21.8183 11.4551 21.891 11.5642 21.891 11.7096C21.9274 11.8187 21.8547 11.9642 21.7092 12.0005Z" fill="#A594F9"/>
<path d="M3.45463 8.83657H3.56372C3.70917 8.83657 3.85463 8.72748 3.92736 8.58203C4.43645 6.76385 5.60008 5.16385 7.12736 4.07294C7.27281 3.96385 7.34554 3.74566 7.20008 3.56385C7.09099 3.38203 6.87281 3.34566 6.69099 3.49112C5.01826 4.69112 3.7819 6.43657 3.20008 8.40021C3.16372 8.58203 3.27281 8.80021 3.45463 8.83657Z" fill="#A594F9"/>
<path d="M20.1456 15.0914C20.2184 14.9096 20.182 14.6914 20.0002 14.5823C19.8184 14.5096 19.6002 14.5823 19.4911 14.7277C18.8366 16.0005 17.8911 17.0914 16.7275 17.8914C16.4729 17.7823 16.2184 17.6732 15.9638 17.6005C15.9275 17.6005 15.8911 17.6005 15.8911 17.6005C15.4547 17.6005 15.0547 17.3823 14.8366 17.055C14.6911 16.8368 14.6184 16.5823 14.6184 16.3277V15.3096C15.4184 14.6914 15.9638 13.7096 15.9638 12.5823L15.9275 11.4186C15.9275 11.3823 15.9638 11.3459 15.9638 11.3096C15.9638 9.45501 14.4366 7.92773 12.582 7.92773C10.7275 7.92773 9.20019 9.45501 9.20019 11.3096V12.5823C9.20019 13.6732 9.74564 14.655 10.5456 15.2732V16.2914C10.5456 16.5459 10.4729 16.8005 10.3275 17.0186C10.0729 17.3823 9.67292 17.6005 9.27292 17.6005C9.23655 17.6005 9.20019 17.6005 9.20019 17.6005C8.72746 17.7096 8.25473 17.9277 7.8911 18.255C6.36383 17.3823 5.12746 16.0368 4.40019 14.4368C4.32746 14.255 4.10928 14.1823 3.92746 14.255C3.74564 14.3277 3.67292 14.5459 3.74564 14.7277C4.50928 16.4005 5.78201 17.8186 7.34564 18.7641C7.30928 18.8005 7.27292 18.8732 7.20019 18.9096C6.6911 19.5641 6.43655 20.3641 6.43655 21.1641V21.6732C6.43655 22.7277 7.30928 23.6005 8.36382 23.6005H16.8366C17.8911 23.6005 18.7638 22.7277 18.7638 21.6732V21.1641C18.7638 20.3641 18.4729 19.5641 18.0002 18.9096C17.8184 18.6914 17.6366 18.5096 17.4184 18.3277C18.5456 17.4914 19.4911 16.4005 20.1456 15.0914ZM13.0911 17.8186C12.7638 18.0732 12.2911 18.0732 11.9638 17.8186L11.0184 17.1641C11.1275 16.9096 11.2002 16.6186 11.2002 16.3641V15.7459C11.6002 15.9277 12.0366 16.0005 12.5093 16.0005C12.982 16.0005 13.4184 15.8914 13.8184 15.7459V16.3641C13.8184 16.655 13.8911 16.9096 14.0002 17.1641L13.0911 17.8186ZM12.5456 15.2732C11.0547 15.2732 9.8911 14.0732 9.8911 12.6186V11.9277C10.2547 12.0732 10.6184 12.1096 10.9456 12.1096C11.8547 12.1096 12.6547 11.7459 13.1638 11.4914C13.3093 11.4186 13.5275 11.3096 13.5638 11.3096L15.1638 11.6368L15.2002 12.6186C15.2002 14.0732 14.0002 15.2732 12.5456 15.2732Z" fill="#A594F9"/>
<path d="M20.0366 8.43675C20.0729 8.58221 20.2184 8.6913 20.4002 8.6913H20.5093C20.6911 8.61857 20.8002 8.43675 20.7638 8.21857C20.3275 6.83675 19.5275 5.52766 18.5093 4.50948C18.3638 4.36403 18.1457 4.36403 18.0002 4.50948C17.8547 4.65494 17.8547 4.87312 18.0002 5.01857C18.9093 5.96403 19.6366 7.12766 20.0366 8.43675Z" fill="#A594F9"/>
</g>
<defs>
<clipPath id="clip0_28_3603">
<rect width="24" height="24" fill="white"/>
</clipPath>
</defs>
</svg>
