<svg width="24" height="24" viewBox="0 0 24 24" fill="none" xmlns="http://www.w3.org/2000/svg">
<g clip-path="url(#clip0_27_2497)">
<path d="M7.23361 15.9507C6.95911 15.6762 6.95897 15.2311 7.23337 14.9565C7.50783 14.6818 7.953 14.6815 8.22773 14.956L10.3596 17.0859L11.3167 16.1301L9.1867 14.0021L9.18647 14.0019C8.91197 13.7274 8.91183 13.2824 9.18623 13.0078C9.46069 12.733 9.90591 12.7328 10.1806 13.0072L12.3119 15.1365L13.269 14.1807L11.1396 12.0533L11.1394 12.0531C10.8649 11.7786 10.8647 11.3336 11.1391 11.0589C11.4136 10.7842 11.8588 10.784 12.1335 11.0585L14.264 13.187L15.2212 12.2312L13.0925 10.1045L13.0922 10.1042C12.8177 9.82972 12.8176 9.38469 13.092 9.11005C13.3665 8.83532 13.8116 8.83508 14.0864 9.10958L16.2162 11.2375L17.1734 10.2817L15.0453 8.15563L15.0451 8.15539C14.7706 7.88089 14.7705 7.43586 15.0449 7.16122C15.3193 6.88649 15.7645 6.88625 16.0392 7.16075L18.1684 9.28799L19.1256 8.33216L16.9982 6.20675L16.998 6.20652C16.7235 5.93202 16.7233 5.48699 16.9977 5.21235C17.2722 4.93761 17.7173 4.93738 17.9921 5.21188L20.1206 7.33846L21.0081 6.45224C21.2925 6.16818 21.4492 5.79036 21.4492 5.38846C21.4492 4.9865 21.2931 4.61075 21.0081 4.32472L17.117 0.43916C16.5307 -0.146355 15.5767 -0.146402 14.9903 0.439113L0.441141 14.9682C0.156703 15.2522 4.6875e-05 15.6299 0 16.0318C0 16.4334 0.156328 16.8109 0.440391 17.095L0.441094 17.0957L4.33219 20.9813C4.9185 21.5668 5.8725 21.5668 6.45886 20.9813L7.41234 20.0292L5.28094 17.8998L5.2807 17.8996C5.0062 17.6251 5.00611 17.18 5.28047 16.9054C5.55492 16.6307 6.00009 16.6304 6.27483 16.9049L8.40736 19.0355L9.3645 18.0797L7.2338 15.9509L7.23361 15.9507Z" fill="#F73D58"/>
<path d="M23.2968 9.59717H20.7069C20.3186 9.59712 20.0038 9.91198 20.0038 10.3003C20.0038 10.4944 20.0825 10.6702 20.2097 10.7975C20.337 10.9248 20.5128 11.0034 20.7069 11.0034H21.5976L10.9851 21.601V20.7105C10.9851 20.3222 10.6703 20.0074 10.282 20.0074C9.89367 20.0074 9.57886 20.3222 9.57886 20.7105V23.2969C9.57881 23.4834 9.65292 23.6622 9.78478 23.7941C9.91664 23.926 10.0955 24.0001 10.2819 24L12.8718 24C13.2602 24 13.575 23.6852 13.575 23.2969C13.575 22.9085 13.2601 22.5937 12.8718 22.5937H11.9812L22.5937 11.9961V12.8865C22.5937 13.2748 22.9085 13.5897 23.2968 13.5897C23.6851 13.5897 24 13.2748 24 12.8865V10.3003C24 9.91203 23.6851 9.59717 23.2968 9.59717Z" fill="#F73D58"/>
</g>
<defs>
<clipPath id="clip0_27_2497">
<rect width="24" height="24" fill="white"/>
</clipPath>
</defs>
</svg>
