<svg width="24" height="24" viewBox="0 0 24 24" fill="none" xmlns="http://www.w3.org/2000/svg">
<g clip-path="url(#clip0_27_2410)">
<mask id="mask0_27_2410" style="mask-type:luminance" maskUnits="userSpaceOnUse" x="0" y="0" width="24" height="24">
<path d="M0.577881 0H23.6179V24H0.577881V0Z" fill="white"/>
</mask>
<g mask="url(#mask0_27_2410)">
<path d="M15.1001 18.169C15.0924 18.177 14.3436 19 12.1001 19C9.88823 19 9.12884 18.201 9.101 18.171C8.92916 17.967 8.6306 17.942 8.42996 18.118C8.2274 18.296 8.20148 18.612 8.37236 18.823C8.47028 18.944 9.40436 20 12.0991 20C14.7938 20 15.7279 18.943 15.8258 18.822C15.9938 18.614 15.9689 18.308 15.7721 18.128C15.5772 17.948 15.2758 17.969 15.1001 18.169ZM9.27092 14.724C9.3554 14.898 9.52436 15 9.70103 15C9.77303 15 9.84599 14.983 9.91511 14.947C10.1522 14.823 10.2482 14.523 10.1302 14.276C10.1052 14.224 9.50324 13 8.261 13C7.01876 13 6.41684 14.224 6.39188 14.276C6.2738 14.522 6.3698 14.819 6.605 14.944C6.83828 15.067 7.1282 14.971 7.24916 14.726C7.253 14.719 7.61684 13.999 8.261 13.999C8.90516 13.998 9.26804 14.719 9.27092 14.724ZM15.9401 13C14.6978 13 14.0959 14.224 14.071 14.276C13.9529 14.522 14.0489 14.819 14.2841 14.944C14.5183 15.067 14.8073 14.971 14.9282 14.726C14.9321 14.719 15.2959 13.999 15.9401 13.999C16.5842 13.999 16.9481 14.718 16.951 14.723C17.0354 14.898 17.2044 14.999 17.381 14.999C17.453 14.999 17.526 14.982 17.5951 14.946C17.8322 14.822 17.9282 14.522 17.8102 14.275C17.7842 14.224 17.1823 13 15.9401 13ZM21.2489 11C20.886 9.802 20.286 8.675 19.5122 7.688C19.687 7.316 19.7801 6.904 19.7801 6.5C19.7801 5.848 19.5833 5.329 19.4393 4.95C19.374 4.778 19.3001 4.582 19.3001 4.5C19.3001 4.418 19.374 4.222 19.4393 4.05C19.5833 3.671 19.7801 3.153 19.7801 2.5C19.7801 1.296 19.0294 0 17.3801 0C16.2828 0 15.3305 0.483 14.6018 1.114C15.415 1.94 15.9401 3.144 15.9401 4.5C15.9401 4.776 15.725 5 15.4601 5C15.1951 5 14.9801 4.776 14.9801 4.5C14.9801 4.239 14.9522 3.986 14.9071 3.741C14.8975 3.69 14.8812 3.644 14.8697 3.594C14.8255 3.395 14.7708 3.203 14.6997 3.019C14.6873 2.988 14.6719 2.959 14.6585 2.928C14.574 2.727 14.4761 2.538 14.3628 2.362C14.357 2.353 14.3503 2.344 14.3446 2.336C14.2178 2.143 14.0767 1.969 13.9202 1.812C13.422 1.313 12.7932 1 12.0991 1C11.405 1 10.7762 1.312 10.278 1.811C10.1215 1.968 9.98039 2.142 9.85367 2.335C9.84791 2.344 9.84119 2.352 9.83543 2.362C9.72215 2.539 9.62423 2.727 9.53972 2.928C9.52628 2.959 9.51092 2.988 9.49844 3.02C9.4274 3.203 9.37268 3.394 9.32852 3.594C9.317 3.643 9.30068 3.69 9.29108 3.742C9.24596 3.987 9.21812 4.24 9.21812 4.5C9.21812 4.776 9.00308 5 8.73812 5C8.47316 5 8.25812 4.776 8.25812 4.5C8.25812 3.143 8.7842 1.94 9.59636 1.115C8.86676 0.484 7.91444 0 6.81812 0C5.16884 0 4.41812 1.297 4.41812 2.5C4.41812 3.152 4.61492 3.671 4.75892 4.05C4.8242 4.222 4.89812 4.419 4.89812 4.5C4.89812 4.582 4.8242 4.778 4.75892 4.95C4.61492 5.329 4.41812 5.847 4.41812 6.5C4.41812 6.904 4.51124 7.315 4.68596 7.688C3.9122 8.675 3.31316 9.802 2.94932 11C1.63892 11.016 0.578125 12.131 0.578125 13.5C0.578125 14.78 1.50644 15.838 2.69876 15.983C3.59636 20.654 7.48628 24 12.0982 24C16.71 24 20.5999 20.653 21.4975 15.983C22.6898 15.839 23.6182 14.781 23.6182 13.5C23.6201 12.13 22.5593 11.016 21.2489 11ZM21.2335 15C21.2268 15 21.1308 14.988 21.1241 14.988C20.8908 14.974 20.6614 15.155 20.623 15.409C19.9577 19.807 16.373 22.999 12.1001 22.999C7.82708 22.999 4.24244 19.807 3.57716 15.409C3.53972 15.165 3.25076 14.998 3.0098 14.998C2.18708 14.987 1.54004 14.336 1.54004 13.499C1.54004 12.672 2.18612 11.999 2.98004 11.999C3.0626 11.999 3.14228 12.012 3.221 12.026C3.46388 12.065 3.70004 11.912 3.76436 11.662C4.05812 10.521 4.59284 9.441 5.30132 8.492C5.67956 8.801 6.17972 8.999 6.81908 8.999C8.2994 8.999 9.52148 8.124 10.278 7.188C10.7762 7.687 11.405 7.999 12.0991 7.999C12.7932 7.999 13.422 7.687 13.9202 7.188C14.6767 8.124 15.8988 8.999 17.3791 8.999C18.0185 8.999 18.5196 8.801 18.8969 8.492C19.6044 9.441 20.1401 10.521 20.4338 11.662C20.4981 11.912 20.7391 12.065 20.9772 12.026C21.0559 12.012 21.1366 11.999 21.2182 11.999C22.0121 11.999 22.6581 12.672 22.6581 13.499C22.6581 14.326 22.014 15 21.2335 15Z" fill="#FFBA33"/>
</g>
</g>
<defs>
<clipPath id="clip0_27_2410">
<rect width="24" height="24" fill="white"/>
</clipPath>
</defs>
</svg>
