<svg width="24" height="24" viewBox="0 0 24 24" fill="none" xmlns="http://www.w3.org/2000/svg">
<g clip-path="url(#clip0_27_2844)">
<path fill-rule="evenodd" clip-rule="evenodd" d="M8.63911 10.4482L7.13442 7.19043L5.62974 10.4482H8.63911ZM7.27505 6.07949C7.35474 6.1123 7.4063 6.17324 7.43911 6.24356L10.5282 12.9326C10.6079 13.1014 10.5329 13.3076 10.3641 13.3826C10.1954 13.4623 9.9938 13.3873 9.91411 13.2186L8.95317 11.1279H5.31567L4.35005 13.2186C4.27036 13.3873 4.07349 13.4623 3.90005 13.3826C3.7313 13.3029 3.6563 13.1014 3.73599 12.9326L6.82505 6.24356C6.90474 6.07012 7.1063 5.99512 7.27505 6.07949ZM9.9188 23.1514L13.8891 19.3545C13.9735 19.2795 14.0251 19.1717 14.011 19.0498L12.5672 7.47168L11.9813 2.78887L11.8594 1.80449C11.7985 1.3123 11.5876 0.857617 11.2641 0.529492C10.9501 0.21543 10.5282 0.0185547 10.0407 0.0185547H2.07661C1.57505 0.0185547 1.12036 0.224805 0.787549 0.55293C0.454736 0.881055 0.253174 1.34512 0.253174 1.84668V17.6061C0.253174 18.1076 0.459424 18.567 0.787549 18.8951C1.12036 19.2279 1.57505 19.4295 2.07661 19.4295H8.24536V21.6186C8.24536 22.2654 8.51255 22.8561 8.93911 23.2779C9.36567 23.7045 9.9563 23.9717 10.6032 23.9717H21.3938C22.0407 23.9717 22.6313 23.7045 23.0532 23.2779C23.4797 22.8514 23.7469 22.2607 23.7469 21.6186V6.33731C23.7469 5.69043 23.4844 5.0998 23.0532 4.67324C22.6266 4.24668 22.036 3.97949 21.3938 3.97949H12.8157L12.9001 4.65918H21.3938C21.8532 4.65918 22.2751 4.84668 22.5751 5.15137C22.8797 5.45605 23.0672 5.87324 23.0672 6.33731V21.6186C23.0672 22.0779 22.8797 22.4951 22.5751 22.7998C22.2704 23.1045 21.8532 23.292 21.3938 23.292H10.5985C10.3594 23.2967 10.1251 23.2451 9.9188 23.1514ZM14.8969 11.9529C14.7094 11.9529 14.5594 11.8029 14.5594 11.6154C14.5594 11.4279 14.7094 11.2732 14.8969 11.2732H17.6485V10.6357C17.6485 10.4482 17.7985 10.2982 17.986 10.2982C18.1735 10.2982 18.3282 10.4482 18.3282 10.6357V11.2732H21.0751C21.2626 11.2732 21.4172 11.4279 21.4172 11.6154C21.4172 11.8029 21.2626 11.9529 21.0751 11.9529H19.9313C19.9266 11.9998 19.9266 12.0467 19.9219 12.0936C19.9125 12.2436 19.8985 12.4029 19.8751 12.567C19.6969 13.9264 19.1532 15.1639 18.4032 16.0732C19.0079 16.6451 19.7063 16.9826 20.4141 16.9826C20.6016 16.9826 20.7516 17.1373 20.7516 17.3248C20.7516 17.5123 20.5969 17.6623 20.4141 17.6623C19.5282 17.6623 18.6704 17.2545 17.9438 16.5654C17.2172 17.2498 16.3594 17.6623 15.4735 17.6623C15.286 17.6623 15.136 17.5123 15.136 17.3248C15.136 17.1373 15.286 16.9826 15.4735 16.9826C16.1813 16.9826 16.8797 16.6451 17.4844 16.0686C16.8422 15.2904 16.3501 14.2732 16.111 13.1482C16.0688 12.9654 16.1907 12.7826 16.3735 12.7451C16.5563 12.7076 16.7391 12.8248 16.7766 13.0076C16.9876 13.992 17.4047 14.8779 17.9485 15.5623C18.5907 14.7514 19.0547 13.6686 19.2094 12.4779C19.2282 12.3373 19.2376 12.1967 19.2516 12.0514C19.2563 12.0186 19.2563 11.9857 19.2563 11.9482H17.9907H14.8969V11.9529Z" fill="#A594F9"/>
</g>
<defs>
<clipPath id="clip0_27_2844">
<rect width="24" height="24" fill="white"/>
</clipPath>
</defs>
</svg>
