<svg width="24" height="24" viewBox="0 0 24 24" fill="none" xmlns="http://www.w3.org/2000/svg">
<path fill-rule="evenodd" clip-rule="evenodd" d="M21.25 2.75H12.5V4.25H18.6893L9.96967 12.9697C9.67678 13.2626 9.67678 13.7374 9.96967 14.0303C10.2626 14.3232 10.7374 14.3232 11.0303 14.0303L19.75 5.31066V11.5H21.25V2.75Z" fill="#A594F9"/>
<path fill-rule="evenodd" clip-rule="evenodd" d="M6.37779 5.29718C6.89041 5.25072 7.55158 5.25 8.5 5.25C8.91421 5.25 9.25 4.91421 9.25 4.5C9.25 4.08579 8.91421 3.75 8.5 3.75L8.46421 3.75C7.55997 3.74999 6.83069 3.74998 6.2424 3.8033C5.63605 3.85826 5.10625 3.97455 4.625 4.25241C4.05493 4.58154 3.58154 5.05493 3.25241 5.625C2.97455 6.10625 2.85826 6.63605 2.8033 7.2424C2.74998 7.83069 2.74999 8.55995 2.75 9.46418V14.5549C2.74998 15.9225 2.74996 17.0248 2.86652 17.8918C2.98754 18.7919 3.24643 19.5497 3.84835 20.1517C4.45027 20.7536 5.20814 21.0125 6.10825 21.1335C6.97522 21.25 8.07754 21.25 9.44513 21.25H14.5358C15.44 21.25 16.1693 21.25 16.7576 21.1967C17.3639 21.1417 17.8937 21.0254 18.375 20.7476C18.9451 20.4185 19.4185 19.9451 19.7476 19.375C20.0254 18.8937 20.1417 18.3639 20.1967 17.7576C20.25 17.1693 20.25 16.44 20.25 15.5358L20.25 15.5C20.25 15.0858 19.9142 14.75 19.5 14.75C19.0858 14.75 18.75 15.0858 18.75 15.5C18.75 16.4484 18.7493 17.1096 18.7028 17.6222C18.6573 18.1245 18.5726 18.4101 18.4486 18.625C18.2511 18.967 17.967 19.2511 17.625 19.4486C17.4101 19.5726 17.1245 19.6573 16.6222 19.7028C16.1096 19.7493 15.4484 19.75 14.5 19.75H9.5C8.06458 19.75 7.06347 19.7484 6.30812 19.6469C5.57434 19.5482 5.18577 19.3678 4.90901 19.091C4.63225 18.8142 4.4518 18.4257 4.35315 17.6919C4.25159 16.9365 4.25 15.9354 4.25 14.5V9.5C4.25 8.55158 4.25072 7.89041 4.29718 7.37779C4.3427 6.87549 4.42737 6.5899 4.55144 6.375C4.74892 6.03296 5.03296 5.74892 5.375 5.55144C5.5899 5.42737 5.87548 5.34271 6.37779 5.29718Z" fill="#A594F9"/>
</svg>
