<svg width="24" height="24" viewBox="0 0 24 24" fill="none" xmlns="http://www.w3.org/2000/svg">
<g clip-path="url(#clip0_31_597)">
<path d="M5.01494 18.9852C4.74034 18.7106 4.29512 18.7106 4.02058 18.9852L0.205945 22.7999C-0.0686483 23.0745 -0.0686483 23.5196 0.205945 23.7942C0.480491 24.0688 0.925709 24.0689 1.2003 23.7942L5.01494 19.9796C5.28953 19.705 5.28953 19.2598 5.01494 18.9852Z" fill="#818182"/>
<path d="M23.7942 22.7999L19.9796 18.9852C19.7051 18.7106 19.2598 18.7106 18.9852 18.9852C18.7106 19.2598 18.7106 19.705 18.9852 19.9796L22.7999 23.7942C23.0744 24.0688 23.5196 24.0689 23.7942 23.7942C24.0688 23.5196 24.0688 23.0745 23.7942 22.7999Z" fill="#818182"/>
<path d="M5.01494 4.02058L1.2003 0.205945C0.925756 -0.0686483 0.480538 -0.0686483 0.205945 0.205945C-0.0686483 0.480538 -0.0686483 0.925709 0.205945 1.2003L4.02058 5.01494C4.29512 5.28953 4.74034 5.28958 5.01494 5.01494C5.28953 4.74034 5.28953 4.29517 5.01494 4.02058Z" fill="#818182"/>
<path d="M23.7942 0.205945C23.5197 -0.0686483 23.0745 -0.0686483 22.7999 0.205945L18.9852 4.02058C18.7106 4.29517 18.7106 4.74034 18.9852 5.01494C19.2597 5.28948 19.705 5.28953 19.9796 5.01494L23.7942 1.2003C24.0688 0.925709 24.0688 0.480538 23.7942 0.205945Z" fill="#818182"/>
<path d="M23.8353 11.5478C23.7733 11.474 22.2917 9.7191 20.1155 7.94001C17.1331 5.50186 14.4026 4.26562 12 4.26562C9.5973 4.26562 6.86683 5.50186 3.88447 7.94001C1.70825 9.7191 0.226675 11.474 0.164707 11.5478C-0.0549022 11.8093 -0.0549022 12.1907 0.164707 12.4522C0.226675 12.526 1.7083 14.2809 3.88447 16.06C6.86683 18.4981 9.5973 19.7343 12 19.7343C14.4026 19.7343 17.1331 18.4981 20.1155 16.06C22.2917 14.2809 23.7733 12.526 23.8353 12.4522C24.0549 12.1907 24.0549 11.8093 23.8353 11.5478ZM14.1093 12C14.1093 13.1631 13.1631 14.1094 12 14.1094C10.8369 14.1094 9.89059 13.1631 9.89059 12C9.89059 10.8369 10.8369 9.89061 12 9.89061C13.1631 9.89061 14.1093 10.8369 14.1093 12ZM12 16.9219C9.28605 16.9219 7.0781 14.7139 7.0781 12C7.0781 9.28607 9.28605 7.07812 12 7.07812C12.3883 7.07812 12.7031 7.39293 12.7031 7.78124C12.7031 8.16956 12.3883 8.48437 12 8.48437C10.0615 8.48437 8.48435 10.0615 8.48435 12C8.48435 13.9385 10.0615 15.5156 12 15.5156C13.9385 15.5156 15.5156 13.9385 15.5156 12C15.5156 11.6117 15.8304 11.2969 16.2187 11.2969C16.607 11.2969 16.9218 11.6117 16.9218 12C16.9218 14.7139 14.7139 16.9219 12 16.9219Z" fill="#818182"/>
</g>
<defs>
<clipPath id="clip0_31_597">
<rect width="24" height="24" fill="white"/>
</clipPath>
</defs>
</svg>
