<svg width="24" height="24" viewBox="0 0 24 24" fill="none" xmlns="http://www.w3.org/2000/svg">
<path d="M19.5998 4.39981C18.5098 3.31095 17.1988 2.46875 15.7553 1.93015C14.3119 1.39155 12.7696 1.16909 11.2328 1.27781C8.48491 1.51961 5.92973 2.79028 4.07867 4.83548C2.22761 6.88068 1.21724 9.54951 1.24979 12.3078V19.9998C1.25032 20.729 1.54022 21.4282 2.05583 21.9438C2.57144 22.4594 3.2706 22.7493 3.99979 22.7498H11.6918C14.4506 22.7828 17.1201 21.7726 19.1657 19.9212C21.2114 18.0699 22.4822 15.5142 22.7238 12.7658C22.8312 11.2291 22.6079 9.68718 22.069 8.24404C21.5301 6.80089 20.6881 5.49003 19.5998 4.39981ZM7.99979 9.24981H11.9998C12.1987 9.24981 12.3895 9.32883 12.5301 9.46948C12.6708 9.61013 12.7498 9.8009 12.7498 9.99981C12.7498 10.1987 12.6708 10.3895 12.5301 10.5301C12.3895 10.6708 12.1987 10.7498 11.9998 10.7498H7.99979C7.80087 10.7498 7.61011 10.6708 7.46946 10.5301C7.3288 10.3895 7.24979 10.1987 7.24979 9.99981C7.24979 9.8009 7.3288 9.61013 7.46946 9.46948C7.61011 9.32883 7.80087 9.24981 7.99979 9.24981ZM14.9998 14.7498H7.99979C7.80087 14.7498 7.61011 14.6708 7.46946 14.5301C7.3288 14.3895 7.24979 14.1987 7.24979 13.9998C7.24979 13.8009 7.3288 13.6101 7.46946 13.4695C7.61011 13.3288 7.80087 13.2498 7.99979 13.2498H14.9998C15.1987 13.2498 15.3895 13.3288 15.5301 13.4695C15.6708 13.6101 15.7498 13.8009 15.7498 13.9998C15.7498 14.1987 15.6708 14.3895 15.5301 14.5301C15.3895 14.6708 15.1987 14.7498 14.9998 14.7498Z" fill="#818182"/>
</svg>
