<svg width="24" height="24" viewBox="0 0 24 24" fill="none" xmlns="http://www.w3.org/2000/svg">
<g clip-path="url(#clip0_27_2905)">
<path d="M2.57812 24C4.00198 24 5.15625 22.8457 5.15625 21.4219C5.15625 19.998 4.00198 18.8438 2.57812 18.8438C1.15427 18.8438 0 19.998 0 21.4219C0 22.8457 1.15427 24 2.57812 24Z" fill="#FFBA33"/>
<path d="M12.2223 9.97359L12.7031 10.1338V7.59375H11.2969V10.1338L11.7777 9.97355C11.922 9.92545 12.078 9.92545 12.2223 9.97359Z" fill="#FFBA33"/>
<path d="M14.1094 11.1094C14.1094 11.5893 13.6392 11.9282 13.1839 11.7764L12 11.3818L10.8161 11.7765C10.3608 11.9282 9.89062 11.5893 9.89062 11.1094V7.59375H7.78125C7.39294 7.59375 7.07812 7.90856 7.07812 8.29688V16.7344C7.07812 17.1227 7.39294 17.4375 7.78125 17.4375H16.2188C16.6071 17.4375 16.9219 17.1227 16.9219 16.7344V8.29688C16.9219 7.90856 16.6071 7.59375 16.2188 7.59375H14.1094V11.1094Z" fill="#FFBA33"/>
<path d="M18.8436 11.8125H18.328V13.2188H18.8436C20.9114 13.2188 22.5936 14.901 22.5936 16.9688C22.5936 19.0365 20.9114 20.7188 18.8436 20.7188H6.49902C6.5399 20.9472 6.5624 21.1819 6.5624 21.4219C6.5624 21.6619 6.53985 21.8966 6.49902 22.125H18.8436C21.6868 22.125 23.9999 19.8119 23.9999 16.9688C23.9999 14.1256 21.6868 11.8125 18.8436 11.8125Z" fill="#FFBA33"/>
<path d="M1.40625 8.06248C1.40625 5.99473 3.0885 4.31248 5.15625 4.31248H13.115L12.4403 4.9872C12.1657 5.26179 12.1657 5.70696 12.4403 5.98155C12.7149 6.25615 13.1601 6.25615 13.4347 5.98155L15.3097 4.10655C15.5842 3.83196 15.5842 3.38679 15.3097 3.1122L13.4347 1.2372C13.1601 0.962602 12.7149 0.962602 12.4403 1.2372C12.1657 1.51179 12.1657 1.95696 12.4403 2.23155L13.115 2.90623H5.15625C2.31309 2.90623 0 5.21932 0 8.06248C0 10.9056 2.31309 13.2187 5.15625 13.2187H5.67188V11.8125H5.15625C3.0885 11.8125 1.40625 10.1302 1.40625 8.06248Z" fill="#FFBA33"/>
<path d="M19.9611 8.67272C20.0944 8.82136 20.2847 8.90625 20.4844 8.90625C20.6841 8.90625 20.8743 8.82136 21.0077 8.67272C21.0375 8.63958 21.7444 7.84945 22.4615 6.85238C23.4968 5.4128 24 4.32136 24 3.51562C24 1.57711 22.4229 0 20.4844 0C18.5459 0 16.9688 1.57711 16.9688 3.51562C16.9688 4.32136 17.472 5.4128 18.5073 6.85238C19.2243 7.84945 19.9313 8.63958 19.9611 8.67272ZM20.4844 2.8125C20.8727 2.8125 21.1875 3.12731 21.1875 3.51562C21.1875 3.90394 20.8727 4.21875 20.4844 4.21875C20.0961 4.21875 19.7812 3.90394 19.7812 3.51562C19.7812 3.12731 20.0961 2.8125 20.4844 2.8125Z" fill="#FFBA33"/>
</g>
<defs>
<clipPath id="clip0_27_2905">
<rect width="24" height="24" fill="white"/>
</clipPath>
</defs>
</svg>
