<svg width="24" height="24" viewBox="0 0 24 24" fill="none" xmlns="http://www.w3.org/2000/svg">
<path d="M6.32812 9.1875C8.26975 9.1875 9.84375 7.6135 9.84375 5.67188C9.84375 3.73025 8.26975 2.15625 6.32812 2.15625C4.3865 2.15625 2.8125 3.73025 2.8125 5.67188C2.8125 7.6135 4.3865 9.1875 6.32812 9.1875Z" fill="#FFBA33"/>
<path d="M17.6719 9.1875C19.6135 9.1875 21.1875 7.6135 21.1875 5.67188C21.1875 3.73025 19.6135 2.15625 17.6719 2.15625C15.7302 2.15625 14.1562 3.73025 14.1562 5.67188C14.1562 7.6135 15.7302 9.1875 17.6719 9.1875Z" fill="#FFBA33"/>
<path d="M19.0781 9.1875H12.7031V14.1094H9.84375C9.06708 14.1094 8.4375 14.739 8.4375 15.5156C8.4375 16.2922 9.06708 16.9219 9.84375 16.9219H12.7031V21.8438H16.9688V19.0312C16.9688 18.2546 17.5983 17.625 18.375 17.625C19.1517 17.625 19.7812 18.2546 19.7812 19.0312V21.8438H24V14.1094C24 11.3957 21.7918 9.1875 19.0781 9.1875Z" fill="#FFBA33"/>
<path d="M9.84375 18.3281C8.29261 18.3281 7.03125 17.0668 7.03125 15.5156C7.03125 13.9645 8.29261 12.7031 9.84375 12.7031H11.2969V9.1875H4.92188C2.20823 9.1875 0 11.3957 0 14.1094V21.8438H4.21875V19.0312C4.21875 18.2546 4.84833 17.625 5.625 17.625C6.40167 17.625 7.03125 18.2546 7.03125 19.0312V21.8438H11.2969V18.3281H9.84375Z" fill="#FFBA33"/>
</svg>
