<svg width="24" height="24" viewBox="0 0 24 24" fill="none" xmlns="http://www.w3.org/2000/svg">
<g clip-path="url(#clip0_27_2706)">
<path fill-rule="evenodd" clip-rule="evenodd" d="M10.3453 12.5825V12.6025C10.3453 12.7516 10.286 12.8947 10.1806 13.0002C10.0751 13.1057 9.932 13.165 9.78281 13.165C9.63363 13.165 9.49055 13.1057 9.38507 13.0002C9.27958 12.8947 9.22031 12.7516 9.22031 12.6025V12.5825C9.22031 12.4334 9.27958 12.2903 9.38507 12.1848C9.49055 12.0793 9.63363 12.02 9.78281 12.02C9.932 12.02 10.0751 12.0793 10.1806 12.1848C10.286 12.2903 10.3453 12.4334 10.3453 12.5825ZM7.37705 7.63019C7.27844 7.21086 7.2911 6.77304 7.41379 6.36012C7.53648 5.94719 7.76493 5.57349 8.07652 5.27604C8.3881 4.97858 8.77199 4.76771 9.19017 4.6643C9.60834 4.56089 10.0463 4.56855 10.4606 4.6865C10.8749 4.80445 11.2512 5.02861 11.5522 5.33677C11.8532 5.64492 12.0684 6.02638 12.1766 6.44334C12.2848 6.8603 12.2822 7.29829 12.169 7.71392C12.0558 8.12955 11.8359 8.50839 11.5312 8.81289L10.5572 9.787C10.488 9.85277 10.4334 9.93231 10.3969 10.0205C10.3604 10.1087 10.3429 10.2036 10.3454 10.299V11.01C10.3454 11.1592 10.2861 11.3022 10.1806 11.4077C10.0751 11.5132 9.93204 11.5725 9.78286 11.5725C9.63368 11.5725 9.4906 11.5132 9.38511 11.4077C9.27962 11.3022 9.22036 11.1592 9.22036 11.01V10.299C9.21823 10.0558 9.26506 9.81471 9.35807 9.59002C9.45107 9.36534 9.58835 9.16167 9.76172 8.99116L10.7356 8.017C10.9022 7.85102 11.0224 7.64436 11.0844 7.41755C11.1463 7.19074 11.1479 6.95167 11.0889 6.72406C11.0299 6.49646 10.9124 6.28824 10.7481 6.12008C10.5838 5.95191 10.3783 5.82966 10.1521 5.76545C9.92595 5.70124 9.6869 5.69731 9.45873 5.75404C9.23055 5.81078 9.02118 5.92621 8.85141 6.08887C8.68163 6.25153 8.55735 6.45577 8.49091 6.68132C8.42447 6.90686 8.41818 7.14586 8.47266 7.37458C8.50486 7.51925 8.47866 7.67078 8.39977 7.79624C8.32087 7.9217 8.19565 8.01095 8.05131 8.0446C7.90697 8.07825 7.75519 8.05358 7.62894 7.97595C7.5027 7.89832 7.41219 7.77399 7.37709 7.63L7.37705 7.63019ZM3.63047 14.9333C3.91656 14.9337 4.19083 15.0475 4.3931 15.2498C4.59538 15.4521 4.70914 15.7264 4.70944 16.0125V17.9695L7.83712 15.2244C8.03754 15.0389 8.30003 14.9351 8.57306 14.9333H18.4406V2.82489H1.125V14.9333H3.63047ZM22.9208 4.22561H19.5656V2.7791C19.5653 2.4929 19.4514 2.21852 19.249 2.01617C19.0466 1.81381 18.7722 1.7 18.486 1.69971H1.07906C0.792954 1.70014 0.518693 1.81401 0.316414 2.01635C0.114135 2.21869 0.000347146 2.49299 0 2.7791L0 14.9791C0.000347283 15.2652 0.114142 15.5395 0.316428 15.7418C0.518714 15.9441 0.792975 16.0579 1.07906 16.0583H3.58444V19.2116C3.5845 19.3198 3.61573 19.4256 3.67438 19.5165C3.73304 19.6073 3.81664 19.6794 3.91517 19.724C4.01371 19.7686 4.12301 19.7838 4.22998 19.7679C4.33696 19.752 4.43709 19.7056 4.51837 19.6342L5.71495 18.5838H15.4069C15.4105 18.5867 15.4154 18.5904 15.421 18.5955L19.4817 22.1599C19.563 22.2313 19.6631 22.2777 19.7701 22.2936C19.8771 22.3095 19.9864 22.2942 20.0849 22.2496C20.1835 22.205 20.267 22.1329 20.3257 22.042C20.3843 21.9512 20.4155 21.8453 20.4156 21.7371V18.584H22.9209C23.207 18.5836 23.4813 18.4698 23.6836 18.2675C23.8859 18.0652 23.9997 17.7909 24 17.5048V5.30482C23.9997 5.01871 23.8858 4.74442 23.6835 4.5421C23.4812 4.33979 23.207 4.22597 22.9208 4.22561Z" fill="#66A1F7"/>
</g>
<defs>
<clipPath id="clip0_27_2706">
<rect width="24" height="24" fill="white"/>
</clipPath>
</defs>
</svg>
