<svg width="24" height="24" viewBox="0 0 24 24" fill="none" xmlns="http://www.w3.org/2000/svg">
<g clip-path="url(#clip0_36_1046)">
<path fill-rule="evenodd" clip-rule="evenodd" d="M10.125 19.75C15.4407 19.75 19.75 15.4407 19.75 10.125C19.75 4.80926 15.4407 0.5 10.125 0.5C4.80926 0.5 0.5 4.80926 0.5 10.125C0.5 15.4407 4.80926 19.75 10.125 19.75ZM10.125 3.875C9.30424 3.875 8.49151 4.03666 7.73323 4.35075C6.97494 4.66484 6.28595 5.12522 5.70558 5.70558C5.12522 6.28595 4.66484 6.97494 4.35075 7.73323C4.03666 8.49151 3.875 9.30424 3.875 10.125C3.875 10.5392 4.21079 10.875 4.625 10.875C5.03921 10.875 5.375 10.5392 5.375 10.125C5.375 9.50122 5.49786 8.88355 5.73657 8.30725C5.97528 7.73096 6.32516 7.20732 6.76624 6.76624C7.20732 6.32516 7.73096 5.97528 8.30725 5.73657C8.88355 5.49786 9.50122 5.375 10.125 5.375C10.5392 5.375 10.875 5.03921 10.875 4.625C10.875 4.21079 10.5392 3.875 10.125 3.875Z" fill="#818182"/>
<path fill-rule="evenodd" clip-rule="evenodd" d="M19.0429 19.0429C19.4334 18.6524 20.0666 18.6524 20.4571 19.0429L23.2071 21.7929C23.5976 22.1834 23.5976 22.8166 23.2071 23.2071C22.8166 23.5976 22.1834 23.5976 21.7929 23.2071L19.0429 20.4571C18.6524 20.0666 18.6524 19.4334 19.0429 19.0429Z" fill="#818182"/>
</g>
<defs>
<clipPath id="clip0_36_1046">
<rect width="24" height="24" fill="white"/>
</clipPath>
</defs>
</svg>
