<svg width="25" height="25" viewBox="0 0 25 25" fill="none" xmlns="http://www.w3.org/2000/svg">
<path d="M7.0587 2.65916C7.31598 2.53052 7.62883 2.63481 7.75747 2.89209L8.84631 5.06977C9.77237 6.92189 10.2962 8.91948 10.4148 10.9375H14.5851C14.7038 8.91948 15.2275 6.92189 16.1536 5.06977L17.2424 2.89209C17.3711 2.63481 17.6839 2.53052 17.9412 2.65916C18.1985 2.78781 18.3028 3.10066 18.1741 3.35794L17.0853 5.53562C16.2325 7.24128 15.7461 9.07947 15.6287 10.9375H18.75C19.0376 10.9375 19.2708 11.1707 19.2708 11.4583C19.2708 11.746 19.0376 11.9792 18.75 11.9792H15.6015C15.6223 13.8721 16.0251 15.7638 16.8127 17.5359L18.1842 20.6218C18.3011 20.8847 18.1827 21.1925 17.9198 21.3093C17.657 21.4261 17.3492 21.3077 17.2324 21.0449L15.8608 17.9589C15.0133 16.0521 14.5806 14.0162 14.5598 11.9792H10.4401C10.4193 14.0162 9.9866 16.0521 9.1391 17.9589L7.76757 21.0449C7.65074 21.3077 7.34295 21.4261 7.0801 21.3093C6.81724 21.1925 6.69886 20.8847 6.81568 20.6218L8.18721 17.5359C8.97478 15.7638 9.37761 13.8721 9.39839 11.9792H6.24996C5.96231 11.9792 5.72913 11.746 5.72913 11.4583C5.72913 11.1707 5.96231 10.9375 6.24996 10.9375H9.37124C9.25385 9.07947 8.76745 7.24128 7.91462 5.53562L6.82578 3.35794C6.69714 3.10066 6.80142 2.78781 7.0587 2.65916Z" fill="#B91D7B"/>
</svg>
