<svg width="25" height="25" viewBox="0 0 25 25" fill="none" xmlns="http://www.w3.org/2000/svg">
<path fill-rule="evenodd" clip-rule="evenodd" d="M12.0492 3.125C10.8658 3.125 9.73082 3.59511 8.89401 4.43192C8.21133 5.1146 7.76848 6.0003 7.63194 6.95606L7.48968 7.95186C7.35284 8.90975 7.40316 9.88508 7.63784 10.8238L8.12148 12.7584C7.70377 12.5917 7.24801 12.5 6.77083 12.5C4.7573 12.5 3.125 14.1323 3.125 16.1458C3.125 18.1594 4.7573 19.7917 6.77083 19.7917C8.78437 19.7917 10.4167 18.1594 10.4167 16.1458C10.4167 15.1479 10.0157 14.2435 9.36606 13.5852C9.35431 13.4428 9.33099 13.3015 9.29629 13.1627L8.6484 10.5712C8.4464 9.76317 8.4031 8.92366 8.52088 8.09918L8.66314 7.10337C8.7678 6.37073 9.10727 5.6918 9.63058 5.16849C10.272 4.52703 11.142 4.16667 12.0492 4.16667H12.7743C13.215 4.16667 13.6516 4.25075 14.0607 4.41441L14.2045 4.47192C15.1469 4.84888 15.851 5.65547 16.0971 6.64017C16.4552 8.07254 16.3974 9.57733 15.9305 10.978L15.1246 13.3959L14.267 16.8262C14.1239 17.3987 14.1097 17.9958 14.2254 18.5744L14.277 18.8326C14.5089 19.9921 15.3108 20.9561 16.4087 21.3953C17.243 21.729 18.1737 21.729 19.0079 21.3953L19.1077 21.3554C20.1367 20.9438 20.9324 20.1 21.2828 19.0485L21.3274 18.9147C21.4184 18.6418 21.2709 18.3469 20.998 18.2559C20.7251 18.1649 20.4302 18.3124 20.3392 18.5853L20.2946 18.7191C20.041 19.4799 19.4654 20.0904 18.7208 20.3882L18.6211 20.4281C18.0351 20.6625 17.3815 20.6625 16.7956 20.4281C16.0245 20.1197 15.4613 19.4427 15.2985 18.6283L15.2468 18.3701C15.1614 17.9427 15.1719 17.5017 15.2776 17.0789L16.1254 13.6874L16.9188 11.3074C17.4483 9.71879 17.5138 8.01209 17.1077 6.38753C16.7804 5.07833 15.8443 4.00594 14.5914 3.50475L14.4476 3.44725C13.9154 3.23437 13.3475 3.125 12.7743 3.125H12.0492ZM9.50521 16.1458C9.50521 17.656 8.28099 18.8802 6.77083 18.8802C5.26068 18.8802 4.03646 17.656 4.03646 16.1458C4.03646 14.6357 5.26068 13.4115 6.77083 13.4115C8.28099 13.4115 9.50521 14.6357 9.50521 16.1458Z" fill="#B91D7B"/>
</svg>
