<svg width="25" height="25" viewBox="0 0 25 25" fill="none" xmlns="http://www.w3.org/2000/svg">
<path fill-rule="evenodd" clip-rule="evenodd" d="M13.0209 21.875C16.9937 21.875 20.4198 19.5339 21.9947 16.1559C22.5714 15.4411 22.9167 14.5317 22.9167 13.5417C22.9167 11.2405 21.0512 9.37501 18.75 9.37501C16.4488 9.37501 14.5833 11.2405 14.5833 13.5417C14.5833 15.8429 16.4488 17.7083 18.75 17.7083C19.1514 17.7083 19.5395 17.6516 19.9068 17.5457C18.2836 19.5511 15.802 20.8333 13.0209 20.8333C10.9307 20.8333 9.00974 20.1091 7.49516 18.8979C7.27608 18.6502 7.00311 18.3629 6.88449 18.319C6.78467 18.2821 6.68031 18.2619 6.58884 18.2619C6.30119 18.2619 6.068 18.495 6.068 18.7827C6.068 18.9508 6.14765 19.1003 6.27127 19.1955L6.25394 19.1998C8.02365 20.8589 10.4036 21.875 13.0209 21.875ZM21.1137 15.5859C21.588 15.0379 21.875 14.3233 21.875 13.5417C21.875 11.8158 20.4759 10.4167 18.75 10.4167C17.0241 10.4167 15.625 11.8158 15.625 13.5417C15.625 15.2676 17.0241 16.6667 18.75 16.6667C19.6896 16.6667 20.5323 16.252 21.1052 15.5957L21.1091 15.587L21.1137 15.5859Z" fill="#B91D7B"/>
<path fill-rule="evenodd" clip-rule="evenodd" d="M13.0209 2.08334C16.9012 2.08334 20.2599 4.31671 21.8817 7.56813C21.8963 7.63184 21.8817 7.47256 21.8817 7.56813C21.8817 7.85578 21.9393 8.33334 21.3542 8.33334C21.0665 8.33334 20.8333 7.81251 20.8333 7.81251V7.81251C20.8333 7.81003 20.8327 7.80759 20.8316 7.80541C19.3399 5.01982 16.4017 3.12501 13.0209 3.12501C9.61516 3.12501 6.65855 5.04785 5.17745 7.86714C5.79724 7.50147 6.51995 7.29168 7.29167 7.29168C9.59285 7.29168 11.4583 9.15716 11.4583 11.4583C11.4583 13.7595 9.59285 15.625 7.29167 15.625C5.21465 15.625 3.49259 14.1053 3.17679 12.1171L3.12617 12.1294C3.12542 12.0794 3.12505 12.0294 3.12505 11.9792C3.12505 11.8737 3.1267 11.7685 3.12998 11.6638C3.12667 11.5957 3.125 11.5272 3.125 11.4583C3.125 11.1323 3.16245 10.815 3.23329 10.5105C3.9428 5.74167 8.05462 2.08334 13.0209 2.08334ZM4.17262 11.6528C4.27302 13.2881 5.63108 14.5833 7.29167 14.5833C9.01756 14.5833 10.4167 13.1842 10.4167 11.4583C10.4167 9.73245 9.01756 8.33334 7.29167 8.33334C5.82426 8.33334 4.59309 9.34474 4.25722 10.7085C4.21268 11.0184 4.18419 11.3334 4.17262 11.6528Z" fill="#B91D7B"/>
</svg>
