<svg width="25" height="25" viewBox="0 0 25 25" fill="none" xmlns="http://www.w3.org/2000/svg">
<path d="M12.0833 9.23611C12.2916 8.95834 12.7083 8.95834 12.9166 9.23611L14.3749 11.1806C14.9999 12.0139 16.2499 12.0139 16.8749 11.1806L18.2551 9.34034C18.4746 9.04766 18.9195 9.06656 19.1134 9.3768L20.9124 12.2552C21.0649 12.4991 21.3862 12.5733 21.6302 12.4208C21.8741 12.2684 21.9482 11.9471 21.7958 11.7031L19.9968 8.82472C19.4151 7.894 18.0803 7.83731 17.4218 8.71534L16.0416 10.5556C15.8333 10.8333 15.4166 10.8333 15.2083 10.5556L13.7499 8.61111C13.1249 7.77778 11.8749 7.77778 11.2499 8.61111L9.79161 10.5556C9.58328 10.8333 9.16661 10.8333 8.95828 10.5556L7.57812 8.71534C6.91959 7.83731 5.58482 7.894 5.00312 8.82472L3.20412 11.7031C3.05166 11.9471 3.12581 12.2684 3.36974 12.4208C3.61367 12.5733 3.93499 12.4991 4.08745 12.2552L5.88645 9.3768C6.08035 9.06656 6.52528 9.04766 6.74479 9.34034L8.12495 11.1806C8.74995 12.0139 9.99995 12.0139 10.6249 11.1806L12.0833 9.23611Z" fill="#B91D7B"/>
<path d="M12.0833 14.9653C12.2916 14.6875 12.7083 14.6875 12.9166 14.9653L14.3749 16.9097C14.9999 17.7431 16.2499 17.7431 16.8749 16.9097L18.2551 15.0695C18.4746 14.7768 18.9195 14.7957 19.1134 15.106L20.9124 17.9844C21.0649 18.2283 21.3862 18.3025 21.6302 18.15C21.8741 17.9975 21.9482 17.6762 21.7958 17.4323L19.9968 14.5539C19.4151 13.6232 18.0803 13.5665 17.4218 14.4445L16.0416 16.2847C15.8333 16.5625 15.4166 16.5625 15.2083 16.2847L13.7499 14.3403C13.1249 13.5069 11.8749 13.5069 11.2499 14.3403L9.79161 16.2847C9.58328 16.5625 9.16661 16.5625 8.95828 16.2847L7.57812 14.4445C6.91959 13.5665 5.58482 13.6232 5.00312 14.5539L3.20412 17.4323C3.05166 17.6762 3.12581 17.9975 3.36974 18.15C3.61367 18.3025 3.93499 18.2283 4.08745 17.9844L5.88645 15.106C6.08035 14.7957 6.52528 14.7768 6.74479 15.0695L8.12495 16.9097C8.74995 17.7431 9.99995 17.7431 10.6249 16.9097L12.0833 14.9653Z" fill="#B91D7B"/>
</svg>
