<svg width="25" height="25" viewBox="0 0 25 25" fill="none" xmlns="http://www.w3.org/2000/svg">
<path fill-rule="evenodd" clip-rule="evenodd" d="M2.60413 4.16668C2.60413 3.87903 2.83731 3.64584 3.12496 3.64584H3.52395C5.0697 3.64584 6.56942 4.17192 7.77644 5.13754C8.40825 5.64298 8.94489 6.25702 9.36117 6.95082L9.81293 7.70375C10.1844 8.32288 10.487 8.98081 10.7153 9.66578L10.8704 10.1309C11.3869 9.97796 11.9338 9.89584 12.5 9.89584C13.0661 9.89584 13.613 9.97796 14.1295 10.1309L14.2846 9.66578C14.5129 8.98081 14.8155 8.32288 15.187 7.70375L15.6387 6.95082C16.055 6.25702 16.5917 5.64298 17.2235 5.13754C18.4305 4.17192 19.9302 3.64584 21.476 3.64584H21.875C22.1626 3.64584 22.3958 3.87903 22.3958 4.16668C22.3958 4.45433 22.1626 4.68751 21.875 4.68751H21.476C20.1668 4.68751 18.8965 5.13308 17.8742 5.95094C17.3391 6.37904 16.8846 6.89912 16.532 7.48676L16.0802 8.23968C15.7478 8.79364 15.4771 9.38231 15.2728 9.99518L15.0986 10.5177C16.9567 11.465 18.2291 13.3964 18.2291 15.625C18.2291 18.7891 15.6641 21.3542 12.5 21.3542C9.33583 21.3542 6.77079 18.7891 6.77079 15.625C6.77079 13.3964 8.04327 11.465 9.9013 10.5177L9.72712 9.99518C9.52283 9.38231 9.25208 8.79364 8.91971 8.23968L8.46795 7.48676C8.11537 6.89912 7.66085 6.37904 7.12572 5.95094C6.10339 5.13308 4.83316 4.68751 3.52395 4.68751H3.12496C2.83731 4.68751 2.60413 4.45433 2.60413 4.16668ZM12.5 20.3125C15.0888 20.3125 17.1875 18.2138 17.1875 15.625C17.1875 13.0362 15.0888 10.9375 12.5 10.9375C9.91113 10.9375 7.81246 13.0362 7.81246 15.625C7.81246 18.2138 9.91113 20.3125 12.5 20.3125Z" fill="#B91D7B"/>
</svg>
