<svg width="25" height="25" viewBox="0 0 25 25" fill="none" xmlns="http://www.w3.org/2000/svg">
<path d="M5.61506 3.8413C5.43536 3.61669 5.10761 3.58027 4.88299 3.75996C4.65837 3.93966 4.62196 4.26741 4.80165 4.49203L6.77085 6.95353V17.7083H7.81252V6.96029L9.50229 4.94499C9.71086 4.69623 10.0937 4.69681 10.3015 4.94619L11.9792 6.9594V17.7083H13.0209V6.9594L14.7041 4.93954C14.9123 4.68967 15.2961 4.68967 15.5043 4.93954L17.0668 6.81454C17.1448 6.90814 17.1875 7.02613 17.1875 7.14797V15.1024L17.1875 15.1042V17.5506C17.1875 18.0959 17.3489 18.629 17.6514 19.0826C18.1636 19.851 19.0259 20.3125 19.9494 20.3125H20.8333V21.6235C20.8333 21.7163 20.9456 21.7628 21.0112 21.6972L22.843 19.8653C22.8837 19.8246 22.8837 19.7587 22.843 19.718L21.0112 17.8862C20.9456 17.8205 20.8333 17.867 20.8333 17.9598V19.2708H19.9494C19.3742 19.2708 18.8371 18.9834 18.5181 18.5048C18.3297 18.2223 18.2292 17.8902 18.2292 17.5506L18.2292 7.14797C18.2292 6.78244 18.101 6.42848 17.867 6.14768L16.3045 4.27268C15.6799 3.52306 14.5285 3.52306 13.9038 4.27268L12.5 5.95726L11.1017 4.27934C10.4783 3.53119 9.32979 3.52946 8.70408 4.27571L7.30115 5.94892L5.61506 3.8413Z" fill="#B91D7B"/>
</svg>
