<svg width="24" height="25" viewBox="0 0 24 25" fill="none" xmlns="http://www.w3.org/2000/svg">
<path d="M3.58004 3.88411C3.72975 3.64265 4.03892 3.5732 4.27083 3.72883C4.27096 3.72891 4.27132 3.72916 4.00006 4.16668L3.7288 4.6042C3.49683 4.44814 3.43023 4.12575 3.58004 3.88411Z" fill="#B91D7B"/>
<path fill-rule="evenodd" clip-rule="evenodd" d="M8.50006 18.5817V6.41837C7.52878 6.21949 6.68641 5.95913 5.9918 5.69832C5.27627 5.42965 4.71658 5.16015 4.33303 4.95599C4.14121 4.85389 3.99328 4.76804 3.89177 4.70669C3.84101 4.67601 3.80185 4.65145 3.77458 4.63403L3.74265 4.61338L3.73345 4.60731L3.73055 4.60538L3.7288 4.6042C3.72863 4.60408 3.7288 4.6042 4.00006 4.16668L4.27083 3.72883L4.27554 3.73193L4.29749 3.74612C4.31798 3.75922 4.35013 3.77941 4.39363 3.8057C4.48063 3.85828 4.61294 3.9352 4.78806 4.02841C5.13838 4.21488 5.65934 4.46621 6.3309 4.71837C7.67433 5.22281 9.61664 5.72918 12.0001 5.72918C14.3835 5.72918 16.3258 5.22281 17.6692 4.71837C18.3408 4.46621 18.8617 4.21488 19.2121 4.02841C19.3872 3.9352 19.5195 3.85828 19.6065 3.8057C19.65 3.77941 19.6821 3.75922 19.7026 3.74612L19.7246 3.73193L19.7288 3.72916C19.9607 3.57333 20.2703 3.64257 20.4201 3.88411C20.5699 4.12575 20.5033 4.44814 20.2713 4.6042L20.0001 4.16668C20.2713 4.6042 20.2715 4.60408 20.2713 4.6042L20.2696 4.60538L20.2667 4.60731L20.2575 4.61338L20.2255 4.63403C20.1983 4.65145 20.1591 4.67601 20.1083 4.70669C20.0068 4.76804 19.8589 4.85389 19.6671 4.95599C19.2835 5.16015 18.7239 5.42965 18.0083 5.69832C17.3137 5.95913 16.4713 6.21949 15.5001 6.41837V18.5817C16.4713 18.7805 17.3137 19.0409 18.0083 19.3017C18.7239 19.5704 19.2835 19.8399 19.6671 20.044C19.8589 20.1461 20.0068 20.232 20.1083 20.2933C20.1591 20.324 20.1983 20.3486 20.2255 20.366L20.2575 20.3866L20.2667 20.3927L20.2696 20.3946L20.2706 20.3953C20.2708 20.3954 20.2713 20.3958 20.0001 20.8333L20.2706 20.3953C20.5026 20.5514 20.5699 20.8743 20.4201 21.1159C20.2703 21.3575 19.961 21.4269 19.7291 21.271L19.7246 21.2681L19.7026 21.2539C19.6821 21.2408 19.65 21.2206 19.6065 21.1943C19.5195 21.1417 19.3872 21.0648 19.2121 20.9716C18.8617 20.7851 18.3408 20.5338 17.6692 20.2817C16.3258 19.7772 14.3835 19.2708 12.0001 19.2708C9.61664 19.2708 7.67433 19.7772 6.3309 20.2817C5.65934 20.5338 5.13838 20.7851 4.78806 20.9716C4.61294 21.0648 4.48063 21.1417 4.39363 21.1943C4.35013 21.2206 4.31798 21.2408 4.29749 21.2539L4.27554 21.2681L4.27132 21.2709L4.00006 20.8333C3.7288 20.3958 3.72896 20.3957 3.72913 20.3956L3.73055 20.3946L3.73345 20.3927L3.74265 20.3866L3.77458 20.366C3.80185 20.3486 3.84101 20.324 3.89177 20.2933C3.99328 20.232 4.14121 20.1461 4.33303 20.044C4.71658 19.8399 5.27627 19.5704 5.9918 19.3017C6.68641 19.0409 7.52878 18.7805 8.50006 18.5817ZM9.50006 18.4075C10.2703 18.2966 11.1061 18.2292 12.0001 18.2292C12.894 18.2292 13.7298 18.2966 14.5001 18.4075V6.59254C13.7298 6.70347 12.894 6.77085 12.0001 6.77085C11.1061 6.77085 10.2703 6.70347 9.50006 6.59254V18.4075Z" fill="#B91D7B"/>
<path d="M4.27132 21.2709C4.27124 21.2709 4.27141 21.2708 4.27132 21.2709Z" fill="#B91D7B"/>
<path d="M4.27132 21.2709C4.03938 21.4267 3.7298 21.3575 3.58004 21.1159C3.43023 20.8743 3.49716 20.5517 3.72913 20.3956L4.00006 20.8333C4.27132 21.2709 4.27145 21.2708 4.27132 21.2709Z" fill="#B91D7B"/>
</svg>
