<svg width="25" height="25" viewBox="0 0 25 25" fill="none" xmlns="http://www.w3.org/2000/svg">
<path d="M16.1459 15.625C16.1459 15.3374 16.3791 15.1042 16.6667 15.1042H16.6341C17.9317 13.9589 18.75 12.2834 18.75 10.4167C18.75 6.96489 15.9518 4.16667 12.5 4.16667C9.04826 4.16667 6.25004 6.96489 6.25004 10.4167C6.25004 12.2834 7.0684 13.9589 8.36594 15.1042H8.33337C8.62102 15.1042 8.85421 15.3374 8.85421 15.625C8.85421 15.9126 8.62102 16.1458 8.33337 16.1458H4.16671C3.87906 16.1458 3.64587 15.9126 3.64587 15.625C3.64587 15.3374 3.87906 15.1042 4.16671 15.1042H6.91451C5.84972 13.8367 5.20837 12.2016 5.20837 10.4167C5.20837 6.38959 8.47296 3.125 12.5 3.125C16.5271 3.125 19.7917 6.38959 19.7917 10.4167C19.7917 12.2016 19.1504 13.8367 18.0856 15.1042H20.8334C21.121 15.1042 21.3542 15.3374 21.3542 15.625C21.3542 15.9126 21.121 16.1458 20.8334 16.1458H16.6667C16.3791 16.1458 16.1459 15.9126 16.1459 15.625Z" fill="#B91D7B"/>
<path d="M4.16671 19.2708C3.87906 19.2708 3.64587 19.504 3.64587 19.7917C3.64587 20.0793 3.87906 20.3125 4.16671 20.3125H20.8334C21.121 20.3125 21.3542 20.0793 21.3542 19.7917C21.3542 19.504 21.121 19.2708 20.8334 19.2708H4.16671Z" fill="#B91D7B"/>
</svg>
