<svg width="25" height="25" viewBox="0 0 25 25" fill="none" xmlns="http://www.w3.org/2000/svg">
<path fill-rule="evenodd" clip-rule="evenodd" d="M2.79962 3.75996C3.02423 3.58027 3.35199 3.61669 3.53168 3.8413L5.21777 5.94892L6.62071 4.27571C7.24642 3.52946 8.39492 3.53119 9.01837 4.27934L10.4166 5.95726L11.8205 4.27268C12.4451 3.52306 13.5965 3.52306 14.2212 4.27268L15.7837 6.14768C16.0177 6.42848 16.1458 6.78244 16.1458 7.14797V8.12813C16.4943 7.79404 16.7965 7.52615 17.0801 7.32358C17.6171 6.93998 18.1123 6.77083 18.75 6.77083C19.1619 6.77083 19.6293 6.96523 20.045 7.28644C20.4728 7.61702 20.8843 8.1097 21.179 8.77284C21.7724 10.1079 21.8739 12.0822 20.7961 14.7768C20.0095 16.7431 18.7571 18.0549 17.4437 18.9056C17.9935 19.3374 18.7661 19.6745 19.8492 19.7949C20.135 19.8266 20.3411 20.0841 20.3093 20.37C20.2775 20.6559 20.02 20.8619 19.7341 20.8301C18.2623 20.6666 17.2086 20.1423 16.4798 19.4475C15.1504 20.0902 13.8593 20.3125 13.0208 20.3125C12.7332 20.3125 12.5 20.0793 12.5 19.7917C12.5 19.504 12.7332 19.2708 13.0208 19.2708C13.6897 19.2708 14.7167 19.1004 15.7996 18.6162C15.7984 18.6143 15.7972 18.6124 15.796 18.6105C15.1352 17.559 15.0128 16.3839 15.1041 15.5938V7.14797C15.1041 7.02613 15.0614 6.90814 14.9834 6.81454L13.4209 4.93954C13.2127 4.68967 12.8289 4.68967 12.6207 4.93954L10.9375 6.9594V17.7083C10.9375 17.996 10.7043 18.2292 10.4166 18.2292C10.129 18.2292 9.89581 17.996 9.89581 17.7083V6.9594L8.21814 4.94619C8.01032 4.69681 7.62749 4.69623 7.41892 4.94499L5.72914 6.96029V17.7083C5.72914 17.996 5.49596 18.2292 5.20831 18.2292C4.92066 18.2292 4.68748 17.996 4.68748 17.7083V6.95353L2.71828 4.49203C2.53858 4.26741 2.575 3.93966 2.79962 3.75996ZM16.1458 15.6316C16.1459 15.6268 16.1459 15.6219 16.1458 15.6171L16.1458 9.5908C16.8521 8.88529 17.3006 8.44616 17.6855 8.17121C18.0599 7.90377 18.346 7.8125 18.75 7.8125C18.8589 7.8125 19.1076 7.87852 19.4081 8.11069C19.6964 8.3335 20.0011 8.68717 20.2272 9.1959C20.6755 10.2046 20.8344 11.8761 19.8289 14.3899C19.1045 16.2009 17.9324 17.3817 16.724 18.1275C16.7083 18.1038 16.6929 18.08 16.6779 18.0562C16.2769 17.418 16.1308 16.7107 16.1197 16.1458H16.1458V15.6316Z" fill="#B91D7B"/>
</svg>
