<svg width="25" height="25" viewBox="0 0 25 25" fill="none" xmlns="http://www.w3.org/2000/svg">
<path fill-rule="evenodd" clip-rule="evenodd" d="M2.98544 3.48188C3.07602 3.22102 3.36092 3.08297 3.62178 3.17355L4.39121 3.44071C4.94754 3.63388 5.45117 3.95868 5.86301 4.38768C6.30614 4.84928 6.62555 5.41286 6.80117 6.0237L7.67949 4.88006C7.96349 4.51027 8.30118 4.18757 8.68103 3.92378C9.41014 3.41745 10.2691 3.14589 11.1495 3.14589H11.646C12.261 3.14589 12.8666 3.29508 13.4148 3.58058L13.6726 3.71487C14.4439 4.11656 15.0243 4.81749 15.2932 5.65784C15.4023 5.99861 15.4578 6.35509 15.4578 6.71368V13.1969C15.4578 13.4 15.4739 13.6027 15.5059 13.8029L15.7391 15.2602L15.8632 15.0824C16.0008 14.8853 16.1532 14.6995 16.319 14.5268L16.8502 13.9734C17.4205 13.3794 18.1984 13.0417 19.014 13.0417H19.0423C20.106 13.0417 21.0816 13.6231 21.6193 14.5565C22.1833 15.5357 22.1833 16.7561 21.6193 17.7353C21.0816 18.6687 20.106 19.2501 19.0423 19.2501H18.7253C17.7744 19.2501 16.8667 18.8564 16.2008 18.1627L15.9695 17.9217C15.7976 17.7427 15.6415 17.5501 15.5023 17.3462L13.2019 20.6411C12.9371 21.0203 12.5873 21.3297 12.1806 21.5415C11.7865 21.7468 11.3506 21.8542 10.9078 21.8542H8.95778C8.68164 21.8542 8.45778 21.6304 8.45778 21.3542C8.45778 21.0781 8.68164 20.8542 8.95778 20.8542H10.9078C11.1884 20.8542 11.4659 20.7862 11.7187 20.6546C11.9797 20.5186 12.2076 20.3183 12.3819 20.0686L14.9854 16.3397C14.8839 16.0622 14.8085 15.7737 14.7612 15.478L14.5185 13.9609C14.4781 13.7083 14.4578 13.4528 14.4578 13.1969V6.71368C14.4578 6.45812 14.4182 6.20447 14.3408 5.96261C14.1497 5.36529 13.7407 4.87781 13.2107 4.60178L12.9529 4.4675C12.5461 4.25563 12.0987 4.14589 11.646 4.14589H11.1495C10.4758 4.14589 9.81539 4.35351 9.25142 4.74515C8.95738 4.94935 8.69454 5.20016 8.47259 5.48916L6.95778 7.46157V14.5834C6.95778 14.8595 6.73392 15.0834 6.45778 15.0834C6.18164 15.0834 5.95778 14.8595 5.95778 14.5834V7.13675C5.95778 6.3617 5.66201 5.62229 5.14162 5.08021C4.83725 4.76317 4.46776 4.52586 4.0632 4.38539L3.29377 4.11823C3.03291 4.02765 2.89486 3.74275 2.98544 3.48188ZM16.1275 16.4507C16.2791 16.7352 16.4684 16.9974 16.6909 17.2292L16.9222 17.4702C17.404 17.9721 18.0531 18.2501 18.7253 18.2501H19.0423C19.7349 18.2501 20.3868 17.8715 20.7528 17.2362C21.1388 16.5659 21.1388 15.7258 20.7528 15.0556C20.3868 14.4203 19.7349 14.0417 19.0423 14.0417H19.014C18.4771 14.0417 17.9578 14.2637 17.5716 14.666L17.0404 15.2193C16.9107 15.3544 16.7913 15.5 16.6831 15.6548L16.1275 16.4507Z" fill="#B91D7B"/>
</svg>
