<svg width="25" height="25" viewBox="0 0 25 25" fill="none" xmlns="http://www.w3.org/2000/svg">
<path d="M20.2729 3.96731C20.2475 3.90588 20.2098 3.84833 20.1599 3.79839L19.7916 3.64584H11.4583C11.1706 3.64584 10.9375 3.87903 10.9375 4.16668C10.9375 4.45433 11.1706 4.68751 11.4583 4.68751H18.5342L8.85413 14.3676L5.57658 11.0901C5.37318 10.8867 5.04341 10.8867 4.84001 11.0901C4.63661 11.2935 4.63661 11.6232 4.84001 11.8266L8.11756 15.1042L2.75667 20.4651C2.55328 20.6685 2.55328 20.9982 2.75667 21.2016C2.96007 21.405 3.28985 21.405 3.49324 21.2016L8.85413 15.8407L12.1317 19.1183C12.3351 19.3217 12.6648 19.3217 12.8682 19.1183C13.0716 18.9149 13.0716 18.5851 12.8682 18.3817L9.5907 15.1042L19.2708 5.42408V11.9792C19.2708 12.2668 19.504 12.5 19.7916 12.5C20.0793 12.5 20.3125 12.2668 20.3125 11.9792V4.16668C20.3125 4.09606 20.2984 4.02872 20.2729 3.96731Z" fill="#B91D7B"/>
</svg>
