<svg width="25" height="25" viewBox="0 0 25 25" fill="none" xmlns="http://www.w3.org/2000/svg">
<path d="M14.3088 4.90895C15.4796 3.52988 16.6425 2.94797 17.565 2.72599C18.0223 2.61594 18.4101 2.59686 18.6969 2.60626C18.8403 2.61096 18.9571 2.62273 19.0423 2.63323C19.076 2.63738 19.1059 2.64149 19.1268 2.64436L19.1396 2.64613L19.1441 2.64673C19.8312 2.65464 20.6219 2.96939 21.2413 3.48008C21.8764 4.0038 22.3958 4.78908 22.3958 5.76569C22.3958 6.60111 22.2489 7.3654 21.8265 8.00228C21.3991 8.64669 20.7335 9.09522 19.8252 9.38051C19.5508 9.46671 19.2584 9.31412 19.1722 9.03969C19.086 8.76526 19.2386 8.47292 19.513 8.38672C20.2592 8.15236 20.6965 7.8214 20.9584 7.42651C21.2253 7.02407 21.3542 6.48923 21.3542 5.76569C21.3542 5.18333 21.0464 4.66947 20.5786 4.28379C20.103 3.89165 19.5274 3.68824 19.1176 3.68824C19.0686 3.68824 19.014 3.68041 19.0014 3.6786L18.9992 3.67829L18.9821 3.67594C18.9616 3.67312 18.9406 3.67024 18.9149 3.66708C18.8519 3.65931 18.7672 3.65079 18.6628 3.64737C18.454 3.64053 18.1612 3.65392 17.8087 3.73875C17.1115 3.90651 16.138 4.3639 15.1029 5.58311C14.3855 6.42813 13.8609 7.56806 13.516 8.68644C13.1711 9.80483 13.0208 10.8522 13.0208 11.4819V21.875C13.0208 22.1626 12.7876 22.3958 12.5 22.3958C12.2124 22.3958 11.9792 22.1626 11.9792 21.875V11.4583C11.9792 10.8234 11.8366 9.77067 11.5104 8.64804C11.1838 7.52458 10.6875 6.38062 10.01 5.53368C9.03288 4.31233 8.11856 3.85973 7.47245 3.69473C7.1452 3.61116 6.87409 3.59812 6.68156 3.60482C6.58519 3.60817 6.50708 3.61651 6.44881 3.62413C6.42504 3.62724 6.40571 3.63006 6.38638 3.63288L6.36997 3.63526L6.36856 3.63548C6.35838 3.63705 6.30159 3.64582 6.25 3.64582C5.88033 3.64582 5.34683 3.84236 4.90026 4.2331C4.46355 4.61523 4.16667 5.13266 4.16667 5.72916C4.16667 6.45889 4.28939 7.0001 4.54323 7.40624C4.79044 7.80179 5.19934 8.12854 5.89387 8.36005C6.16676 8.45101 6.31424 8.74597 6.22327 9.01886C6.13231 9.29175 5.83735 9.43923 5.56446 9.34826C4.69649 9.05894 4.06372 8.60444 3.6599 7.95832C3.26269 7.3228 3.125 6.56192 3.125 5.72916C3.125 4.76315 3.60937 3.9785 4.21432 3.44917C4.80076 2.93603 5.55567 2.61364 6.2206 2.60436L7.73018 2.68545C8.61374 2.91108 9.71712 3.50015 10.8234 4.88296C11.6182 5.87654 12.1636 7.16314 12.5106 8.35733C12.5134 8.3667 12.5161 8.37605 12.5188 8.38541C12.5194 8.38342 12.52 8.38143 12.5206 8.37944C12.8889 7.18542 13.4672 5.90028 14.3088 4.90895Z" fill="#B91D7B"/>
</svg>
