<svg width="24" height="24" viewBox="0 0 24 24" fill="none" xmlns="http://www.w3.org/2000/svg">
<path d="M13.3007 15.9797C13.2007 16.0408 13.074 16.0376 12.9773 15.9711L9.35285 13.4848L3.61938 15.3782V22.3845H7.19813L7.19693 18.5357C7.19693 18.3711 7.33016 18.2377 7.49476 18.2377C7.65916 18.2377 7.79239 18.3709 7.79239 18.5353L7.79359 22.3819L15.8775 22.3845H18.5092L18.4953 18.4939C18.4945 18.3295 18.6273 18.1957 18.7917 18.1949H18.7929C18.9569 18.1949 19.0899 18.3275 19.0907 18.4917L19.1047 22.3847H22.6719V15.3728L17.3894 13.4844L13.3007 15.9797Z" fill="#FFBA33"/>
<path d="M9.2338 5.12145C12.7682 4.61648 14.5476 2.31095 14.9061 1.79339C14.4477 1.63379 13.9559 1.5459 13.4436 1.5459C11.2497 1.5459 9.42176 3.13692 9.04883 5.22512C9.09417 5.17099 9.15809 5.13203 9.2338 5.12145Z" fill="#FFBA33"/>
<path d="M13.4434 10.4768C15.9058 10.4768 17.9087 8.47374 17.9087 6.01161C17.9087 5.48906 17.8178 4.98768 17.6522 4.52146C16.8406 4.72121 16.0979 4.78893 15.4667 4.78893C14.2145 4.78893 13.3997 4.52446 13.3493 4.50768C13.2433 4.47232 13.1718 4.38303 13.1522 4.28076C12.1986 4.90838 10.9327 5.48007 9.31776 5.71078C9.30358 5.71278 9.2892 5.71378 9.27521 5.71378C9.15636 5.71378 9.05049 5.64167 9.00375 5.5344C8.98717 5.69121 8.97778 5.85041 8.97778 6.01141C8.97818 8.47374 10.9813 10.4768 13.4434 10.4768Z" fill="#FFBA33"/>
<path d="M22.0765 10.1797C22.0765 9.68712 21.676 9.28662 21.1836 9.28662C20.691 9.28662 20.2903 9.68712 20.2903 10.1797C20.2903 10.6721 20.691 11.0726 21.1836 11.0726C21.676 11.0726 22.0765 10.6721 22.0765 10.1797Z" fill="#FFBA33"/>
<path d="M5.31303 10.385C5.32042 9.98073 5.34199 9.59841 5.36257 9.22607C5.43668 7.90492 5.4952 6.86142 4.81145 6.17747C4.59253 5.95874 4.30109 5.83789 3.99128 5.83789C3.68086 5.83789 3.38863 5.95914 3.1691 6.17887C2.77978 6.56818 2.73464 6.93253 2.98313 7.6786C3.01889 7.78547 2.99092 7.90352 2.91122 7.98342C2.83132 8.06292 2.71367 8.09069 2.6066 8.05513C2.29139 7.95006 2.05229 7.90092 1.85414 7.90092C1.56869 7.90092 1.34497 8.0028 1.10667 8.2411C0.887939 8.46003 0.76709 8.75146 0.76709 9.06168C0.76709 9.37169 0.887939 9.66313 1.10667 9.88226C1.52954 10.3047 2.09104 10.4771 3.04485 10.4771C3.38883 10.4771 3.76156 10.4563 4.15627 10.4344C4.52781 10.4138 4.90973 10.3926 5.31303 10.385Z" fill="#FFBA33"/>
<path d="M23.0776 3.069C22.9434 2.93477 22.8249 2.88004 22.6683 2.88004C22.5521 2.88004 22.4079 2.91 22.2149 2.97412C22.1078 3.00988 21.9902 2.98211 21.9103 2.90241C21.8306 2.82271 21.8026 2.70466 21.8384 2.59759C22.0026 2.105 21.9418 1.93322 21.7435 1.73506C21.6218 1.61321 21.4596 1.5459 21.2871 1.5459C21.1147 1.5459 20.9525 1.61321 20.8306 1.73506C20.4213 2.14435 20.4561 2.76638 20.504 3.62751C20.5158 3.83785 20.5278 4.05318 20.534 4.2789C20.7601 4.28509 20.9758 4.29707 21.1868 4.30886C21.4409 4.32304 21.681 4.33642 21.9011 4.33642C22.4862 4.33642 22.8273 4.23415 23.0786 3.98286C23.3301 3.73118 23.3297 3.32129 23.0776 3.069Z" fill="#FFBA33"/>
<path d="M13.6047 3.96285C13.9349 4.05513 15.4608 4.42247 17.4112 3.96684C16.9811 3.13548 16.2978 2.45652 15.4638 2.03125C15.3428 2.22261 14.7531 3.10032 13.6047 3.96285Z" fill="#FFBA33"/>
</svg>
