<svg width="988" height="70" viewBox="0 0 988 70" fill="none" xmlns="http://www.w3.org/2000/svg">
<g clip-path="url(#clip0_115_4138)">
<path d="M11.7874 8.59361C11.6872 10.322 12.1302 12.0066 12.5215 13.4926C12.5866 13.74 12.6512 13.9855 12.7125 14.2278C12.9481 15.162 13.2018 16.0741 13.4475 16.9553C13.6875 17.8167 13.9353 18.7073 14.1607 19.6L14.5738 21.2368L16.226 20.8905C17.1265 20.7019 18.0353 20.5346 18.9145 20.3725C19.8147 20.2068 20.7457 20.0351 21.6893 19.8372C21.9336 19.7858 22.1824 19.7366 22.4333 19.6867C23.941 19.3868 25.6494 19.0465 27.1588 18.1987C29.2558 17.0206 30.5205 14.9241 30.5418 12.5905C30.5629 10.2961 29.5595 8.38765 27.7173 7.21707C26.6271 6.52397 25.3587 6.16536 24.0441 6.17087L23.988 6.17088L23.9658 6.12517C23.3995 4.95136 22.532 3.97695 21.4548 3.3038C21.4408 3.29507 21.4272 3.28658 21.4129 3.2776C19.5532 2.13497 17.3981 2.06976 15.3451 3.09452C13.257 4.13669 11.9271 6.19244 11.7874 8.59361Z" fill="url(#paint0_linear_115_4138)"/>
<path d="M21.7796 45.5716C21.6793 47.3 22.1224 48.9846 22.5136 50.4706C22.5787 50.718 22.6434 50.9635 22.7047 51.2058C22.9403 52.1401 23.194 53.0522 23.4396 53.9333C23.6797 54.7947 23.9275 55.6853 24.1529 56.578L24.566 58.2148L26.2181 57.8686C27.1187 57.6799 28.0275 57.5126 28.9066 57.3505C29.8069 57.1849 30.7379 57.0131 31.6815 56.8152C31.9258 56.7638 32.1746 56.7147 32.4255 56.6647C33.9332 56.3648 35.6415 56.0245 37.151 55.1767C39.248 53.9987 40.5127 51.9022 40.534 49.5685C40.5551 47.2741 39.5517 45.3657 37.7095 44.1951C36.6193 43.502 35.3509 43.1434 34.0363 43.1489L33.9802 43.1489L33.958 43.1032C33.3917 41.9294 32.5242 40.955 31.447 40.2818C31.433 40.2731 31.4194 40.2646 31.405 40.2556C29.5453 39.113 27.3902 39.0478 25.3373 40.0725C23.2492 41.1147 21.9192 43.1705 21.7796 45.5716Z" fill="url(#paint1_linear_115_4138)"/>
<path d="M55.6507 19.0877C55.5504 20.8161 55.9935 22.5007 56.3847 23.9867C56.4498 24.2341 56.5145 24.4796 56.5757 24.7219C56.8114 25.6562 57.0651 26.5683 57.3107 27.4494C57.5508 28.3108 57.7986 29.2014 58.024 30.0942L58.4371 31.7309L60.0892 31.3847C60.9898 31.196 61.8986 31.0287 62.7777 30.8666C63.678 30.701 64.609 30.5292 65.5526 30.3313C65.7969 30.2799 66.0456 30.2308 66.2966 30.1808C67.8043 29.8809 69.5126 29.5406 71.0221 28.6929C73.1191 27.5148 74.3837 25.4183 74.4051 23.0846C74.4262 20.7902 73.4228 18.8818 71.5806 17.7112C70.4904 17.0181 69.222 16.6595 67.9074 16.665L67.8513 16.665L67.8291 16.6193C67.2628 15.4455 66.3953 14.4711 65.3181 13.7979C65.3041 13.7892 65.2905 13.7807 65.2761 13.7717C63.4164 12.6291 61.2613 12.5639 59.2084 13.5887C57.1202 14.6308 55.7903 16.6866 55.6507 19.0877Z" fill="url(#paint2_linear_115_4138)"/>
<path d="M114.299 11.3412C114.199 13.0695 114.642 14.7541 115.033 16.2401C115.098 16.4875 115.163 16.733 115.224 16.9754C115.46 17.9096 115.714 18.8217 115.959 19.7028C116.199 20.5643 116.447 21.4548 116.672 22.3476L117.085 23.9843L118.738 23.6381C119.638 23.4494 120.547 23.2822 121.426 23.1201C122.326 22.9544 123.257 22.7826 124.201 22.5847C124.445 22.5333 124.694 22.4842 124.945 22.4342C126.453 22.1343 128.161 21.7941 129.671 20.9463C131.767 19.7682 133.032 17.6717 133.054 15.338C133.075 13.0436 132.071 11.1352 130.229 9.96462C129.139 9.27153 127.87 8.91292 126.556 8.91843L126.5 8.91843L126.478 8.87273C125.911 7.69892 125.044 6.72451 123.966 6.05136C123.953 6.04263 123.939 6.03414 123.925 6.02516C122.065 4.88253 119.91 4.81732 117.857 5.84207C115.769 6.88425 114.439 8.94 114.299 11.3412Z" fill="url(#paint3_linear_115_4138)"/>
<path d="M97.5042 52.1097C97.4039 53.8381 97.847 55.5227 98.2383 57.0087C98.3033 57.2561 98.368 57.5016 98.4293 57.7439C98.6649 58.6782 98.9186 59.5903 99.1643 60.4714C99.4043 61.3328 99.6521 62.2234 99.8775 63.1161L100.291 64.7529L101.943 64.4066C102.843 64.218 103.752 64.0507 104.631 63.8886C105.531 63.723 106.463 63.5512 107.406 63.3533C107.65 63.3019 107.899 63.2527 108.15 63.2028C109.658 62.9029 111.366 62.5626 112.876 61.7148C114.973 60.5367 116.237 58.4402 116.259 56.1066C116.28 53.8122 115.276 51.9038 113.434 50.7332C112.344 50.0401 111.076 49.6815 109.761 49.687L109.705 49.687L109.683 49.6413C109.116 48.4675 108.249 47.4931 107.172 46.8199C107.158 46.8112 107.144 46.8027 107.13 46.7937C105.27 45.6511 103.115 45.5859 101.062 46.6106C98.9738 47.6528 97.6438 49.7086 97.5042 52.1097Z" fill="url(#paint4_linear_115_4138)"/>
<path d="M147.897 45.5716C147.797 47.3 148.24 48.9846 148.631 50.4706C148.696 50.718 148.761 50.9635 148.822 51.2058C149.057 52.1401 149.311 53.0522 149.557 53.9333C149.797 54.7947 150.045 55.6853 150.27 56.578L150.683 58.2148L152.335 57.8686C153.236 57.6799 154.145 57.5126 155.024 57.3505C155.924 57.1849 156.855 57.0131 157.799 56.8152C158.043 56.7638 158.292 56.7147 158.543 56.6647C160.05 56.3648 161.759 56.0245 163.268 55.1767C165.365 53.9987 166.63 51.9022 166.651 49.5685C166.672 47.2741 165.669 45.3657 163.827 44.1951C162.737 43.502 161.468 43.1434 160.154 43.1489L160.097 43.1489L160.075 43.1032C159.509 41.9294 158.641 40.955 157.564 40.2818C157.55 40.2731 157.537 40.2646 157.522 40.2556C155.663 39.113 153.507 39.0478 151.454 40.0725C149.366 41.1147 148.036 43.1705 147.897 45.5716Z" fill="url(#paint5_linear_115_4138)"/>
<path d="M170.676 8.59361C170.576 10.322 171.019 12.0066 171.41 13.4926C171.475 13.74 171.54 13.9855 171.601 14.2278C171.837 15.162 172.091 16.0741 172.336 16.9553C172.576 17.8167 172.824 18.7073 173.049 19.6L173.462 21.2368L175.115 20.8905C176.015 20.7019 176.924 20.5346 177.803 20.3725C178.703 20.2068 179.634 20.0351 180.578 19.8372C180.822 19.7858 181.071 19.7366 181.322 19.6867C182.83 19.3868 184.538 19.0465 186.047 18.1987C188.144 17.0206 189.409 14.9241 189.43 12.5905C189.452 10.2961 188.448 8.38765 186.606 7.21707C185.516 6.52397 184.247 6.16536 182.933 6.17087L182.877 6.17088L182.854 6.12517C182.288 4.95136 181.421 3.97695 180.343 3.3038C180.329 3.29507 180.316 3.28658 180.302 3.2776C178.442 2.13497 176.287 2.06976 174.234 3.09452C172.146 4.13669 170.816 6.19244 170.676 8.59361Z" fill="url(#paint6_linear_115_4138)"/>
<path d="M200.237 52.1097C200.136 53.8381 200.579 55.5227 200.971 57.0087C201.036 57.2561 201.1 57.5016 201.162 57.7439C201.397 58.6782 201.651 59.5903 201.897 60.4714C202.137 61.3328 202.385 62.2234 202.61 63.1161L203.023 64.7529L204.675 64.4066C205.576 64.218 206.485 64.0507 207.364 63.8886C208.264 63.723 209.195 63.5512 210.139 63.3533C210.383 63.3019 210.632 63.2527 210.882 63.2028C212.39 62.9029 214.099 62.5626 215.608 61.7148C217.705 60.5367 218.97 58.4402 218.991 56.1066C219.012 53.8122 218.009 51.9038 216.167 50.7332C215.076 50.0401 213.808 49.6815 212.493 49.687L212.437 49.687L212.415 49.6413C211.849 48.4675 210.981 47.4931 209.904 46.8199C209.89 46.8112 209.876 46.8027 209.862 46.7937C208.002 45.6511 205.847 45.5859 203.794 46.6106C201.706 47.6528 200.376 49.7086 200.237 52.1097Z" fill="url(#paint7_linear_115_4138)"/>
<path d="M230.707 19.0877C230.607 20.8161 231.05 22.5007 231.441 23.9867C231.506 24.2341 231.571 24.4796 231.632 24.7219C231.868 25.6562 232.122 26.5683 232.367 27.4494C232.607 28.3108 232.855 29.2014 233.081 30.0942L233.494 31.7309L235.146 31.3847C236.046 31.196 236.955 31.0287 237.834 30.8666C238.735 30.701 239.666 30.5292 240.609 30.3313C240.854 30.2799 241.102 30.2308 241.353 30.1808C242.861 29.8809 244.569 29.5406 246.079 28.6929C248.176 27.5148 249.44 25.4183 249.462 23.0846C249.483 20.7902 248.479 18.8818 246.637 17.7112C245.547 17.0181 244.279 16.6595 242.964 16.665L242.908 16.665L242.886 16.6193C242.319 15.4455 241.452 14.4711 240.375 13.7979C240.361 13.7892 240.347 13.7807 240.333 13.7717C238.473 12.6291 236.318 12.5639 234.265 13.5887C232.177 14.6308 230.847 16.6866 230.707 19.0877Z" fill="url(#paint8_linear_115_4138)"/>
<path d="M289.356 11.3412C289.256 13.0695 289.699 14.7541 290.09 16.2401C290.155 16.4875 290.22 16.733 290.281 16.9754C290.516 17.9096 290.77 18.8217 291.016 19.7028C291.256 20.5643 291.504 21.4548 291.729 22.3476L292.142 23.9843L293.794 23.6381C294.695 23.4494 295.604 23.2822 296.483 23.1201C297.383 22.9544 298.314 22.7826 299.258 22.5847C299.502 22.5333 299.751 22.4842 300.002 22.4342C301.509 22.1343 303.218 21.7941 304.727 20.9463C306.824 19.7682 308.089 17.6717 308.11 15.338C308.131 13.0436 307.128 11.1352 305.286 9.96462C304.195 9.27153 302.927 8.91292 301.612 8.91843L301.556 8.91843L301.534 8.87273C300.968 7.69892 300.1 6.72451 299.023 6.05136C299.009 6.04263 298.996 6.03414 298.981 6.02516C297.122 4.88253 294.966 4.81732 292.913 5.84207C290.825 6.88425 289.495 8.94 289.356 11.3412Z" fill="url(#paint9_linear_115_4138)"/>
<path d="M272.561 52.1097C272.461 53.8381 272.904 55.5227 273.295 57.0087C273.36 57.2561 273.425 57.5016 273.486 57.7439C273.722 58.6782 273.975 59.5903 274.221 60.4714C274.461 61.3328 274.709 62.2234 274.934 63.1161L275.347 64.7529L276.999 64.4066C277.9 64.218 278.809 64.0507 279.688 63.8886C280.588 63.723 281.519 63.5512 282.463 63.3533C282.707 63.3019 282.956 63.2527 283.207 63.2028C284.714 62.9029 286.423 62.5626 287.932 61.7148C290.029 60.5367 291.294 58.4402 291.315 56.1066C291.336 53.8122 290.333 51.9038 288.491 50.7332C287.401 50.0401 286.132 49.6815 284.818 49.687L284.761 49.687L284.739 49.6413C284.173 48.4675 283.305 47.4931 282.228 46.8199C282.214 46.8112 282.201 46.8027 282.186 46.7937C280.327 45.6511 278.171 45.5859 276.119 46.6106C274.03 47.6528 272.7 49.7086 272.561 52.1097Z" fill="url(#paint10_linear_115_4138)"/>
<path d="M322.953 46.6141C322.853 48.3425 323.296 50.0271 323.687 51.5131C323.753 51.7605 323.817 52.006 323.878 52.2483C324.114 53.1825 324.368 54.0947 324.613 54.9758C324.854 55.8372 325.101 56.7278 325.327 57.6205L325.74 59.2573L327.392 58.911C328.293 58.7224 329.201 58.5551 330.08 58.393C330.981 58.2274 331.912 58.0556 332.855 57.8577C333.1 57.8063 333.348 57.7571 333.599 57.7072C335.107 57.4073 336.815 57.067 338.325 56.2192C340.422 55.0411 341.686 52.9446 341.708 50.611C341.729 48.3166 340.726 46.4082 338.883 45.2376C337.793 44.5445 336.525 44.1859 335.21 44.1914L335.154 44.1914L335.132 44.1457C334.565 42.9719 333.698 41.9975 332.621 41.3243C332.607 41.3156 332.593 41.3071 332.579 41.2981C330.719 40.1555 328.564 40.0903 326.511 41.115C324.423 42.1572 323.093 44.2129 322.953 46.6141Z" fill="url(#paint11_linear_115_4138)"/>
<path d="M345.701 11.3412C345.601 13.0695 346.044 14.7541 346.436 16.2401C346.501 16.4875 346.565 16.733 346.627 16.9754C346.862 17.9096 347.116 18.8217 347.362 19.7028C347.602 20.5643 347.849 21.4548 348.075 22.3476L348.488 23.9843L350.14 23.6381C351.041 23.4494 351.949 23.2822 352.829 23.1201C353.729 22.9544 354.66 22.7826 355.603 22.5847C355.848 22.5333 356.096 22.4842 356.347 22.4342C357.855 22.1343 359.563 21.7941 361.073 20.9463C363.17 19.7682 364.435 17.6717 364.456 15.338C364.477 13.0436 363.474 11.1352 361.631 9.96462C360.541 9.27153 359.273 8.91292 357.958 8.91843L357.902 8.91843L357.88 8.87273C357.314 7.69892 356.446 6.72451 355.369 6.05136C355.355 6.04263 355.341 6.03414 355.327 6.02516C353.467 4.88253 351.312 4.81732 349.259 5.84207C347.171 6.88425 345.841 8.94 345.701 11.3412Z" fill="url(#paint12_linear_115_4138)"/>
<path d="M372.487 46.6141C372.386 48.3425 372.829 50.0271 373.221 51.5131C373.286 51.7605 373.35 52.006 373.412 52.2483C373.647 53.1825 373.901 54.0947 374.147 54.9758C374.387 55.8372 374.635 56.7278 374.86 57.6205L375.273 59.2573L376.925 58.911C377.826 58.7224 378.735 58.5551 379.614 58.393C380.514 58.2274 381.445 58.0556 382.389 57.8577C382.633 57.8063 382.882 57.7571 383.132 57.7072C384.64 57.4073 386.349 57.067 387.858 56.2192C389.955 55.0411 391.22 52.9446 391.241 50.611C391.262 48.3166 390.259 46.4082 388.417 45.2376C387.326 44.5445 386.058 44.1859 384.743 44.1914L384.687 44.1914L384.665 44.1457C384.099 42.9719 383.231 41.9975 382.154 41.3243C382.14 41.3156 382.126 41.3071 382.112 41.2981C380.252 40.1555 378.097 40.0903 376.044 41.115C373.956 42.1572 372.626 44.2129 372.487 46.6141Z" fill="url(#paint13_linear_115_4138)"/>
<path d="M405.733 21.8353C405.632 23.5637 406.076 25.2483 406.467 26.7343C406.532 26.9817 406.597 27.2272 406.658 27.4695C406.893 28.4037 407.147 29.3158 407.393 30.197C407.633 31.0584 407.881 31.949 408.106 32.8417L408.519 34.4785L410.171 34.1322C411.072 33.9436 411.981 33.7763 412.86 33.6142C413.76 33.4485 414.691 33.2768 415.635 33.0789C415.879 33.0275 416.128 32.9783 416.379 32.9284C417.886 32.6285 419.595 32.2882 421.104 31.4404C423.201 30.2623 424.466 28.1658 424.487 25.8322C424.508 23.5378 423.505 21.6294 421.663 20.4588C420.572 19.7657 419.304 19.4071 417.989 19.4126L417.933 19.4126L417.911 19.3669C417.345 18.1931 416.477 17.2187 415.4 16.5455C415.386 16.5368 415.373 16.5283 415.358 16.5193C413.498 15.3767 411.343 15.3115 409.29 16.3362C407.202 17.3784 405.872 19.4341 405.733 21.8353Z" fill="url(#paint14_linear_115_4138)"/>
<path d="M464.381 14.0887C464.281 15.8171 464.724 17.5017 465.115 18.9877C465.18 19.2351 465.245 19.4806 465.306 19.7229C465.542 20.6572 465.796 21.5693 466.041 22.4504C466.281 23.3118 466.529 24.2024 466.754 25.0951L467.168 26.7319L468.82 26.3857C469.72 26.197 470.629 26.0297 471.508 25.8676C472.408 25.702 473.339 25.5302 474.283 25.3323C474.527 25.2809 474.776 25.2318 475.027 25.1818C476.535 24.8819 478.243 24.5416 479.753 23.6938C481.85 22.5157 483.114 20.4192 483.136 18.0856C483.157 15.7912 482.153 13.8828 480.311 12.7122C479.221 12.0191 477.952 11.6605 476.638 11.666L476.582 11.666L476.56 11.6203C475.993 10.4465 475.126 9.47207 474.049 8.79892C474.035 8.79019 474.021 8.7817 474.007 8.77272C472.147 7.63008 469.992 7.56488 467.939 8.58963C465.851 9.63181 464.521 11.6876 464.381 14.0887Z" fill="url(#paint15_linear_115_4138)"/>
<path d="M447.586 45.5716C447.486 47.3 447.929 48.9846 448.32 50.4706C448.385 50.718 448.45 50.9635 448.511 51.2058C448.747 52.1401 449.001 53.0522 449.246 53.9333C449.486 54.7947 449.734 55.6853 449.96 56.578L450.373 58.2148L452.025 57.8686C452.925 57.6799 453.834 57.5126 454.713 57.3505C455.614 57.1849 456.545 57.0131 457.488 56.8152C457.732 56.7638 457.981 56.7147 458.232 56.6647C459.74 56.3648 461.448 56.0245 462.958 55.1767C465.055 53.9987 466.319 51.9022 466.341 49.5685C466.362 47.2741 465.358 45.3657 463.516 44.1951C462.426 43.502 461.158 43.1434 459.843 43.1489L459.787 43.1489L459.765 43.1032C459.198 41.9294 458.331 40.955 457.254 40.2818C457.24 40.2731 457.226 40.2646 457.212 40.2556C455.352 39.113 453.197 39.0478 451.144 40.0725C449.056 41.1147 447.726 43.1705 447.586 45.5716Z" fill="url(#paint16_linear_115_4138)"/>
<path d="M496.746 44.3631C496.646 46.0915 497.089 47.7761 497.48 49.2621C497.546 49.5095 497.61 49.755 497.671 49.9973C497.907 50.9316 498.161 51.8437 498.406 52.7248C498.647 53.5862 498.894 54.4768 499.12 55.3696L499.533 57.0063L501.185 56.6601C502.086 56.4714 502.994 56.3041 503.873 56.142C504.774 55.9764 505.705 55.8046 506.648 55.6067C506.893 55.5553 507.141 55.5062 507.392 55.4562C508.9 55.1563 510.608 54.816 512.118 53.9682C514.215 52.7902 515.479 50.6937 515.501 48.36C515.522 46.0656 514.519 44.1572 512.676 42.9866C511.586 42.2935 510.318 41.9349 509.003 41.9404L508.947 41.9404L508.925 41.8947C508.358 40.7209 507.491 39.7465 506.414 39.0733C506.4 39.0646 506.386 39.0561 506.372 39.0471C504.512 37.9045 502.357 37.8393 500.304 38.864C498.216 39.9062 496.886 41.962 496.746 44.3631Z" fill="url(#paint17_linear_115_4138)"/>
<path d="M523.532 11.3412C523.431 13.0695 523.874 14.7541 524.266 16.2401C524.331 16.4875 524.395 16.733 524.457 16.9754C524.692 17.9096 524.946 18.8217 525.192 19.7028C525.432 20.5643 525.679 21.4548 525.905 22.3476L526.318 23.9843L527.97 23.6381C528.871 23.4494 529.779 23.2822 530.659 23.1201C531.559 22.9544 532.49 22.7826 533.433 22.5847C533.678 22.5333 533.927 22.4842 534.177 22.4342C535.685 22.1343 537.393 21.7941 538.903 20.9463C541 19.7682 542.265 17.6717 542.286 15.338C542.307 13.0436 541.304 11.1352 539.461 9.96462C538.371 9.27153 537.103 8.91292 535.788 8.91843L535.732 8.91843L535.71 8.87273C535.144 7.69892 534.276 6.72451 533.199 6.05136C533.185 6.04263 533.171 6.03414 533.157 6.02516C531.297 4.88253 529.142 4.81732 527.089 5.84207C525.001 6.88425 523.671 8.94 523.532 11.3412Z" fill="url(#paint18_linear_115_4138)"/>
<path d="M550.317 44.3631C550.216 46.0915 550.66 47.7761 551.051 49.2621C551.116 49.5095 551.181 49.755 551.242 49.9973C551.477 50.9316 551.731 51.8437 551.977 52.7248C552.217 53.5862 552.465 54.4768 552.69 55.3696L553.103 57.0063L554.755 56.6601C555.656 56.4714 556.565 56.3041 557.444 56.142C558.344 55.9764 559.275 55.8046 560.219 55.6067C560.463 55.5553 560.712 55.5062 560.963 55.4562C562.47 55.1563 564.179 54.816 565.688 53.9682C567.785 52.7902 569.05 50.6937 569.071 48.36C569.092 46.0656 568.089 44.1572 566.247 42.9866C565.156 42.2935 563.888 41.9349 562.573 41.9404L562.517 41.9404L562.495 41.8947C561.929 40.7209 561.061 39.7465 559.984 39.0733C559.97 39.0646 559.957 39.0561 559.942 39.0471C558.082 37.9045 555.927 37.8393 553.874 38.864C551.786 39.9062 550.456 41.962 550.317 44.3631Z" fill="url(#paint19_linear_115_4138)"/>
<path d="M583.563 21.8353C583.463 23.5637 583.906 25.2483 584.297 26.7343C584.362 26.9817 584.427 27.2272 584.488 27.4695C584.723 28.4037 584.977 29.3158 585.223 30.197C585.463 31.0584 585.711 31.949 585.936 32.8417L586.349 34.4785L588.001 34.1322C588.902 33.9436 589.811 33.7763 590.69 33.6142C591.59 33.4485 592.521 33.2768 593.465 33.0789C593.709 33.0275 593.958 32.9783 594.209 32.9284C595.716 32.6285 597.425 32.2882 598.934 31.4404C601.031 30.2623 602.296 28.1658 602.317 25.8322C602.338 23.5378 601.335 21.6294 599.493 20.4588C598.403 19.7657 597.134 19.4071 595.82 19.4126L595.763 19.4126L595.741 19.3669C595.175 18.1931 594.307 17.2187 593.23 16.5455C593.216 16.5368 593.203 16.5283 593.188 16.5193C591.329 15.3767 589.173 15.3115 587.12 16.3362C585.032 17.3784 583.702 19.4341 583.563 21.8353Z" fill="url(#paint20_linear_115_4138)"/>
<path d="M642.211 14.0887C642.111 15.8171 642.554 17.5017 642.945 18.9877C643.01 19.2351 643.075 19.4806 643.136 19.7229C643.372 20.6572 643.626 21.5693 643.871 22.4504C644.111 23.3118 644.359 24.2024 644.585 25.0951L644.998 26.7319L646.65 26.3857C647.55 26.197 648.459 26.0297 649.338 25.8676C650.239 25.702 651.17 25.5302 652.113 25.3323C652.357 25.2809 652.606 25.2318 652.857 25.1818C654.365 24.8819 656.073 24.5416 657.583 23.6938C659.68 22.5157 660.944 20.4192 660.966 18.0856C660.987 15.7912 659.983 13.8828 658.141 12.7122C657.051 12.0191 655.783 11.6605 654.468 11.666L654.412 11.666L654.39 11.6203C653.823 10.4465 652.956 9.47207 651.879 8.79892C651.865 8.79019 651.851 8.7817 651.837 8.77272C649.977 7.63008 647.822 7.56488 645.769 8.58963C643.681 9.63181 642.351 11.6876 642.211 14.0887Z" fill="url(#paint21_linear_115_4138)"/>
<path d="M616.809 47.1107C616.709 48.839 617.152 50.5237 617.543 52.0096C617.608 52.2571 617.673 52.5026 617.734 52.7449C617.97 53.6791 618.223 54.5912 618.469 55.4723C618.709 56.3338 618.957 57.2244 619.182 58.1171L619.595 59.7538L621.247 59.4076C622.148 59.219 623.057 59.0517 623.936 58.8896C624.836 58.7239 625.767 58.5522 626.711 58.3543C626.955 58.3029 627.204 58.2537 627.455 58.2038C628.962 57.9039 630.671 57.5636 632.18 56.7158C634.277 55.5377 635.542 53.4412 635.563 51.1076C635.584 48.8131 634.581 46.9047 632.739 45.7342C631.649 45.0411 630.38 44.6825 629.066 44.688L629.009 44.688L628.987 44.6423C628.421 43.4684 627.554 42.494 626.476 41.8209C626.462 41.8122 626.449 41.8037 626.434 41.7947C624.575 40.6521 622.42 40.5869 620.367 41.6116C618.278 42.6538 616.949 44.7095 616.809 47.1107Z" fill="url(#paint22_linear_115_4138)"/>
<path d="M681.795 46.6141C681.695 48.3425 682.138 50.0271 682.529 51.5131C682.594 51.7605 682.659 52.006 682.72 52.2483C682.956 53.1825 683.21 54.0947 683.455 54.9758C683.695 55.8372 683.943 56.7278 684.169 57.6205L684.582 59.2573L686.234 58.911C687.134 58.7224 688.043 58.5551 688.922 58.393C689.822 58.2274 690.754 58.0556 691.697 57.8577C691.941 57.8063 692.19 57.7571 692.441 57.7072C693.949 57.4073 695.657 57.067 697.167 56.2192C699.264 55.0411 700.528 52.9446 700.55 50.611C700.571 48.3166 699.567 46.4082 697.725 45.2376C696.635 44.5445 695.367 44.1859 694.052 44.1914L693.996 44.1914L693.974 44.1457C693.407 42.9719 692.54 41.9975 691.463 41.3243C691.449 41.3156 691.435 41.3071 691.421 41.2981C689.561 40.1555 687.406 40.0903 685.353 41.115C683.265 42.1572 681.935 44.2129 681.795 46.6141Z" fill="url(#paint23_linear_115_4138)"/>
<path d="M698.59 11.3412C698.49 13.0695 698.933 14.7541 699.324 16.2401C699.389 16.4875 699.454 16.733 699.515 16.9754C699.751 17.9096 700.005 18.8217 700.25 19.7028C700.49 20.5643 700.738 21.4548 700.963 22.3476L701.377 23.9843L703.029 23.6381C703.929 23.4494 704.838 23.2822 705.717 23.1201C706.617 22.9544 707.548 22.7826 708.492 22.5847C708.736 22.5333 708.985 22.4842 709.236 22.4342C710.744 22.1343 712.452 21.7941 713.962 20.9463C716.059 19.7682 717.323 17.6717 717.345 15.338C717.366 13.0436 716.362 11.1352 714.52 9.96462C713.43 9.27153 712.161 8.91292 710.847 8.91843L710.791 8.91843L710.769 8.87273C710.202 7.69892 709.335 6.72451 708.258 6.05136C708.244 6.04263 708.23 6.03414 708.216 6.02516C706.356 4.88253 704.201 4.81732 702.148 5.84207C700.06 6.88425 698.73 8.94 698.59 11.3412Z" fill="url(#paint24_linear_115_4138)"/>
<path d="M736.004 44.3631C735.904 46.0915 736.347 47.7761 736.738 49.2621C736.803 49.5095 736.868 49.755 736.929 49.9973C737.165 50.9316 737.419 51.8437 737.664 52.7248C737.904 53.5862 738.152 54.4768 738.377 55.3696L738.791 57.0063L740.443 56.6601C741.343 56.4714 742.252 56.3041 743.131 56.142C744.031 55.9764 744.963 55.8046 745.906 55.6067C746.15 55.5553 746.399 55.5062 746.65 55.4562C748.158 55.1563 749.866 54.816 751.376 53.9682C753.473 52.7902 754.737 50.6937 754.759 48.36C754.78 46.0656 753.776 44.1572 751.934 42.9866C750.844 42.2935 749.576 41.9349 748.261 41.9404L748.205 41.9404L748.183 41.8947C747.616 40.7209 746.749 39.7465 745.672 39.0733C745.658 39.0646 745.644 39.0561 745.63 39.0471C743.77 37.9045 741.615 37.8393 739.562 38.864C737.474 39.9062 736.144 41.962 736.004 44.3631Z" fill="url(#paint25_linear_115_4138)"/>
<path d="M762.789 14.0887C762.689 15.8171 763.132 17.5017 763.523 18.9877C763.589 19.2351 763.653 19.4806 763.714 19.7229C763.95 20.6572 764.204 21.5693 764.449 22.4504C764.689 23.3118 764.937 24.2024 765.163 25.0951L765.576 26.7319L767.228 26.3857C768.128 26.197 769.037 26.0297 769.916 25.8676C770.817 25.702 771.748 25.5302 772.691 25.3323C772.936 25.2809 773.184 25.2318 773.435 25.1818C774.943 24.8819 776.651 24.5416 778.161 23.6938C780.258 22.5157 781.522 20.4192 781.544 18.0856C781.565 15.7912 780.561 13.8828 778.719 12.7122C777.629 12.0191 776.361 11.6605 775.046 11.666L774.99 11.666L774.968 11.6203C774.401 10.4465 773.534 9.47207 772.457 8.79892C772.443 8.79019 772.429 8.7817 772.415 8.77272C770.555 7.63008 768.4 7.56488 766.347 8.58963C764.259 9.63181 762.929 11.6876 762.789 14.0887Z" fill="url(#paint26_linear_115_4138)"/>
<path d="M817.27 14.0887C817.17 15.8171 817.613 17.5017 818.004 18.9877C818.069 19.2351 818.134 19.4806 818.195 19.7229C818.431 20.6572 818.684 21.5693 818.93 22.4504C819.17 23.3118 819.418 24.2024 819.643 25.0951L820.056 26.7319L821.708 26.3857C822.609 26.197 823.518 26.0297 824.397 25.8676C825.297 25.702 826.228 25.5302 827.172 25.3323C827.416 25.2809 827.665 25.2318 827.916 25.1818C829.423 24.8819 831.132 24.5416 832.641 23.6938C834.738 22.5157 836.003 20.4192 836.024 18.0856C836.045 15.7912 835.042 13.8828 833.2 12.7122C832.11 12.0191 830.841 11.6605 829.527 11.666L829.47 11.666L829.448 11.6203C828.882 10.4465 828.014 9.47207 826.937 8.79892C826.923 8.79019 826.91 8.7817 826.895 8.77272C825.036 7.63008 822.88 7.56488 820.828 8.58963C818.739 9.63181 817.409 11.6876 817.27 14.0887Z" fill="url(#paint27_linear_115_4138)"/>
<path d="M800.475 54.8573C800.375 56.5856 800.818 58.2702 801.209 59.7562C801.274 60.0036 801.339 60.2492 801.4 60.4915C801.636 61.4257 801.889 62.3378 802.135 63.2189C802.375 64.0804 802.623 64.9709 802.848 65.8637L803.261 67.5004L804.913 67.1542C805.814 66.9656 806.723 66.7983 807.602 66.6362C808.502 66.4705 809.433 66.2988 810.377 66.1008C810.621 66.0494 810.87 66.0003 811.121 65.9504C812.628 65.6504 814.337 65.3102 815.846 64.4624C817.943 63.2843 819.208 61.1878 819.229 58.8541C819.25 56.5597 818.247 54.6513 816.405 53.4807C815.315 52.7876 814.046 52.429 812.732 52.4345L812.675 52.4345L812.653 52.3888C812.087 51.215 811.22 50.2406 810.142 49.5675C810.128 49.5587 810.115 49.5503 810.1 49.5413C808.241 48.3986 806.086 48.3334 804.033 49.3582C801.944 50.4004 800.615 52.4561 800.475 54.8573Z" fill="url(#paint28_linear_115_4138)"/>
<path d="M846.864 49.3617C846.763 51.09 847.206 52.7746 847.598 54.2606C847.663 54.508 847.727 54.7536 847.789 54.9959C848.024 55.9301 848.278 56.8422 848.524 57.7233C848.764 58.5848 849.011 59.4753 849.237 60.3681L849.65 62.0048L851.302 61.6586C852.203 61.47 853.112 61.3027 853.991 61.1406C854.891 60.9749 855.822 60.8032 856.766 60.6052C857.01 60.5538 857.259 60.5047 857.509 60.4547C859.017 60.1548 860.726 59.8146 862.235 58.9668C864.332 57.7887 865.597 55.6922 865.618 53.3585C865.639 51.0641 864.636 49.1557 862.793 47.9851C861.703 47.292 860.435 46.9334 859.12 46.9389L859.064 46.9389L859.042 46.8932C858.476 45.7194 857.608 44.745 856.531 44.0719C856.517 44.0631 856.503 44.0546 856.489 44.0457C854.629 42.903 852.474 42.8378 850.421 43.8626C848.333 44.9048 847.003 46.9605 846.864 49.3617Z" fill="url(#paint29_linear_115_4138)"/>
<path d="M873.649 14.0887C873.548 15.8171 873.992 17.5017 874.383 18.9877C874.448 19.2351 874.513 19.4806 874.574 19.7229C874.809 20.6572 875.063 21.5693 875.309 22.4504C875.549 23.3118 875.797 24.2024 876.022 25.0951L876.435 26.7319L878.087 26.3857C878.988 26.197 879.897 26.0297 880.776 25.8676C881.676 25.702 882.607 25.5302 883.551 25.3323C883.795 25.2809 884.044 25.2318 884.295 25.1818C885.802 24.8819 887.511 24.5416 889.02 23.6938C891.117 22.5157 892.382 20.4192 892.403 18.0856C892.424 15.7912 891.421 13.8828 889.579 12.7122C888.488 12.0191 887.22 11.6605 885.905 11.666L885.849 11.666L885.827 11.6203C885.261 10.4465 884.393 9.47207 883.316 8.79892C883.302 8.79019 883.289 8.7817 883.274 8.77272C881.414 7.63008 879.259 7.56488 877.206 8.58963C875.118 9.63181 873.788 11.6876 873.649 14.0887Z" fill="url(#paint30_linear_115_4138)"/>
<path d="M900.434 48.3192C900.334 50.0475 900.777 51.7322 901.168 53.2181C901.233 53.4656 901.298 53.7111 901.359 53.9534C901.595 54.8876 901.848 55.7997 902.094 56.6808C902.334 57.5423 902.582 58.4329 902.807 59.3256L903.22 60.9623L904.872 60.6161C905.773 60.4275 906.682 60.2602 907.561 60.0981C908.461 59.9324 909.392 59.7607 910.336 59.5628C910.58 59.5113 910.829 59.4622 911.08 59.4123C912.587 59.1123 914.296 58.7721 915.805 57.9243C917.902 56.7462 919.167 54.6497 919.188 52.3161C919.209 50.0216 918.206 48.1132 916.364 46.9427C915.274 46.2496 914.005 45.8909 912.691 45.8965L912.634 45.8965L912.612 45.8508C912.046 44.6769 911.179 43.7025 910.101 43.0294C910.087 43.0207 910.074 43.0122 910.059 43.0032C908.2 41.8606 906.045 41.7953 903.992 42.8201C901.903 43.8623 900.574 45.918 900.434 48.3192Z" fill="url(#paint31_linear_115_4138)"/>
<path d="M933.68 24.5829C933.58 26.3112 934.023 27.9958 934.414 29.4818C934.479 29.7292 934.544 29.9747 934.605 30.2171C934.841 31.1513 935.094 32.0634 935.34 32.9445C935.58 33.806 935.828 34.6965 936.053 35.5893L936.466 37.226L938.119 36.8798C939.019 36.6911 939.928 36.5239 940.807 36.3618C941.707 36.1961 942.638 36.0243 943.582 35.8264C943.826 35.775 944.075 35.7259 944.326 35.6759C945.834 35.376 947.542 35.0358 949.051 34.188C951.148 33.0099 952.413 30.9134 952.434 28.5797C952.455 26.2853 951.452 24.3769 949.61 23.2063C948.52 22.5132 947.251 22.1546 945.937 22.1601L945.881 22.1601L945.858 22.1144C945.292 20.9406 944.425 19.9662 943.347 19.2931C943.333 19.2843 943.32 19.2758 943.305 19.2669C941.446 18.1242 939.291 18.059 937.238 19.0838C935.15 20.126 933.82 22.1817 933.68 24.5829Z" fill="url(#paint32_linear_115_4138)"/>
<path d="M992.328 16.8363C992.228 18.5646 992.671 20.2493 993.062 21.7352C993.128 21.9826 993.192 22.2282 993.253 22.4705C993.489 23.4047 993.743 24.3168 993.988 25.1979C994.229 26.0594 994.476 26.9499 994.702 27.8427L995.115 29.4794L996.767 29.1332C997.668 28.9446 998.576 28.7773 999.455 28.6152C1000.36 28.4495 1001.29 28.2778 1002.23 28.0798C1002.47 28.0284 1002.72 27.9793 1002.97 27.9294C1004.48 27.6294 1006.19 27.2892 1007.7 26.4414C1009.8 25.2633 1011.06 23.1668 1011.08 20.8331C1011.1 18.5387 1010.1 16.6303 1008.26 15.4597C1007.17 14.7666 1005.9 14.408 1004.59 14.4135L1004.53 14.4136L1004.51 14.3678C1003.94 13.194 1003.07 12.2196 1002 11.5465C1001.98 11.5377 1001.97 11.5293 1001.95 11.5203C1000.09 10.3776 997.939 10.3124 995.886 11.3372C993.798 12.3794 992.468 14.4351 992.328 16.8363Z" fill="url(#paint33_linear_115_4138)"/>
</g>
<defs>
<linearGradient id="paint0_linear_115_4138" x1="11.1723" y1="7.9948" x2="27.9667" y2="18.4891" gradientUnits="userSpaceOnUse">
<stop stop-color="#EE0979"/>
<stop offset="1" stop-color="#FF6A00"/>
</linearGradient>
<linearGradient id="paint1_linear_115_4138" x1="21.1645" y1="44.9728" x2="37.9589" y2="55.4672" gradientUnits="userSpaceOnUse">
<stop stop-color="#EE0979"/>
<stop offset="1" stop-color="#FF6A00"/>
</linearGradient>
<linearGradient id="paint2_linear_115_4138" x1="55.0355" y1="18.4889" x2="71.83" y2="28.9833" gradientUnits="userSpaceOnUse">
<stop stop-color="#EE0979"/>
<stop offset="1" stop-color="#FF6A00"/>
</linearGradient>
<linearGradient id="paint3_linear_115_4138" x1="113.684" y1="10.7424" x2="130.478" y2="21.2367" gradientUnits="userSpaceOnUse">
<stop stop-color="#EE0979"/>
<stop offset="1" stop-color="#FF6A00"/>
</linearGradient>
<linearGradient id="paint4_linear_115_4138" x1="96.8891" y1="51.5109" x2="113.683" y2="62.0052" gradientUnits="userSpaceOnUse">
<stop stop-color="#EE0979"/>
<stop offset="1" stop-color="#FF6A00"/>
</linearGradient>
<linearGradient id="paint5_linear_115_4138" x1="147.282" y1="44.9728" x2="164.076" y2="55.4672" gradientUnits="userSpaceOnUse">
<stop stop-color="#EE0979"/>
<stop offset="1" stop-color="#FF6A00"/>
</linearGradient>
<linearGradient id="paint6_linear_115_4138" x1="170.061" y1="7.9948" x2="186.855" y2="18.4891" gradientUnits="userSpaceOnUse">
<stop stop-color="#EE0979"/>
<stop offset="1" stop-color="#FF6A00"/>
</linearGradient>
<linearGradient id="paint7_linear_115_4138" x1="199.621" y1="51.5109" x2="216.416" y2="62.0052" gradientUnits="userSpaceOnUse">
<stop stop-color="#EE0979"/>
<stop offset="1" stop-color="#FF6A00"/>
</linearGradient>
<linearGradient id="paint8_linear_115_4138" x1="230.092" y1="18.4889" x2="246.887" y2="28.9833" gradientUnits="userSpaceOnUse">
<stop stop-color="#EE0979"/>
<stop offset="1" stop-color="#FF6A00"/>
</linearGradient>
<linearGradient id="paint9_linear_115_4138" x1="288.741" y1="10.7424" x2="305.535" y2="21.2367" gradientUnits="userSpaceOnUse">
<stop stop-color="#EE0979"/>
<stop offset="1" stop-color="#FF6A00"/>
</linearGradient>
<linearGradient id="paint10_linear_115_4138" x1="271.946" y1="51.5109" x2="288.74" y2="62.0052" gradientUnits="userSpaceOnUse">
<stop stop-color="#EE0979"/>
<stop offset="1" stop-color="#FF6A00"/>
</linearGradient>
<linearGradient id="paint11_linear_115_4138" x1="322.338" y1="46.0153" x2="339.133" y2="56.5096" gradientUnits="userSpaceOnUse">
<stop stop-color="#EE0979"/>
<stop offset="1" stop-color="#FF6A00"/>
</linearGradient>
<linearGradient id="paint12_linear_115_4138" x1="345.086" y1="10.7424" x2="361.881" y2="21.2367" gradientUnits="userSpaceOnUse">
<stop stop-color="#EE0979"/>
<stop offset="1" stop-color="#FF6A00"/>
</linearGradient>
<linearGradient id="paint13_linear_115_4138" x1="371.871" y1="46.0153" x2="388.666" y2="56.5096" gradientUnits="userSpaceOnUse">
<stop stop-color="#EE0979"/>
<stop offset="1" stop-color="#FF6A00"/>
</linearGradient>
<linearGradient id="paint14_linear_115_4138" x1="405.118" y1="21.2365" x2="421.912" y2="31.7308" gradientUnits="userSpaceOnUse">
<stop stop-color="#EE0979"/>
<stop offset="1" stop-color="#FF6A00"/>
</linearGradient>
<linearGradient id="paint15_linear_115_4138" x1="463.766" y1="13.4899" x2="480.56" y2="23.9842" gradientUnits="userSpaceOnUse">
<stop stop-color="#EE0979"/>
<stop offset="1" stop-color="#FF6A00"/>
</linearGradient>
<linearGradient id="paint16_linear_115_4138" x1="446.971" y1="44.9728" x2="463.766" y2="55.4672" gradientUnits="userSpaceOnUse">
<stop stop-color="#EE0979"/>
<stop offset="1" stop-color="#FF6A00"/>
</linearGradient>
<linearGradient id="paint17_linear_115_4138" x1="496.131" y1="43.7643" x2="512.926" y2="54.2587" gradientUnits="userSpaceOnUse">
<stop stop-color="#EE0979"/>
<stop offset="1" stop-color="#FF6A00"/>
</linearGradient>
<linearGradient id="paint18_linear_115_4138" x1="522.916" y1="10.7424" x2="539.711" y2="21.2367" gradientUnits="userSpaceOnUse">
<stop stop-color="#EE0979"/>
<stop offset="1" stop-color="#FF6A00"/>
</linearGradient>
<linearGradient id="paint19_linear_115_4138" x1="549.702" y1="43.7643" x2="566.496" y2="54.2587" gradientUnits="userSpaceOnUse">
<stop stop-color="#EE0979"/>
<stop offset="1" stop-color="#FF6A00"/>
</linearGradient>
<linearGradient id="paint20_linear_115_4138" x1="582.948" y1="21.2365" x2="599.742" y2="31.7308" gradientUnits="userSpaceOnUse">
<stop stop-color="#EE0979"/>
<stop offset="1" stop-color="#FF6A00"/>
</linearGradient>
<linearGradient id="paint21_linear_115_4138" x1="641.596" y1="13.4899" x2="658.391" y2="23.9842" gradientUnits="userSpaceOnUse">
<stop stop-color="#EE0979"/>
<stop offset="1" stop-color="#FF6A00"/>
</linearGradient>
<linearGradient id="paint22_linear_115_4138" x1="616.194" y1="46.5119" x2="632.988" y2="57.0062" gradientUnits="userSpaceOnUse">
<stop stop-color="#EE0979"/>
<stop offset="1" stop-color="#FF6A00"/>
</linearGradient>
<linearGradient id="paint23_linear_115_4138" x1="681.18" y1="46.0153" x2="697.975" y2="56.5096" gradientUnits="userSpaceOnUse">
<stop stop-color="#EE0979"/>
<stop offset="1" stop-color="#FF6A00"/>
</linearGradient>
<linearGradient id="paint24_linear_115_4138" x1="697.975" y1="10.7424" x2="714.769" y2="21.2367" gradientUnits="userSpaceOnUse">
<stop stop-color="#EE0979"/>
<stop offset="1" stop-color="#FF6A00"/>
</linearGradient>
<linearGradient id="paint25_linear_115_4138" x1="735.389" y1="43.7643" x2="752.183" y2="54.2587" gradientUnits="userSpaceOnUse">
<stop stop-color="#EE0979"/>
<stop offset="1" stop-color="#FF6A00"/>
</linearGradient>
<linearGradient id="paint26_linear_115_4138" x1="762.174" y1="13.4899" x2="778.969" y2="23.9842" gradientUnits="userSpaceOnUse">
<stop stop-color="#EE0979"/>
<stop offset="1" stop-color="#FF6A00"/>
</linearGradient>
<linearGradient id="paint27_linear_115_4138" x1="816.655" y1="13.4899" x2="833.449" y2="23.9842" gradientUnits="userSpaceOnUse">
<stop stop-color="#EE0979"/>
<stop offset="1" stop-color="#FF6A00"/>
</linearGradient>
<linearGradient id="paint28_linear_115_4138" x1="799.86" y1="54.2585" x2="816.654" y2="64.7528" gradientUnits="userSpaceOnUse">
<stop stop-color="#EE0979"/>
<stop offset="1" stop-color="#FF6A00"/>
</linearGradient>
<linearGradient id="paint29_linear_115_4138" x1="846.248" y1="48.7629" x2="863.043" y2="59.2572" gradientUnits="userSpaceOnUse">
<stop stop-color="#EE0979"/>
<stop offset="1" stop-color="#FF6A00"/>
</linearGradient>
<linearGradient id="paint30_linear_115_4138" x1="873.034" y1="13.4899" x2="889.828" y2="23.9842" gradientUnits="userSpaceOnUse">
<stop stop-color="#EE0979"/>
<stop offset="1" stop-color="#FF6A00"/>
</linearGradient>
<linearGradient id="paint31_linear_115_4138" x1="899.819" y1="47.7204" x2="916.613" y2="58.2147" gradientUnits="userSpaceOnUse">
<stop stop-color="#EE0979"/>
<stop offset="1" stop-color="#FF6A00"/>
</linearGradient>
<linearGradient id="paint32_linear_115_4138" x1="933.065" y1="23.9841" x2="949.859" y2="34.4784" gradientUnits="userSpaceOnUse">
<stop stop-color="#EE0979"/>
<stop offset="1" stop-color="#FF6A00"/>
</linearGradient>
<linearGradient id="paint33_linear_115_4138" x1="991.713" y1="16.2375" x2="1008.51" y2="26.7318" gradientUnits="userSpaceOnUse">
<stop stop-color="#EE0979"/>
<stop offset="1" stop-color="#FF6A00"/>
</linearGradient>
<clipPath id="clip0_115_4138">
<rect width="988" height="70" fill="white"/>
</clipPath>
</defs>
</svg>
