<svg width="64" height="64" viewBox="0 0 64 64" fill="none" xmlns="http://www.w3.org/2000/svg">
<path fill-rule="evenodd" clip-rule="evenodd" d="M45.8868 41.0921V64.0003H22.7421V63.9992C10.1635 63.8911 0 53.6608 0 41.0567C0 28.3854 10.2721 18.1133 22.9434 18.1133C35.4803 18.1133 45.6686 28.1687 45.8833 40.6544H45.8868V41.0213C45.8868 41.0331 45.8868 41.0449 45.8868 41.0567C45.8868 41.0685 45.8868 41.0803 45.8868 41.0921Z" fill="#F73D58"/>
<path fill-rule="evenodd" clip-rule="evenodd" d="M19.97 32.0001C23.4576 40.1097 31.4866 45.8056 40.8554 45.8861V45.8868H40.9911L41.0566 45.8869L41.1221 45.8868H64.0001V40.6544H63.9966C63.7819 28.1687 53.5935 18.1133 41.0566 18.1133C31.6017 18.1133 23.4826 23.8325 19.97 32.0001Z" fill="#2479F4" fill-opacity="0.7"/>
<path fill-rule="evenodd" clip-rule="evenodd" d="M40.8552 63.9992C28.2766 63.8912 18.113 53.6608 18.113 41.0567C18.113 28.3854 28.3851 18.1133 41.0564 18.1133C53.5933 18.1133 63.7817 28.1687 63.9964 40.6544H63.9999V64.0003H40.8552V63.9992Z" fill="#FFBA33"/>
<path fill-rule="evenodd" clip-rule="evenodd" d="M18.113 22.9435C18.113 35.5477 28.2766 45.778 40.8552 45.8861V45.8868H40.9909L41.0564 45.8869L41.1219 45.8868H45.8866V41.0921L45.8867 41.0567L45.8866 41.0213V40.6544H45.8832C45.6685 28.1687 35.4802 18.1133 22.9433 18.1133C21.4358 18.1133 19.9623 18.2587 18.5359 18.5362C18.2584 19.9625 18.113 21.436 18.113 22.9435Z" fill="#F73D58"/>
<path fill-rule="evenodd" clip-rule="evenodd" d="M40.8552 45.8859C28.2766 45.7779 18.113 35.5475 18.113 22.9434C18.113 10.2721 28.3851 0 41.0564 0C53.5932 0 63.7815 10.0552 63.9964 22.5408H63.9999V45.8867H41.1219C41.1001 45.8868 41.0783 45.8868 41.0564 45.8868C41.0346 45.8868 41.0127 45.8868 40.9909 45.8867H40.8552V45.8859Z" fill="#2479F4" fill-opacity="0.7"/>
</svg>
