<svg width="125" height="33" viewBox="0 0 125 33" fill="none" xmlns="http://www.w3.org/2000/svg">
<g clip-path="url(#clip0_299_2534)">
<path fill-rule="evenodd" clip-rule="evenodd" d="M11.3711 32.9813C5.08177 32.9272 0 27.8121 0 21.51C0 15.1744 5.13605 10.0383 11.4717 10.0383C17.7402 10.0383 22.8344 15.0661 22.9417 21.309H22.9434V32.982L11.3711 32.9813Z" fill="#F73D58"/>
<path fill-rule="evenodd" clip-rule="evenodd" d="M32.0003 21.309H31.9986C31.8913 15.0661 26.7971 10.0383 20.5286 10.0383C15.8012 10.0383 11.7416 12.8979 9.98535 16.9817C11.7291 21.0365 15.7436 23.8844 20.428 23.9246L20.4735 23.9249L20.5286 23.9251L20.5838 23.9249H32.0003V21.5332V21.4868V21.309Z" fill="#2479F4" fill-opacity="0.7"/>
<path fill-rule="evenodd" clip-rule="evenodd" d="M20.4277 32.9813C14.1384 32.9273 9.05664 27.8121 9.05664 21.51C9.05664 15.1744 14.1927 10.0383 20.5283 10.0383C26.7968 10.0383 31.891 15.0661 31.9983 21.309H32.0001V32.982L20.4277 32.9813Z" fill="#FFBA33"/>
<path fill-rule="evenodd" clip-rule="evenodd" d="M9.05664 12.4534C9.05664 18.7554 14.1384 23.8706 20.4277 23.9246L20.4732 23.9249L20.5283 23.9251L20.5834 23.9249H22.9436V21.309H22.9418C22.8346 15.0661 17.7404 10.0383 11.4718 10.0383C10.7181 10.0383 9.98128 10.111 9.26807 10.2498C9.12932 10.9629 9.05664 11.6996 9.05664 12.4534Z" fill="#F73D58"/>
<path fill-rule="evenodd" clip-rule="evenodd" d="M20.4277 23.9246C14.1384 23.8706 9.05664 18.7554 9.05664 12.4534C9.05664 6.11774 14.1927 0.981689 20.5283 0.981689C26.7967 0.981689 31.8908 6.00926 31.9983 12.252H32.0001V23.9249H20.5834C20.5651 23.925 20.5467 23.9251 20.5283 23.9251C20.5099 23.9251 20.4915 23.925 20.4732 23.9249L20.4277 23.9246Z" fill="#2479F4" fill-opacity="0.7"/>
<path d="M41.4837 13.4619C41.4837 13.2181 41.4516 13.0385 41.3874 12.923C41.3361 12.8075 41.2142 12.6407 41.0217 12.4225L41.041 12.2878C41.7211 11.8899 42.568 11.691 43.5818 11.691C43.9796 11.691 44.2748 11.7231 44.4673 11.7873C44.5314 11.9156 44.5635 12.1851 44.5635 12.5957C44.5635 12.9936 44.2555 14.4372 43.6396 16.9268C43.9219 17.0423 44.2427 17.1 44.602 17.1C45.218 17.1 45.7249 16.8883 46.1227 16.4648C46.5205 16.0413 46.7772 15.5858 46.8927 15.0981C47.021 14.5976 47.0852 14.0715 47.0852 13.5197C47.0852 12.5059 46.8093 11.7744 46.2575 11.3253C45.7185 10.8633 44.8394 10.6323 43.6203 10.6323C42.0291 10.6323 40.7073 10.9532 39.655 11.5948C38.6027 12.2364 38.0766 12.9101 38.0766 13.6159C38.0766 13.9753 38.2113 14.2704 38.4808 14.5014C38.7631 14.7196 39.0519 14.8671 39.347 14.9441C39.2957 15.4061 39.1353 15.8809 38.8658 16.3686C38.3782 16.3044 37.9162 16.0477 37.4799 15.5986C37.0307 15.1495 36.8062 14.5591 36.8062 13.8277C36.8062 12.5187 37.5376 11.4665 39.0005 10.6708C40.4635 9.8752 42.1702 9.47744 44.1208 9.47744C46.0714 9.47744 47.5471 9.80462 48.5481 10.4591C49.549 11.1007 50.0495 12.1017 50.0495 13.4619C50.0495 15.2457 49.3373 16.5931 47.9129 17.5043C47.1429 18.0047 46.219 18.255 45.141 18.255C44.4609 18.255 43.877 18.1523 43.3893 17.947C42.8504 20.1414 42.5231 21.8995 42.4076 23.2212C41.6505 23.4394 40.81 23.5485 39.886 23.5485C39.6678 23.5485 39.5074 23.5292 39.4048 23.4907C39.4689 22.6823 39.8283 21.0012 40.4827 18.4475C41.15 15.8937 41.4837 14.2319 41.4837 13.4619ZM51.8654 23.664C50.9799 23.664 50.2869 23.356 49.7864 22.74C49.286 22.1112 49.0357 21.2386 49.0357 20.1221C49.0357 18.6977 49.4143 17.4722 50.1714 16.4456C50.9414 15.4189 52.0001 14.9056 53.3475 14.9056L54.0405 14.9441C54.2587 14.8286 54.5025 14.7709 54.772 14.7709C55.7857 14.7709 56.2926 15.7269 56.2926 17.639C56.8188 17.6133 57.3513 17.5428 57.8903 17.4273L58.1983 17.3503L58.3138 18.101C57.8903 18.2806 57.3193 18.441 56.6006 18.5822L56.2156 18.6592C55.9718 20.0066 55.4778 21.1808 54.7335 22.1818C53.9892 23.1699 53.0331 23.664 51.8654 23.664ZM52.9048 22.0085C53.4438 22.0085 53.925 21.6621 54.3485 20.9691C54.7848 20.2761 55.0864 19.5447 55.2532 18.7747C53.8801 18.7747 53.1935 18.2614 53.1935 17.2348C53.1935 16.8241 53.277 16.4391 53.4438 16.0798L53.54 15.8873C53.4887 15.8617 53.4245 15.8488 53.3475 15.8488C53.2705 15.8488 53.2128 15.8617 53.1743 15.8873C52.8535 16.0927 52.5519 16.5739 52.2696 17.331C51.9873 18.0881 51.8461 18.9544 51.8461 19.9296C51.8461 21.3156 52.199 22.0085 52.9048 22.0085ZM58.5291 23.664C58.0928 23.664 57.727 23.5164 57.4319 23.2212C57.1495 22.9261 57.0084 22.5154 57.0084 21.9893C57.0084 21.4503 57.3228 19.75 57.9516 16.8883C58.5932 14.0138 58.914 11.9413 58.914 10.6708L58.7986 9.82387C59.7995 9.47744 60.7363 9.3042 61.6089 9.3042C61.7372 9.48386 61.8014 9.79821 61.8014 10.2474C61.8014 11.274 61.4742 13.263 60.8197 16.2146C60.1781 19.1533 59.8573 20.8664 59.8573 21.3541C59.8573 21.8289 59.915 22.0663 60.0305 22.0663L61.3779 21.5851L61.7244 22.2588C61.2881 22.6053 60.7555 22.9261 60.1267 23.2212C59.5108 23.5164 58.9782 23.664 58.5291 23.664ZM64.8547 23.664C63.9693 23.664 63.2763 23.356 62.7758 22.74C62.2754 22.1112 62.0251 21.2386 62.0251 20.1221C62.0251 18.6977 62.4037 17.4722 63.1608 16.4456C63.9308 15.4189 64.9895 14.9056 66.3369 14.9056L67.0299 14.9441C67.248 14.8286 67.4919 14.7709 67.7614 14.7709C68.7751 14.7709 69.282 15.7269 69.282 17.639C69.8082 17.6133 70.3407 17.5428 70.8797 17.4273L71.1877 17.3503L71.3032 18.101C70.8797 18.2806 70.3086 18.441 69.59 18.5822L69.205 18.6592C68.9612 20.0066 68.4672 21.1808 67.7229 22.1818C66.9786 23.1699 66.0225 23.664 64.8547 23.664ZM65.8942 22.0085C66.4332 22.0085 66.9144 21.6621 67.3379 20.9691C67.7742 20.2761 68.0758 19.5447 68.2426 18.7747C66.8695 18.7747 66.1829 18.2614 66.1829 17.2348C66.1829 16.8241 66.2663 16.4391 66.4332 16.0798L66.5294 15.8873C66.4781 15.8617 66.4139 15.8488 66.3369 15.8488C66.2599 15.8488 66.2022 15.8617 66.1637 15.8873C65.8429 16.0927 65.5413 16.5739 65.259 17.331C64.9766 18.0881 64.8355 18.9544 64.8355 19.9296C64.8355 21.3156 65.1884 22.0085 65.8942 22.0085ZM71.9974 14.9056C72.5621 14.9056 72.9791 15.0211 73.2486 15.2521C73.5309 15.4831 73.6721 15.9579 73.6721 16.6765C73.6721 17.0615 73.5566 17.8507 73.3256 19.0442C73.0946 20.2248 72.9791 20.9434 72.9791 21.2001C72.9791 21.7134 73.0818 21.97 73.2871 21.97C73.7748 21.97 74.3073 21.6107 74.8848 20.8921C75.4751 20.1606 75.7831 19.5511 75.8088 19.0634L74.4998 17.6005C74.5511 17.0487 74.6859 16.5482 74.904 16.0991C75.1222 15.6499 75.3275 15.3355 75.52 15.1559L75.7895 14.9056C76.3413 14.9056 76.7584 15.0532 77.0407 15.3484C77.323 15.6435 77.4642 15.99 77.4642 16.3878C77.4642 17.4016 77.2139 18.4731 76.7135 19.6024C76.213 20.7317 75.5457 21.6941 74.7116 22.4898C73.8774 23.2726 73.0305 23.664 72.1707 23.664C71.6317 23.664 71.2146 23.4971 70.9195 23.1635C70.6372 22.8298 70.496 22.3935 70.496 21.8545C70.496 21.3027 70.5345 20.5649 70.6115 19.6409C70.7013 18.7169 70.7462 17.7994 70.7462 16.8883C70.7462 16.683 70.6693 16.4391 70.5153 16.1568C70.3741 15.8745 70.2265 15.6499 70.0725 15.4831L70.1303 15.2521C70.8232 15.0211 71.4456 14.9056 71.9974 14.9056ZM81.6903 16.0991C81.6903 16.638 81.5171 17.5684 81.1706 18.8902C80.8241 20.1991 80.6509 21.0589 80.6509 21.4696C80.6509 21.8674 80.7086 22.0663 80.8241 22.0663C80.9011 22.0663 81.1963 21.9444 81.7096 21.7006L81.9406 21.5851L82.2678 22.2588C82.1523 22.3614 81.9983 22.4898 81.8058 22.6438C81.6133 22.7978 81.254 23.0095 80.7279 23.279C80.2017 23.5356 79.7141 23.664 79.2649 23.664C78.8158 23.664 78.4629 23.5292 78.2062 23.2597C77.9496 22.9774 77.8212 22.6053 77.8212 22.1433C77.8212 21.6685 77.9817 20.8343 78.3025 19.6409C78.6233 18.4346 78.7837 17.6518 78.7837 17.2925C78.7837 16.7535 78.6169 16.2466 78.2832 15.7718L78.11 15.5408L78.1292 15.2906C78.8094 15.0981 79.913 15.0019 81.4401 15.0019C81.6069 15.1944 81.6903 15.5601 81.6903 16.0991ZM79.4959 12.9037C79.2393 12.6471 79.1109 12.307 79.1109 11.8835C79.1109 11.46 79.2842 11.0879 79.6307 10.7671C79.99 10.4463 80.4006 10.2858 80.8626 10.2858C81.3246 10.2858 81.6839 10.4142 81.9406 10.6708C82.1972 10.9275 82.3255 11.2676 82.3255 11.691C82.3255 12.1017 82.1395 12.4674 81.7673 12.7882C81.408 13.109 81.0038 13.2695 80.5546 13.2695C80.1055 13.2695 79.7526 13.1475 79.4959 12.9037ZM83.4701 23.4907H83.1044C83.1044 22.8876 83.284 21.7326 83.6433 20.0259C84.0155 18.3191 84.2016 17.3503 84.2016 17.1193C84.2016 16.6958 84.0219 16.2466 83.6626 15.7718L83.4894 15.5408L83.5086 15.2906C84.2016 15.0981 85.3116 15.0019 86.8387 15.0019C87.0055 15.22 87.0953 15.6178 87.1082 16.1953C88.2246 15.3355 89.1678 14.9056 89.9378 14.9056C90.3998 14.9056 90.7655 15.066 91.035 15.3869C91.3173 15.7077 91.4585 16.1119 91.4585 16.5995C91.4585 17.0744 91.3109 17.9021 91.0157 19.0827C90.7206 20.2633 90.573 21.0589 90.573 21.4696C90.573 21.8674 90.6244 22.0663 90.727 22.0663C90.804 22.0663 91.0735 21.9444 91.5355 21.7006L91.7665 21.5851L92.1129 22.2588C91.9975 22.3614 91.8435 22.4898 91.651 22.6438C91.4585 22.7978 91.0992 23.0095 90.573 23.279C90.0597 23.5356 89.5977 23.664 89.1871 23.664C88.2503 23.664 87.7819 23.1314 87.7819 22.0663C87.7819 21.6171 87.9231 20.7894 88.2054 19.5832C88.5005 18.3769 88.6481 17.6005 88.6481 17.254C88.6481 16.9075 88.539 16.7343 88.3209 16.7343C87.9487 16.7343 87.4932 16.8947 86.9542 17.2155C86.9157 17.4337 86.7874 18.0111 86.5692 18.9479C86.1201 20.9627 85.8955 22.3871 85.8955 23.2212C85.4463 23.4009 84.6379 23.4907 83.4701 23.4907ZM94.9005 10.7286C94.9005 10.3051 94.862 10.0035 94.785 9.82387C95.786 9.47744 96.7292 9.3042 97.6147 9.3042C97.7301 9.41969 97.7879 9.71479 97.7879 10.1896C97.7879 11.2547 97.435 13.2951 96.7292 16.3108C97.8713 15.374 99.0006 14.9056 100.117 14.9056C100.618 14.9056 101.041 15.0596 101.387 15.3676C101.734 15.6756 101.908 16.1247 101.908 16.715C101.908 17.8187 101.002 18.6207 99.1931 19.1212C99.6166 20.4558 99.9887 21.3605 100.31 21.8353C100.451 22.0406 100.553 22.1433 100.618 22.1433C100.759 22.1433 101.054 22.0342 101.503 21.8161L101.715 21.7198L102.023 22.3743C101.715 22.6566 101.285 22.9453 100.733 23.2405C100.194 23.5228 99.7 23.664 99.2508 23.664C98.2499 23.664 97.5505 22.7528 97.1527 20.9306C96.973 20.1478 96.8639 19.4163 96.8254 18.7362C97.6467 18.5437 98.2563 18.3127 98.6541 18.0432C99.0648 17.7609 99.2701 17.408 99.2701 16.9845C99.2701 16.5482 99.0519 16.3301 98.6156 16.3301C98.1793 16.3301 97.4478 16.7664 96.4212 17.639C95.7796 20.3467 95.4588 22.201 95.4588 23.202C94.753 23.4073 93.8354 23.51 92.7061 23.51C92.6933 23.2918 92.6869 23.0993 92.6869 22.9325C92.6869 22.3807 93.0526 20.4943 93.7841 17.2733C94.5284 14.0523 94.9005 11.8707 94.9005 10.7286ZM108.236 15.4639C108.262 15.4382 108.333 15.2714 108.448 14.9634C109.051 14.9634 109.86 15.143 110.873 15.5024C110.553 16.5675 110.296 17.6839 110.103 18.8517C109.911 20.0066 109.815 20.8343 109.815 21.3348C109.815 21.8225 109.866 22.0663 109.969 22.0663C110.046 22.0663 110.328 21.9444 110.816 21.7006L111.047 21.5851L111.393 22.2588C111.278 22.3614 111.124 22.4898 110.931 22.6438C110.752 22.7978 110.405 23.0095 109.892 23.279C109.378 23.5356 108.916 23.664 108.506 23.664C107.71 23.664 107.248 23.3046 107.12 22.586C106.299 23.3046 105.554 23.664 104.887 23.664C104.232 23.664 103.674 23.4073 103.212 22.894C102.763 22.3807 102.539 21.5722 102.539 20.4686C102.539 18.749 102.891 17.3952 103.597 16.4071C104.303 15.4061 105.156 14.9056 106.157 14.9056C106.876 14.9056 107.569 15.0917 108.236 15.4639ZM106.042 22.0278C106.35 22.0278 106.696 21.9059 107.081 21.6621C107.171 19.8526 107.473 18.0625 107.986 16.2916C107.601 16.1247 107.274 16.0413 107.004 16.0413C106.542 16.0413 106.145 16.4969 105.811 17.408C105.49 18.3063 105.33 19.3008 105.33 20.3916C105.33 21.4824 105.567 22.0278 106.042 22.0278Z" fill="white"/>
</g>
<g filter="url(#filter0_d_299_2534)">
<path d="M107.92 13.3281C108.451 14.2989 109.261 15.062 109.977 15.735C110.096 15.8471 110.214 15.9583 110.329 16.0689C110.774 16.4955 111.22 16.9039 111.652 17.2983C112.074 17.684 112.51 18.0828 112.934 18.4904L113.712 19.2377L114.491 18.4904C114.915 18.0831 115.351 17.6846 115.773 17.2989C116.204 16.9042 116.651 16.4958 117.095 16.0689C117.21 15.9583 117.329 15.8474 117.448 15.7353C118.163 15.062 118.974 14.2989 119.505 13.3281C120.243 11.9792 120.218 10.4144 119.439 9.14218C118.674 7.89132 117.483 7.1967 116.088 7.18616C115.263 7.17973 114.454 7.41498 113.743 7.86324L113.712 7.88225L113.685 7.86499C112.98 7.42053 112.18 7.18616 111.368 7.18616C111.358 7.18616 111.347 7.18616 111.337 7.18616C109.941 7.1967 108.751 7.89132 107.985 9.14218C107.207 10.4144 107.182 11.9792 107.92 13.3281Z" fill="url(#paint0_linear_299_2534)"/>
</g>
<defs>
<filter id="filter0_d_299_2534" x="103.383" y="7.18604" width="20.6582" height="20.0516" filterUnits="userSpaceOnUse" color-interpolation-filters="sRGB">
<feFlood flood-opacity="0" result="BackgroundImageFix"/>
<feColorMatrix in="SourceAlpha" type="matrix" values="0 0 0 0 0 0 0 0 0 0 0 0 0 0 0 0 0 0 127 0" result="hardAlpha"/>
<feOffset dy="4"/>
<feGaussianBlur stdDeviation="2"/>
<feComposite in2="hardAlpha" operator="out"/>
<feColorMatrix type="matrix" values="0 0 0 0 0 0 0 0 0 0 0 0 0 0 0 0 0 0 0.25 0"/>
<feBlend mode="normal" in2="BackgroundImageFix" result="effect1_dropShadow_299_2534"/>
<feBlend mode="normal" in="SourceGraphic" in2="effect1_dropShadow_299_2534" result="shape"/>
</filter>
<linearGradient id="paint0_linear_299_2534" x1="107.383" y1="13.2119" x2="120.042" y2="13.2119" gradientUnits="userSpaceOnUse">
<stop stop-color="#EE0979"/>
<stop offset="1" stop-color="#FF6A00"/>
</linearGradient>
<clipPath id="clip0_299_2534">
<rect width="111" height="33" fill="white"/>
</clipPath>
</defs>
</svg>
