<svg width="109" height="33" viewBox="0 0 109 33" fill="none" xmlns="http://www.w3.org/2000/svg">
<path fill-rule="evenodd" clip-rule="evenodd" d="M11.3711 32.8722C5.08177 32.8181 0 27.703 0 21.4009C0 15.0653 5.13605 9.9292 11.4717 9.9292C17.7402 9.9292 22.8344 14.957 22.9417 21.1999H22.9434V32.8729H11.3711V32.8722Z" fill="#F73D58"/>
<path fill-rule="evenodd" clip-rule="evenodd" d="M32.0001 21.1999H31.9984C31.8911 14.957 26.7969 9.9292 20.5284 9.9292C15.801 9.9292 11.7414 12.7888 9.98511 16.8726C11.7289 20.9274 15.7434 23.7753 20.4278 23.8155V23.8158H20.4733L20.5284 23.816L20.5836 23.8158H32.0001V21.4241V21.3777V21.1999Z" fill="#2479F4" fill-opacity="0.7"/>
<path fill-rule="evenodd" clip-rule="evenodd" d="M20.4275 32.8722C14.1382 32.8182 9.0564 27.703 9.0564 21.4009C9.0564 15.0653 14.1925 9.9292 20.5281 9.9292C26.7966 9.9292 31.8908 14.957 31.9981 21.1999H31.9999V32.8729H20.4275V32.8722Z" fill="#FFBA33"/>
<path fill-rule="evenodd" clip-rule="evenodd" d="M9.0564 12.3443C9.0564 18.6463 14.1382 23.7615 20.4275 23.8155V23.8158H20.473L20.5281 23.816L20.5832 23.8158H22.9434V21.1999H22.9416C22.8344 14.957 17.7402 9.9292 11.4716 9.9292C10.7179 9.9292 9.98104 10.0019 9.26783 10.1407C9.12908 10.8538 9.0564 11.5905 9.0564 12.3443Z" fill="#F73D58"/>
<path fill-rule="evenodd" clip-rule="evenodd" d="M20.4275 23.8155C14.1382 23.7615 9.0564 18.6463 9.0564 12.3443C9.0564 6.00861 14.1925 0.872559 20.5281 0.872559C26.7965 0.872559 31.8906 5.90013 31.9981 12.1429H31.9999V23.8158H20.5832C20.5649 23.8159 20.5465 23.816 20.5281 23.816C20.5097 23.816 20.4913 23.8159 20.473 23.8158H20.4275V23.8155Z" fill="#2479F4" fill-opacity="0.7"/>
<path d="M43.6 13.549C43.6 13.321 43.57 13.153 43.51 13.045C43.462 12.937 43.348 12.781 43.168 12.577L43.186 12.451C43.822 12.079 44.614 11.893 45.562 11.893C45.934 11.893 46.21 11.923 46.39 11.983C46.45 12.103 46.48 12.355 46.48 12.739C46.48 13.111 46.192 14.461 45.616 16.789C45.88 16.897 46.18 16.951 46.516 16.951C47.092 16.951 47.566 16.753 47.938 16.357C48.31 15.961 48.55 15.535 48.658 15.079C48.778 14.611 48.838 14.119 48.838 13.603C48.838 12.655 48.58 11.971 48.064 11.551C47.56 11.119 46.738 10.903 45.598 10.903C44.11 10.903 42.874 11.203 41.89 11.803C40.906 12.403 40.414 13.033 40.414 13.693C40.414 14.029 40.54 14.305 40.792 14.521C41.056 14.725 41.326 14.863 41.602 14.935C41.554 15.367 41.404 15.811 41.152 16.267C40.696 16.207 40.264 15.967 39.856 15.547C39.436 15.127 39.226 14.575 39.226 13.891C39.226 12.667 39.91 11.683 41.278 10.939C42.646 10.195 44.242 9.82305 46.066 9.82305C47.89 9.82305 49.27 10.129 50.206 10.741C51.142 11.341 51.61 12.277 51.61 13.549C51.61 15.217 50.944 16.477 49.612 17.329C48.892 17.797 48.028 18.031 47.02 18.031C46.384 18.031 45.838 17.935 45.382 17.743C44.878 19.795 44.572 21.439 44.464 22.675C43.756 22.879 42.97 22.981 42.106 22.981C41.902 22.981 41.752 22.963 41.656 22.927C41.716 22.171 42.052 20.599 42.664 18.211C43.288 15.823 43.6 14.269 43.6 13.549ZM53.308 23.089C52.48 23.089 51.832 22.801 51.364 22.225C50.896 21.637 50.662 20.821 50.662 19.777C50.662 18.445 51.016 17.299 51.724 16.339C52.444 15.379 53.434 14.899 54.694 14.899L55.342 14.935C55.546 14.827 55.774 14.773 56.026 14.773C56.974 14.773 57.448 15.667 57.448 17.455C57.94 17.431 58.438 17.365 58.942 17.257L59.23 17.185L59.338 17.887C58.942 18.055 58.408 18.205 57.736 18.337L57.376 18.409C57.148 19.669 56.686 20.767 55.99 21.703C55.294 22.627 54.4 23.089 53.308 23.089ZM54.28 21.541C54.784 21.541 55.234 21.217 55.63 20.569C56.038 19.921 56.32 19.237 56.476 18.517C55.192 18.517 54.55 18.037 54.55 17.077C54.55 16.693 54.628 16.333 54.784 15.997L54.874 15.817C54.826 15.793 54.766 15.781 54.694 15.781C54.622 15.781 54.568 15.793 54.532 15.817C54.232 16.009 53.95 16.459 53.686 17.167C53.422 17.875 53.29 18.685 53.29 19.597C53.29 20.893 53.62 21.541 54.28 21.541ZM59.5393 23.089C59.1313 23.089 58.7893 22.951 58.5133 22.675C58.2493 22.399 58.1173 22.015 58.1173 21.523C58.1173 21.019 58.4113 19.429 58.9993 16.753C59.5993 14.065 59.8993 12.127 59.8993 10.939L59.7913 10.147C60.7273 9.82305 61.6033 9.66105 62.4193 9.66105C62.5393 9.82905 62.5993 10.123 62.5993 10.543C62.5993 11.503 62.2933 13.363 61.6813 16.123C61.0813 18.871 60.7813 20.473 60.7813 20.929C60.7813 21.373 60.8353 21.595 60.9433 21.595L62.2033 21.145L62.5273 21.775C62.1193 22.099 61.6213 22.399 61.0333 22.675C60.4573 22.951 59.9593 23.089 59.5393 23.089ZM65.4545 23.089C64.6265 23.089 63.9785 22.801 63.5105 22.225C63.0425 21.637 62.8085 20.821 62.8085 19.777C62.8085 18.445 63.1625 17.299 63.8705 16.339C64.5905 15.379 65.5805 14.899 66.8405 14.899L67.4885 14.935C67.6925 14.827 67.9205 14.773 68.1725 14.773C69.1205 14.773 69.5945 15.667 69.5945 17.455C70.0865 17.431 70.5845 17.365 71.0885 17.257L71.3765 17.185L71.4845 17.887C71.0885 18.055 70.5545 18.205 69.8825 18.337L69.5225 18.409C69.2945 19.669 68.8325 20.767 68.1365 21.703C67.4405 22.627 66.5465 23.089 65.4545 23.089ZM66.4265 21.541C66.9305 21.541 67.3805 21.217 67.7765 20.569C68.1845 19.921 68.4665 19.237 68.6225 18.517C67.3385 18.517 66.6965 18.037 66.6965 17.077C66.6965 16.693 66.7745 16.333 66.9305 15.997L67.0205 15.817C66.9725 15.793 66.9125 15.781 66.8405 15.781C66.7685 15.781 66.7145 15.793 66.6785 15.817C66.3785 16.009 66.0965 16.459 65.8325 17.167C65.5685 17.875 65.4365 18.685 65.4365 19.597C65.4365 20.893 65.7665 21.541 66.4265 21.541ZM72.1337 14.899C72.6617 14.899 73.0517 15.007 73.3037 15.223C73.5677 15.439 73.6997 15.883 73.6997 16.555C73.6997 16.915 73.5917 17.653 73.3757 18.769C73.1597 19.873 73.0517 20.545 73.0517 20.785C73.0517 21.265 73.1477 21.505 73.3397 21.505C73.7957 21.505 74.2937 21.169 74.8337 20.497C75.3857 19.813 75.6737 19.243 75.6977 18.787L74.4737 17.419C74.5217 16.903 74.6477 16.435 74.8517 16.015C75.0557 15.595 75.2477 15.301 75.4277 15.133L75.6797 14.899C76.1957 14.899 76.5857 15.037 76.8497 15.313C77.1137 15.589 77.2457 15.913 77.2457 16.285C77.2457 17.233 77.0117 18.235 76.5437 19.291C76.0757 20.347 75.4517 21.247 74.6717 21.991C73.8917 22.723 73.0997 23.089 72.2957 23.089C71.7917 23.089 71.4017 22.933 71.1257 22.621C70.8617 22.309 70.7297 21.901 70.7297 21.397C70.7297 20.881 70.7657 20.191 70.8377 19.327C70.9217 18.463 70.9637 17.605 70.9637 16.753C70.9637 16.561 70.8917 16.333 70.7477 16.069C70.6157 15.805 70.4777 15.595 70.3337 15.439L70.3877 15.223C71.0357 15.007 71.6177 14.899 72.1337 14.899ZM81.1976 16.015C81.1976 16.519 81.0356 17.389 80.7116 18.625C80.3876 19.849 80.2256 20.653 80.2256 21.037C80.2256 21.409 80.2796 21.595 80.3876 21.595C80.4596 21.595 80.7356 21.481 81.2156 21.253L81.4316 21.145L81.7376 21.775C81.6296 21.871 81.4856 21.991 81.3056 22.135C81.1256 22.279 80.7896 22.477 80.2976 22.729C79.8056 22.969 79.3496 23.089 78.9296 23.089C78.5096 23.089 78.1796 22.963 77.9396 22.711C77.6996 22.447 77.5796 22.099 77.5796 21.667C77.5796 21.223 77.7296 20.443 78.0296 19.327C78.3296 18.199 78.4796 17.467 78.4796 17.131C78.4796 16.627 78.3236 16.153 78.0116 15.709L77.8496 15.493L77.8676 15.259C78.5036 15.079 79.5356 14.989 80.9636 14.989C81.1196 15.169 81.1976 15.511 81.1976 16.015ZM79.1456 13.027C78.9056 12.787 78.7856 12.469 78.7856 12.073C78.7856 11.677 78.9476 11.329 79.2716 11.029C79.6076 10.729 79.9916 10.579 80.4236 10.579C80.8556 10.579 81.1916 10.699 81.4316 10.939C81.6716 11.179 81.7916 11.497 81.7916 11.893C81.7916 12.277 81.6176 12.619 81.2696 12.919C80.9336 13.219 80.5556 13.369 80.1356 13.369C79.7156 13.369 79.3856 13.255 79.1456 13.027ZM82.8619 22.927H82.5199C82.5199 22.363 82.6879 21.283 83.0239 19.687C83.3719 18.091 83.5459 17.185 83.5459 16.969C83.5459 16.573 83.3779 16.153 83.0419 15.709L82.8799 15.493L82.8979 15.259C83.5459 15.079 84.5839 14.989 86.0119 14.989C86.1679 15.193 86.2519 15.565 86.2639 16.105C87.3079 15.301 88.1899 14.899 88.9099 14.899C89.3419 14.899 89.6839 15.049 89.9359 15.349C90.1999 15.649 90.3319 16.027 90.3319 16.483C90.3319 16.927 90.1939 17.701 89.9179 18.805C89.6419 19.909 89.5039 20.653 89.5039 21.037C89.5039 21.409 89.5519 21.595 89.6479 21.595C89.7199 21.595 89.9719 21.481 90.4039 21.253L90.6199 21.145L90.9439 21.775C90.8359 21.871 90.6919 21.991 90.5119 22.135C90.3319 22.279 89.9959 22.477 89.5039 22.729C89.0239 22.969 88.5919 23.089 88.2079 23.089C87.3319 23.089 86.8939 22.591 86.8939 21.595C86.8939 21.175 87.0259 20.401 87.2899 19.273C87.5659 18.145 87.7039 17.419 87.7039 17.095C87.7039 16.771 87.6019 16.609 87.3979 16.609C87.0499 16.609 86.6239 16.759 86.1199 17.059C86.0839 17.263 85.9639 17.803 85.7599 18.679C85.3399 20.563 85.1299 21.895 85.1299 22.675C84.7099 22.843 83.9539 22.927 82.8619 22.927ZM93.5506 10.993C93.5506 10.597 93.5146 10.315 93.4426 10.147C94.3786 9.82305 95.2606 9.66105 96.0886 9.66105C96.1966 9.76905 96.2506 10.045 96.2506 10.489C96.2506 11.485 95.9206 13.393 95.2606 16.213C96.3286 15.337 97.3846 14.899 98.4286 14.899C98.8966 14.899 99.2926 15.043 99.6166 15.331C99.9406 15.619 100.103 16.039 100.103 16.591C100.103 17.623 99.2566 18.373 97.5646 18.841C97.9606 20.089 98.3086 20.935 98.6086 21.379C98.7406 21.571 98.8366 21.667 98.8966 21.667C99.0286 21.667 99.3046 21.565 99.7246 21.361L99.9226 21.271L100.211 21.883C99.9226 22.147 99.5206 22.417 99.0046 22.693C98.5006 22.957 98.0386 23.089 97.6186 23.089C96.6826 23.089 96.0286 22.237 95.6566 20.533C95.4886 19.801 95.3866 19.117 95.3506 18.481C96.1186 18.301 96.6886 18.085 97.0606 17.833C97.4446 17.569 97.6366 17.239 97.6366 16.843C97.6366 16.435 97.4326 16.231 97.0246 16.231C96.6166 16.231 95.9326 16.639 94.9726 17.455C94.3726 19.987 94.0726 21.721 94.0726 22.657C93.4126 22.849 92.5546 22.945 91.4986 22.945C91.4866 22.741 91.4806 22.561 91.4806 22.405C91.4806 21.889 91.8226 20.125 92.5066 17.113C93.2026 14.101 93.5506 12.061 93.5506 10.993ZM106.021 15.421C106.045 15.397 106.111 15.241 106.219 14.953C106.783 14.953 107.539 15.121 108.487 15.457C108.187 16.453 107.947 17.497 107.767 18.589C107.587 19.669 107.497 20.443 107.497 20.911C107.497 21.367 107.545 21.595 107.641 21.595C107.713 21.595 107.977 21.481 108.433 21.253L108.649 21.145L108.973 21.775C108.865 21.871 108.721 21.991 108.541 22.135C108.373 22.279 108.049 22.477 107.569 22.729C107.089 22.969 106.657 23.089 106.273 23.089C105.529 23.089 105.097 22.753 104.977 22.081C104.209 22.753 103.513 23.089 102.889 23.089C102.277 23.089 101.755 22.849 101.323 22.369C100.903 21.889 100.693 21.133 100.693 20.101C100.693 18.493 101.023 17.227 101.683 16.303C102.343 15.367 103.141 14.899 104.077 14.899C104.749 14.899 105.397 15.073 106.021 15.421ZM103.969 21.559C104.257 21.559 104.581 21.445 104.941 21.217C105.025 19.525 105.307 17.851 105.787 16.195C105.427 16.039 105.121 15.961 104.869 15.961C104.437 15.961 104.065 16.387 103.753 17.239C103.453 18.079 103.303 19.009 103.303 20.029C103.303 21.049 103.525 21.559 103.969 21.559Z" fill="white"/>
</svg>
